# SSTK version 0.8.0
# 91
mtllib original-91.mtl
o WSC/WSC_3/ID580#ID580
v 0.617293 0.626316 0.056224
v -0.646148 0.626316 0.068264
v -0.646148 0.626316 0.056224
v 0.617293 0.626316 0.068264
v 0.617293 0.626316 0.068264
v 0.617293 0.626316 0.056224
v -0.646148 0.626316 0.068264
v -0.646148 0.626316 0.056224
v -0.646148 0.626316 0.056224
v 0.617293 0.606101 0.056224
v 0.617293 0.626316 0.056224
v -0.646148 0.606101 0.056224
v -0.646148 0.606101 0.056224
v -0.646148 0.626316 0.056224
v 0.617293 0.606101 0.056224
v 0.617293 0.626316 0.056224
v -0.646148 0.655768 0.068264
v 0.617293 0.626316 0.068264
v 0.617293 0.655768 0.068264
v -0.646148 0.626316 0.068264
v -0.646148 0.626316 0.068264
v -0.646148 0.655768 0.068264
v 0.617293 0.626316 0.068264
v 0.617293 0.655768 0.068264
v 0.617293 0.606101 0.041876
v -0.646148 0.606101 0.056224
v -0.646148 0.606101 0.041876
v 0.617293 0.606101 0.056224
v 0.617293 0.606101 0.056224
v 0.617293 0.606101 0.041876
v -0.646148 0.606101 0.056224
v -0.646148 0.606101 0.041876
v 0.617293 0.655768 0.068264
v -0.646148 0.655768 0.041876
v -0.646148 0.655768 0.068264
v 0.617293 0.655768 0.041876
v 0.617293 0.655768 0.041876
v 0.617293 0.655768 0.068264
v -0.646148 0.655768 0.041876
v -0.646148 0.655768 0.068264
v 0.617293 0.606101 0.041876
v -0.646148 0.623268 0.041876
v 0.617293 0.623268 0.041876
v -0.646148 0.606101 0.041876
v -0.646148 0.606101 0.041876
v 0.617293 0.606101 0.041876
v -0.646148 0.623268 0.041876
v 0.617293 0.623268 0.041876
vt 0.08333333 0.00938457
vt 7.027211e-17 0.01725954
vt 4.560048e-17 0.00938457
vt 0.08333333 0.01725954
vt -4.934325e-17 0.01926389
vt -0.08333333 0.03248611
vt -0.08333333 0.01926389
vt -9.868649e-17 0.03248611
vt 1.932608e-32 4.624598e-17
vt -0.08333333 3.005523e-17
vt -7.401487e-17 0.01926389
vt 0.08333333 0
vt 9.23748e-17 0.00938457
vt 9.23748e-17 0
vt -0.08333333 0.01725954
vt -4.934325e-17 1.233581e-16
vt 2.831117e-32 0.01725954
vt -0.08333333 1.233581e-16
vt 0.08333333 0.03248611
vt 4.934325e-17 0.02125759
vt 0.08333333 0.02125759
vt 9.868649e-17 0.03248611
vn 0 -1 0
vn 0 1 0
vn 0 0 1
vn 0 0 -1
usemtl material_0_0
f 1/1/1 2/2/1 3/3/1
f 2/2/1 1/1/1 4/4/1
f 5/4/2 6/1/2 7/2/2
f 8/3/2 7/2/2 6/1/2
f 9/5/3 10/6/3 11/7/3
f 10/6/3 9/5/3 12/8/3
f 13/8/4 14/5/4 15/6/4
f 16/7/4 15/6/4 14/5/4
f 17/9/3 18/7/3 19/10/3
f 18/7/3 17/9/3 20/11/3
f 21/11/4 22/9/4 23/7/4
f 24/10/4 23/7/4 22/9/4
f 25/12/1 26/13/1 27/14/1
f 26/13/1 25/12/1 28/1/1
f 29/1/2 30/12/2 31/13/2
f 32/14/2 31/13/2 30/12/2
f 33/15/2 34/16/2 35/17/2
f 34/16/2 33/15/2 36/18/2
f 37/18/1 38/15/1 39/16/1
f 40/17/1 39/16/1 38/15/1
f 41/19/4 42/20/4 43/21/4
f 42/20/4 41/19/4 44/22/4
f 45/22/3 46/19/3 47/20/3
f 48/21/3 47/20/3 46/19/3
