# SSTK version 0.8.0
# 90
mtllib original-90.mtl
o WSL/WSL_3/ID570#ID570
v -0.756503 0.606101 0.056224
v -0.646148 0.626316 0.056224
v -0.756503 0.626316 0.056224
v -0.646148 0.606101 0.056224
v -0.646148 0.606101 0.056224
v -0.756503 0.606101 0.056224
v -0.646148 0.626316 0.056224
v -0.756503 0.626316 0.056224
v -0.756914 0.626316 0.057647
v -0.759618 0.626316 0.068264
v -0.759618 0.626316 0.057647
v -0.646148 0.626316 0.068264
v -0.756503 0.626316 0.056224
v -0.646148 0.626316 0.056224
v -0.646148 0.626316 0.056224
v -0.756503 0.626316 0.056224
v -0.646148 0.626316 0.068264
v -0.756914 0.626316 0.057647
v -0.759618 0.626316 0.068264
v -0.759618 0.626316 0.057647
v -0.752361 0.606101 0.041876
v -0.646148 0.606101 0.056224
v -0.756503 0.606101 0.056224
v -0.646148 0.606101 0.041876
v -0.646148 0.606101 0.041876
v -0.752361 0.606101 0.041876
v -0.646148 0.606101 0.056224
v -0.756503 0.606101 0.056224
v -0.759618 0.655768 0.068264
v -0.646148 0.626316 0.068264
v -0.646148 0.655768 0.068264
v -0.759618 0.626316 0.068264
v -0.759618 0.626316 0.068264
v -0.759618 0.655768 0.068264
v -0.646148 0.626316 0.068264
v -0.646148 0.655768 0.068264
v -0.646148 0.606101 0.041876
v -0.752361 0.623268 0.041876
v -0.646148 0.623268 0.041876
v -0.752361 0.606101 0.041876
v -0.752361 0.606101 0.041876
v -0.646148 0.606101 0.041876
v -0.752361 0.623268 0.041876
v -0.646148 0.623268 0.041876
v -0.646148 0.655768 0.068264
v -0.759618 0.655768 0.057647
v -0.759618 0.655768 0.068264
v -0.756914 0.655768 0.057647
v -0.752361 0.655768 0.041876
v -0.646148 0.655768 0.041876
v -0.646148 0.655768 0.041876
v -0.646148 0.655768 0.068264
v -0.752361 0.655768 0.041876
v -0.756914 0.655768 0.057647
v -0.759618 0.655768 0.057647
v -0.759618 0.655768 0.068264
vt -0.01115216 0.03248611
vt -0.08333333 0.01926389
vt -0.01115216 0.01926389
vt -0.08333333 0.03248611
vt 0.01088349 0.0103151
vt 0.009114583 0.01725954
vt 0.009114583 0.0103151
vt 0.08333333 0.01725954
vt 0.01115216 0.00938457
vt 0.08333333 0.00938457
vt 0.01386171 -3.706736e-16
vt 0.08333333 -1.224776e-18
vt -0.009114583 4.071981e-17
vt -0.08333333 2.452906e-17
vt -0.009114583 0.01926389
vt 0.08333333 0.03248611
vt 0.01386171 0.02125759
vt 0.08333333 0.02125759
vt 0.01386171 0.03248611
vt -0.08333333 0.01725954
vt -0.009114583 0.0103151
vt -0.009114583 0.01725954
vt -0.01088349 0.0103151
vt -0.01386171 1.241291e-16
vt -0.08333333 1.233581e-16
vn 0 0 1
vn 0 0 -1
vn 0 -1 0
vn 0 1 0
usemtl material_0_0
f 1/1/1 2/2/1 3/3/1
f 2/2/1 1/1/1 4/4/1
f 5/4/2 6/1/2 7/2/2
f 8/3/2 7/2/2 6/1/2
f 9/5/3 10/6/3 11/7/3
f 10/6/3 9/5/3 12/8/3
f 12/8/3 9/5/3 13/9/3
f 12/8/3 13/9/3 14/10/3
f 15/10/4 16/9/4 17/8/4
f 16/9/4 18/5/4 17/8/4
f 17/8/4 18/5/4 19/6/4
f 20/7/4 19/6/4 18/5/4
f 21/11/3 22/10/3 23/9/3
f 22/10/3 21/11/3 24/12/3
f 25/12/4 26/11/4 27/10/4
f 28/9/4 27/10/4 26/11/4
f 29/13/1 30/2/1 31/14/1
f 30/2/1 29/13/1 32/15/1
f 33/15/2 34/13/2 35/2/2
f 36/14/2 35/2/2 34/13/2
f 37/16/2 38/17/2 39/18/2
f 38/17/2 37/16/2 40/19/2
f 41/19/1 42/16/1 43/17/1
f 44/18/1 43/17/1 42/16/1
f 45/20/4 46/21/4 47/22/4
f 46/21/4 45/20/4 48/23/4
f 48/23/4 45/20/4 49/24/4
f 49/24/4 45/20/4 50/25/4
f 51/25/3 52/20/3 53/24/3
f 53/24/3 52/20/3 54/23/3
f 54/23/3 52/20/3 55/21/3
f 56/22/3 55/21/3 52/20/3
