# SSTK version 0.8.0
# 40
mtllib original-40.mtl
o #ID246
v -0.711178 -0.457705 0.012105
v -0.717418 0.496511 0.005864
v -0.711178 0.496511 0.012105
v -0.717418 -0.457705 0.005864
v -0.717418 -0.457705 0.005864
v -0.711178 -0.457705 0.012105
v -0.717418 0.496511 0.005864
v -0.711178 0.496511 0.012105
v -0.711178 0.496511 0.013187
v -0.711178 -0.457705 0.012105
v -0.711178 0.496511 0.012105
v -0.711178 -0.457705 0.013187
v -0.711178 -0.457705 0.013187
v -0.711178 0.496511 0.013187
v -0.711178 -0.457705 0.012105
v -0.711178 0.496511 0.012105
v -0.717418 -0.457705 0.005864
v -0.745683 0.496511 0.005864
v -0.717418 0.496511 0.005864
v -0.745683 -0.457705 0.005864
v -0.745683 -0.457705 0.005864
v -0.717418 -0.457705 0.005864
v -0.745683 0.496511 0.005864
v -0.717418 0.496511 0.005864
v -0.725105 -0.457705 0.013187
v -0.711178 0.496511 0.013187
v -0.725105 0.496511 0.013187
v -0.711178 -0.457705 0.013187
v -0.711178 -0.457705 0.013187
v -0.725105 -0.457705 0.013187
v -0.711178 0.496511 0.013187
v -0.725105 0.496511 0.013187
v -0.745683 -0.457705 0.028449
v -0.745683 0.496511 0.005864
v -0.745683 -0.457705 0.005864
v -0.745683 0.496511 0.028449
v -0.745683 0.496511 0.028449
v -0.745683 -0.457705 0.028449
v -0.745683 0.496511 0.005864
v -0.745683 -0.457705 0.005864
v -0.725105 0.496511 0.028449
v -0.725105 -0.457705 0.013187
v -0.725105 0.496511 0.013187
v -0.725105 -0.457705 0.028449
v -0.725105 -0.457705 0.028449
v -0.725105 0.496511 0.028449
v -0.725105 -0.457705 0.013187
v -0.725105 0.496511 0.013187
vn 0.7071066397651489 0 -0.7071069226079181
vn -0.7071066397651489 0 0.7071069226079181
vn 1 0 0
vn -1 0 0
vn 0 0 -1
vn 0 0 1
usemtl material_0_0
f 1//1 2//1 3//1
f 2//1 1//1 4//1
f 5//2 6//2 7//2
f 8//2 7//2 6//2
f 9//3 10//3 11//3
f 10//3 9//3 12//3
f 13//4 14//4 15//4
f 16//4 15//4 14//4
f 17//5 18//5 19//5
f 18//5 17//5 20//5
f 21//6 22//6 23//6
f 24//6 23//6 22//6
f 25//6 26//6 27//6
f 26//6 25//6 28//6
f 29//5 30//5 31//5
f 32//5 31//5 30//5
f 33//4 34//4 35//4
f 34//4 33//4 36//4
f 37//3 38//3 39//3
f 40//3 39//3 38//3
f 41//3 42//3 43//3
f 42//3 41//3 44//3
f 45//4 46//4 47//4
f 48//4 47//4 46//4
