# SSTK version 0.8.0
# 79
mtllib original-79.mtl
o CSCL/CSCL_3/ID472#ID472
v -0.646148 0.655768 0.041876
v -0.749816 0.655768 0.033062
v -0.752361 0.655768 0.041876
v -0.748338 0.655768 0.033062
v -0.748338 0.655768 -0.035253
v -0.740375 0.655768 -0.035253
v -0.740375 0.655768 -0.036569
v -0.745031 0.655768 -0.041226
v -0.757628 0.655768 -0.051843
v -0.757628 0.655768 -0.041226
v -0.646148 0.655768 -0.051843
v -0.646148 0.655768 0.041876
v -0.740375 0.655768 -0.036569
v -0.646148 0.655768 -0.051843
v -0.745031 0.655768 -0.041226
v -0.757628 0.655768 -0.051843
v -0.757628 0.655768 -0.041226
v -0.740375 0.655768 -0.035253
v -0.748338 0.655768 -0.035253
v -0.748338 0.655768 0.033062
v -0.749816 0.655768 0.033062
v -0.752361 0.655768 0.041876
v -0.646148 0.646003 -0.051843
v -0.757628 0.655768 -0.051843
v -0.646148 0.655768 -0.051843
v -0.757628 0.646003 -0.051843
v -0.757628 0.646003 -0.051843
v -0.646148 0.646003 -0.051843
v -0.757628 0.655768 -0.051843
v -0.646148 0.655768 -0.051843
v -0.646148 0.646003 -0.051843
v -0.757628 0.643551 -0.041226
v -0.757628 0.646003 -0.051843
v -0.745031 0.643551 -0.041226
v -0.740375 0.642476 -0.036569
v -0.740375 0.642173 -0.035253
v -0.748338 0.632680 0.005864
v -0.748338 0.642173 -0.035253
v -0.646148 0.632680 0.005864
v -0.646148 0.646003 -0.051843
v -0.740375 0.642173 -0.035253
v -0.646148 0.632680 0.005864
v -0.748338 0.632680 0.005864
v -0.748338 0.642173 -0.035253
v -0.740375 0.642476 -0.036569
v -0.745031 0.643551 -0.041226
v -0.757628 0.643551 -0.041226
v -0.757628 0.646003 -0.051843
v -0.646148 0.625443 0.005864
v -0.748338 0.632680 0.005864
v -0.646148 0.632680 0.005864
v -0.748338 0.625443 0.005864
v -0.748338 0.625443 0.005864
v -0.646148 0.625443 0.005864
v -0.748338 0.632680 0.005864
v -0.646148 0.632680 0.005864
v -0.646148 0.625443 0.005864
v -0.748338 0.625443 0.015248
v -0.748338 0.625443 0.005864
v -0.646148 0.625443 0.015248
v -0.646148 0.625443 0.015248
v -0.646148 0.625443 0.005864
v -0.748338 0.625443 0.015248
v -0.748338 0.625443 0.005864
v -0.646148 0.621277 0.015248
v -0.748338 0.625443 0.015248
v -0.646148 0.625443 0.015248
v -0.748338 0.621277 0.015248
v -0.748338 0.621277 0.015248
v -0.646148 0.621277 0.015248
v -0.748338 0.625443 0.015248
v -0.646148 0.625443 0.015248
v -0.646148 0.621277 0.015248
v -0.748338 0.621277 0.024867
v -0.748338 0.621277 0.015248
v -0.646148 0.621277 0.024867
v -0.646148 0.621277 0.024867
v -0.646148 0.621277 0.015248
v -0.748338 0.621277 0.024867
v -0.748338 0.621277 0.015248
v -0.748338 0.621277 0.024867
v -0.646148 0.627195 0.024867
v -0.748338 0.627195 0.024867
v -0.646148 0.621277 0.024867
v -0.646148 0.621277 0.024867
v -0.748338 0.621277 0.024867
v -0.646148 0.627195 0.024867
v -0.748338 0.627195 0.024867
v -0.646148 0.627195 0.024867
v -0.748338 0.625303 0.033062
v -0.748338 0.627195 0.024867
v -0.646148 0.623917 0.039067
v -0.749816 0.625303 0.033062
v -0.751550 0.623917 0.039067
v -0.748338 0.625303 0.033062
v -0.749816 0.625303 0.033062
v -0.646148 0.623917 0.039067
v -0.751550 0.623917 0.039067
v -0.646148 0.627195 0.024867
v -0.748338 0.627195 0.024867
v -0.751550 0.623917 0.039067
v -0.646148 0.623268 0.041876
v -0.752361 0.623268 0.041876
v -0.646148 0.623917 0.039067
v -0.646148 0.623917 0.039067
v -0.751550 0.623917 0.039067
v -0.646148 0.623268 0.041876
v -0.752361 0.623268 0.041876
vn 0 1 0
vn 0 -1 0
vn 0 0 -1
vn 0 0 1
vn 0 -0.9743700565600406 -0.2249510899710937
vn 0 0.9743700565600406 0.2249510899710937
usemtl material_0_0
f 1//1 2//1 3//1
f 2//1 1//1 4//1
f 4//1 1//1 5//1
f 5//1 1//1 6//1
f 6//1 1//1 7//1
f 8//1 9//1 10//1
f 9//1 8//1 11//1
f 11//1 8//1 7//1
f 11//1 7//1 1//1
f 12//2 13//2 14//2
f 13//2 15//2 14//2
f 14//2 15//2 16//2
f 17//2 16//2 15//2
f 13//2 12//2 18//2
f 18//2 12//2 19//2
f 19//2 12//2 20//2
f 20//2 12//2 21//2
f 22//2 21//2 12//2
f 23//3 24//3 25//3
f 24//3 23//3 26//3
f 27//4 28//4 29//4
f 30//4 29//4 28//4
f 31//5 32//5 33//5
f 32//5 31//5 34//5
f 34//5 31//5 35//5
f 35//5 31//5 36//5
f 36//5 37//5 38//5
f 37//5 36//5 39//5
f 39//5 36//5 31//5
f 40//6 41//6 42//6
f 42//6 41//6 43//6
f 44//6 43//6 41//6
f 41//6 40//6 45//6
f 45//6 40//6 46//6
f 46//6 40//6 47//6
f 48//6 47//6 40//6
f 49//3 50//3 51//3
f 50//3 49//3 52//3
f 53//4 54//4 55//4
f 56//4 55//4 54//4
f 57//2 58//2 59//2
f 58//2 57//2 60//2
f 61//1 62//1 63//1
f 64//1 63//1 62//1
f 65//3 66//3 67//3
f 66//3 65//3 68//3
f 69//4 70//4 71//4
f 72//4 71//4 70//4
f 73//2 74//2 75//2
f 74//2 73//2 76//2
f 77//1 78//1 79//1
f 80//1 79//1 78//1
f 81//4 82//4 83//4
f 82//4 81//4 84//4
f 85//3 86//3 87//3
f 88//3 87//3 86//3
f 89//5 90//5 91//5
f 90//5 89//5 92//5
f 93//5 92//5 94//5
f 92//5 93//5 90//5
f 95//6 96//6 97//6
f 98//6 97//6 96//6
f 97//6 99//6 95//6
f 100//6 95//6 99//6
f 101//5 102//5 103//5
f 102//5 101//5 104//5
f 105//6 106//6 107//6
f 108//6 107//6 106//6
