# SSTK version 0.8.0
# 25
mtllib original-25.mtl
o #ID176
v -0.745683 -0.585111 0.028449
v -0.745683 -0.457705 0.005864
v -0.745683 -0.585111 0.005864
v -0.745683 -0.457705 0.028449
v -0.745683 -0.457705 0.028449
v -0.745683 -0.585111 0.028449
v -0.745683 -0.457705 0.005864
v -0.745683 -0.585111 0.005864
v -0.618278 -0.585111 0.005864
v -0.717418 -0.556846 0.005864
v -0.618278 -0.556846 0.005864
v -0.745683 -0.457705 0.005864
v -0.717418 -0.457705 0.005864
v -0.745683 -0.585111 0.005864
v -0.618278 -0.585111 0.005864
v -0.717418 -0.556846 0.005864
v -0.745683 -0.585111 0.005864
v -0.745683 -0.457705 0.005864
v -0.717418 -0.457705 0.005864
v -0.618278 -0.556846 0.005864
v -0.618278 -0.585111 0.005864
v -0.745683 -0.585111 0.028449
v -0.745683 -0.585111 0.005864
v -0.618278 -0.585111 0.028449
v -0.618278 -0.585111 0.028449
v -0.618278 -0.585111 0.005864
v -0.745683 -0.585111 0.028449
v -0.745683 -0.585111 0.005864
v -0.711178 -0.550605 0.012105
v -0.717418 -0.457705 0.005864
v -0.711178 -0.457705 0.012105
v -0.717418 -0.556846 0.005864
v -0.717418 -0.556846 0.005864
v -0.711178 -0.550605 0.012105
v -0.717418 -0.457705 0.005864
v -0.711178 -0.457705 0.012105
v -0.618278 -0.550605 0.012105
v -0.717418 -0.556846 0.005864
v -0.711178 -0.550605 0.012105
v -0.618278 -0.556846 0.005864
v -0.618278 -0.556846 0.005864
v -0.618278 -0.550605 0.012105
v -0.717418 -0.556846 0.005864
v -0.711178 -0.550605 0.012105
v -0.711178 -0.457705 0.012105
v -0.711178 -0.550605 0.013187
v -0.711178 -0.550605 0.012105
v -0.711178 -0.457705 0.013187
v -0.711178 -0.457705 0.013187
v -0.711178 -0.457705 0.012105
v -0.711178 -0.550605 0.013187
v -0.711178 -0.550605 0.012105
v -0.618278 -0.550605 0.013187
v -0.711178 -0.550605 0.012105
v -0.711178 -0.550605 0.013187
v -0.618278 -0.550605 0.012105
v -0.618278 -0.550605 0.012105
v -0.618278 -0.550605 0.013187
v -0.711178 -0.550605 0.012105
v -0.711178 -0.550605 0.013187
v -0.725105 -0.564533 0.013187
v -0.711178 -0.457705 0.013187
v -0.725105 -0.457705 0.013187
v -0.711178 -0.550605 0.013187
v -0.618278 -0.550605 0.013187
v -0.618278 -0.564533 0.013187
v -0.618278 -0.564533 0.013187
v -0.725105 -0.564533 0.013187
v -0.618278 -0.550605 0.013187
v -0.711178 -0.550605 0.013187
v -0.711178 -0.457705 0.013187
v -0.725105 -0.457705 0.013187
v -0.725105 -0.457705 0.028449
v -0.725105 -0.564533 0.013187
v -0.725105 -0.457705 0.013187
v -0.725105 -0.564533 0.028449
v -0.725105 -0.564533 0.028449
v -0.725105 -0.457705 0.028449
v -0.725105 -0.564533 0.013187
v -0.725105 -0.457705 0.013187
v -0.618278 -0.564533 0.028449
v -0.725105 -0.564533 0.013187
v -0.725105 -0.564533 0.028449
v -0.618278 -0.564533 0.013187
v -0.618278 -0.564533 0.013187
v -0.618278 -0.564533 0.028449
v -0.725105 -0.564533 0.013187
v -0.725105 -0.564533 0.028449
vn -1 0 0
vn 1 0 0
vn 0 0 -1
vn 0 0 1
vn 0 -1 0
vn 0 1 0
vn 0.7071067811865476 0 -0.7071067811865476
vn -0.7071067811865476 0 0.7071067811865476
vn 0 0.7071067811865477 -0.7071067811865475
vn 0 -0.7071067811865477 0.7071067811865475
usemtl material_0_0
f 1//1 2//1 3//1
f 2//1 1//1 4//1
f 5//2 6//2 7//2
f 8//2 7//2 6//2
f 9//3 10//3 11//3
f 10//3 12//3 13//3
f 12//3 10//3 14//3
f 14//3 10//3 9//3
f 15//4 16//4 17//4
f 17//4 16//4 18//4
f 19//4 18//4 16//4
f 20//4 16//4 15//4
f 21//5 22//5 23//5
f 22//5 21//5 24//5
f 25//6 26//6 27//6
f 28//6 27//6 26//6
f 29//7 30//7 31//7
f 30//7 29//7 32//7
f 33//8 34//8 35//8
f 36//8 35//8 34//8
f 37//9 38//9 39//9
f 38//9 37//9 40//9
f 41//10 42//10 43//10
f 44//10 43//10 42//10
f 45//2 46//2 47//2
f 46//2 45//2 48//2
f 49//1 50//1 51//1
f 52//1 51//1 50//1
f 53//6 54//6 55//6
f 54//6 53//6 56//6
f 57//5 58//5 59//5
f 60//5 59//5 58//5
f 61//4 62//4 63//4
f 62//4 61//4 64//4
f 64//4 61//4 65//4
f 65//4 61//4 66//4
f 67//3 68//3 69//3
f 69//3 68//3 70//3
f 70//3 68//3 71//3
f 72//3 71//3 68//3
f 73//2 74//2 75//2
f 74//2 73//2 76//2
f 77//1 78//1 79//1
f 80//1 79//1 78//1
f 81//6 82//6 83//6
f 82//6 81//6 84//6
f 85//5 86//5 87//5
f 88//5 87//5 86//5
