# SSTK version 0.8.0
# 76
mtllib original-76.mtl
o CT/CT_2/ID454#ID454
v 0.617293 -0.587765 0.028449
v -0.646148 -0.587765 -0.035253
v -0.646148 -0.587765 0.028449
v 0.617293 -0.587765 -0.035253
v 0.617293 -0.587765 -0.035253
v 0.617293 -0.587765 0.028449
v -0.646148 -0.587765 -0.035253
v -0.646148 -0.587765 0.028449
v -0.646148 -0.587765 -0.035253
v 0.617293 -0.579802 -0.035253
v -0.646148 -0.579802 -0.035253
v 0.617293 -0.587765 -0.035253
v 0.617293 -0.587765 -0.035253
v -0.646148 -0.587765 -0.035253
v 0.617293 -0.579802 -0.035253
v -0.646148 -0.579802 -0.035253
v 0.617293 -0.579802 -0.035253
v -0.646148 -0.579802 -0.036569
v -0.646148 -0.579802 -0.035253
v 0.617293 -0.579802 -0.036569
v 0.617293 -0.579802 -0.036569
v 0.617293 -0.579802 -0.035253
v -0.646148 -0.579802 -0.036569
v -0.646148 -0.579802 -0.035253
v 0.617293 -0.584459 -0.041226
v -0.646148 -0.579802 -0.036569
v 0.617293 -0.579802 -0.036569
v -0.646148 -0.584459 -0.041226
v -0.646148 -0.584459 -0.041226
v 0.617293 -0.584459 -0.041226
v -0.646148 -0.579802 -0.036569
v 0.617293 -0.579802 -0.036569
v 0.617293 -0.597055 -0.041226
v -0.646148 -0.584459 -0.041226
v 0.617293 -0.584459 -0.041226
v -0.646148 -0.597055 -0.041226
v -0.646148 -0.597055 -0.041226
v 0.617293 -0.597055 -0.041226
v -0.646148 -0.584459 -0.041226
v 0.617293 -0.584459 -0.041226
v 0.617293 -0.597055 -0.041226
v -0.646148 -0.597055 -0.051843
v -0.646148 -0.597055 -0.041226
v 0.617293 -0.597055 -0.051843
v 0.617293 -0.597055 -0.051843
v 0.617293 -0.597055 -0.041226
v -0.646148 -0.597055 -0.051843
v -0.646148 -0.597055 -0.041226
v 0.617293 -0.612981 -0.051843
v -0.646148 -0.597055 -0.051843
v 0.617293 -0.597055 -0.051843
v -0.646148 -0.612981 -0.051843
v -0.646148 -0.612981 -0.051843
v 0.617293 -0.612981 -0.051843
v -0.646148 -0.597055 -0.051843
v 0.617293 -0.597055 -0.051843
v 0.617293 -0.612981 -0.051843
v -0.646148 -0.612981 0.028449
v -0.646148 -0.612981 -0.051843
v 0.617293 -0.612981 0.028449
v 0.617293 -0.612981 0.028449
v 0.617293 -0.612981 -0.051843
v -0.646148 -0.612981 0.028449
v -0.646148 -0.612981 -0.051843
vn 0 1 0
vn 0 -1 0
vn 0 0 1
vn 0 0 -1
vn 0 0.7071067811865477 -0.7071067811865475
vn 0 -0.7071067811865477 0.7071067811865475
usemtl material_0_0
f 1//1 2//1 3//1
f 2//1 1//1 4//1
f 5//2 6//2 7//2
f 8//2 7//2 6//2
f 9//3 10//3 11//3
f 10//3 9//3 12//3
f 13//4 14//4 15//4
f 16//4 15//4 14//4
f 17//1 18//1 19//1
f 18//1 17//1 20//1
f 21//2 22//2 23//2
f 24//2 23//2 22//2
f 25//5 26//5 27//5
f 26//5 25//5 28//5
f 29//6 30//6 31//6
f 32//6 31//6 30//6
f 33//4 34//4 35//4
f 34//4 33//4 36//4
f 37//3 38//3 39//3
f 40//3 39//3 38//3
f 41//1 42//1 43//1
f 42//1 41//1 44//1
f 45//2 46//2 47//2
f 48//2 47//2 46//2
f 49//4 50//4 51//4
f 50//4 49//4 52//4
f 53//3 54//3 55//3
f 56//3 55//3 54//3
f 57//2 58//2 59//2
f 58//2 57//2 60//2
f 61//1 62//1 63//1
f 64//1 63//1 62//1
