# SSTK version 0.8.0
# 125
mtllib original-125.mtl
o CSBB/CSBB_2/ID768#ID768
v 0.377743 0.625443 -0.000653
v -0.406598 0.625443 0.005935
v -0.406598 0.625443 -0.000653
v 0.377743 0.625443 0.005935
v 0.377743 0.625443 0.005935
v 0.377743 0.625443 -0.000653
v -0.406598 0.625443 0.005935
v -0.406598 0.625443 -0.000653
v -0.406598 0.623917 -0.000653
v -0.406598 0.641866 -0.033855
v -0.406598 0.623917 -0.033855
v -0.406598 0.625443 -0.000653
v -0.406598 0.632680 0.005935
v -0.406598 0.625443 0.005935
v -0.406598 0.625443 0.005935
v -0.406598 0.625443 -0.000653
v -0.406598 0.632680 0.005935
v -0.406598 0.641866 -0.033855
v -0.406598 0.623917 -0.000653
v -0.406598 0.623917 -0.033855
v -0.406598 0.625443 -0.000653
v 0.377743 0.623917 -0.000653
v 0.377743 0.625443 -0.000653
v -0.406598 0.623917 -0.000653
v -0.406598 0.623917 -0.000653
v -0.406598 0.625443 -0.000653
v 0.377743 0.623917 -0.000653
v 0.377743 0.625443 -0.000653
v 0.377743 0.632680 0.005935
v 0.377743 0.625443 -0.000653
v 0.377743 0.641866 -0.033855
v 0.377743 0.625443 0.005935
v 0.377743 0.623917 -0.000653
v 0.377743 0.623917 -0.033855
v 0.377743 0.625443 -0.000653
v 0.377743 0.641866 -0.033855
v 0.377743 0.623917 -0.000653
v 0.377743 0.623917 -0.033855
v 0.377743 0.625443 0.005935
v 0.377743 0.632680 0.005935
v 0.377743 0.623917 -0.033855
v -0.406598 0.641866 -0.033855
v 0.377743 0.641866 -0.033855
v -0.406598 0.623917 -0.033855
v -0.406598 0.623917 -0.033855
v 0.377743 0.623917 -0.033855
v -0.406598 0.641866 -0.033855
v 0.377743 0.641866 -0.033855
v -0.406598 0.623917 -0.033855
v 0.377743 0.623917 -0.000653
v -0.406598 0.623917 -0.000653
v 0.377743 0.623917 -0.033855
v 0.377743 0.623917 -0.033855
v -0.406598 0.623917 -0.033855
v 0.377743 0.623917 -0.000653
v -0.406598 0.623917 -0.000653
vn 0 -1 0
vn 0 1 0
vn -1 0 0
vn 1 0 0
vn 0 0 1
vn 0 0 -1
usemtl material_0_0
f 1//1 2//1 3//1
f 2//1 1//1 4//1
f 5//2 6//2 7//2
f 8//2 7//2 6//2
f 9//3 10//3 11//3
f 10//3 9//3 12//3
f 12//3 13//3 10//3
f 13//3 12//3 14//3
f 15//4 16//4 17//4
f 18//4 17//4 16//4
f 16//4 19//4 18//4
f 20//4 18//4 19//4
f 21//5 22//5 23//5
f 22//5 21//5 24//5
f 25//6 26//6 27//6
f 28//6 27//6 26//6
f 29//4 30//4 31//4
f 30//4 29//4 32//4
f 31//4 33//4 34//4
f 33//4 31//4 30//4
f 35//3 36//3 37//3
f 38//3 37//3 36//3
f 39//3 40//3 35//3
f 36//3 35//3 40//3
f 41//6 42//6 43//6
f 42//6 41//6 44//6
f 45//5 46//5 47//5
f 48//5 47//5 46//5
f 49//1 50//1 51//1
f 50//1 49//1 52//1
f 53//2 54//2 55//2
f 56//2 55//2 54//2
