# SSTK version 0.8.0
# 150
mtllib original-150.mtl
o #ID898
v -0.372093 0.496511 -0.008383
v -0.372093 -0.457705 -0.011270
v -0.372093 0.496511 -0.011270
v -0.372093 -0.457705 -0.008383
v -0.372093 -0.457705 -0.008383
v -0.372093 0.496511 -0.008383
v -0.372093 -0.457705 -0.011270
v -0.372093 0.496511 -0.011270
v -0.377198 0.496511 -0.003278
v -0.372093 -0.457705 -0.008383
v -0.372093 0.496511 -0.008383
v -0.377198 -0.457705 -0.003278
v -0.377198 -0.457705 -0.003278
v -0.377198 0.496511 -0.003278
v -0.372093 -0.457705 -0.008383
v -0.372093 0.496511 -0.008383
v -0.372093 -0.457705 -0.011270
v -0.386020 0.496511 -0.011270
v -0.372093 0.496511 -0.011270
v -0.386020 -0.457705 -0.011270
v -0.386020 -0.457705 -0.011270
v -0.372093 -0.457705 -0.011270
v -0.386020 0.496511 -0.011270
v -0.372093 0.496511 -0.011270
v -0.377198 0.496511 -0.003278
v -0.377198 -0.457705 -0.000653
v -0.377198 -0.457705 -0.003278
v -0.377198 0.496511 -0.000653
v -0.377198 0.496511 -0.000653
v -0.377198 0.496511 -0.003278
v -0.377198 -0.457705 -0.000653
v -0.377198 -0.457705 -0.003278
v -0.406598 0.496511 -0.000653
v -0.377198 -0.457705 -0.000653
v -0.377198 0.496511 -0.000653
v -0.406598 -0.457705 -0.000653
v -0.406598 -0.457705 -0.000653
v -0.406598 0.496511 -0.000653
v -0.377198 -0.457705 -0.000653
v -0.377198 0.496511 -0.000653
vt 0.001888124 -4.934325e-17
vt 2.470822e-48 0.4166667
vt 2.470822e-48 -4.934325e-17
vt 0.001888124 0.4166667
vt -0.009901826 -4.936738e-17
vt -0.0146239 0.4166667
vt -0.0146239 -4.936738e-17
vt -0.009901826 0.4166667
vt 0.02256944 0.4166667
vt 0.0134598 -4.934325e-17
vt 0.02256944 -4.934325e-17
vt 0.0134598 0.4166667
vt 0.005227136 -4.934325e-17
vt 0.006944444 0.4166667
vt 0.005227136 0.4166667
vt 0.006944444 -4.934325e-17
vt -7.602531e-50 0
vt -0.01923043 0.4166667
vt -0.01923043 -4.934325e-17
vt -1.97373e-16 0.4166667
vn 1 0 0
vn -1 0 0
vn 0.7071067811865476 0 0.7071067811865476
vn -0.7071067811865476 0 -0.7071067811865476
vn 0 0 -1
vn 0 0 1
usemtl material_0_0
f 1/1/1 2/2/1 3/3/1
f 2/2/1 1/1/1 4/4/1
f 5/4/2 6/1/2 7/2/2
f 8/3/2 7/2/2 6/1/2
f 9/5/3 10/6/3 11/7/3
f 10/6/3 9/5/3 12/8/3
f 13/8/4 14/5/4 15/6/4
f 16/7/4 15/6/4 14/5/4
f 17/9/5 18/10/5 19/11/5
f 18/10/5 17/9/5 20/12/5
f 21/12/6 22/9/6 23/10/6
f 24/11/6 23/10/6 22/9/6
f 25/13/1 26/14/1 27/15/1
f 26/14/1 25/13/1 28/16/1
f 29/16/2 30/13/2 31/14/2
f 32/15/2 31/14/2 30/13/2
f 33/17/6 34/18/6 35/19/6
f 34/18/6 33/17/6 36/20/6
f 37/20/5 38/17/5 39/18/5
f 40/19/5 39/18/5 38/17/5
