# SSTK version 0.8.0
# 107
mtllib original-107.mtl
o #ID676
v -0.406598 -0.585111 -0.033855
v -0.406598 -0.457705 -0.000653
v -0.406598 -0.457705 -0.033855
v -0.406598 -0.585111 -0.011270
v -0.406598 -0.585111 -0.000653
v -0.406598 -0.585111 -0.000653
v -0.406598 -0.585111 -0.011270
v -0.406598 -0.457705 -0.000653
v -0.406598 -0.585111 -0.033855
v -0.406598 -0.457705 -0.033855
v -0.279193 -0.585111 -0.033855
v -0.406598 -0.585111 -0.011270
v -0.406598 -0.585111 -0.033855
v -0.279193 -0.585111 -0.011270
v -0.279193 -0.585111 -0.011270
v -0.279193 -0.585111 -0.033855
v -0.406598 -0.585111 -0.011270
v -0.406598 -0.585111 -0.033855
v -0.279193 -0.585111 -0.033855
v -0.378333 -0.556846 -0.033855
v -0.279193 -0.556846 -0.033855
v -0.406598 -0.457705 -0.033855
v -0.378333 -0.457705 -0.033855
v -0.406598 -0.585111 -0.033855
v -0.279193 -0.585111 -0.033855
v -0.378333 -0.556846 -0.033855
v -0.406598 -0.585111 -0.033855
v -0.406598 -0.457705 -0.033855
v -0.378333 -0.457705 -0.033855
v -0.279193 -0.556846 -0.033855
v -0.372093 -0.550605 -0.027615
v -0.378333 -0.457705 -0.033855
v -0.372093 -0.457705 -0.027615
v -0.378333 -0.556846 -0.033855
v -0.378333 -0.556846 -0.033855
v -0.372093 -0.550605 -0.027615
v -0.378333 -0.457705 -0.033855
v -0.372093 -0.457705 -0.027615
v -0.279193 -0.556846 -0.033855
v -0.372093 -0.550605 -0.027615
v -0.279193 -0.550605 -0.027615
v -0.378333 -0.556846 -0.033855
v -0.378333 -0.556846 -0.033855
v -0.279193 -0.556846 -0.033855
v -0.372093 -0.550605 -0.027615
v -0.279193 -0.550605 -0.027615
v -0.372093 -0.457705 -0.027615
v -0.372093 -0.550605 -0.026532
v -0.372093 -0.550605 -0.027615
v -0.372093 -0.457705 -0.026532
v -0.372093 -0.457705 -0.026532
v -0.372093 -0.457705 -0.027615
v -0.372093 -0.550605 -0.026532
v -0.372093 -0.550605 -0.027615
v -0.279193 -0.550605 -0.026532
v -0.372093 -0.550605 -0.027615
v -0.372093 -0.550605 -0.026532
v -0.279193 -0.550605 -0.027615
v -0.279193 -0.550605 -0.027615
v -0.279193 -0.550605 -0.026532
v -0.372093 -0.550605 -0.027615
v -0.372093 -0.550605 -0.026532
v -0.386020 -0.564533 -0.026532
v -0.372093 -0.457705 -0.026532
v -0.386020 -0.457705 -0.026532
v -0.372093 -0.550605 -0.026532
v -0.279193 -0.564533 -0.026532
v -0.279193 -0.550605 -0.026532
v -0.386020 -0.564533 -0.026532
v -0.372093 -0.550605 -0.026532
v -0.279193 -0.564533 -0.026532
v -0.279193 -0.550605 -0.026532
v -0.372093 -0.457705 -0.026532
v -0.386020 -0.457705 -0.026532
v -0.386020 -0.457705 -0.011270
v -0.386020 -0.564533 -0.026532
v -0.386020 -0.457705 -0.026532
v -0.386020 -0.564533 -0.011270
v -0.386020 -0.564533 -0.011270
v -0.386020 -0.457705 -0.011270
v -0.386020 -0.564533 -0.026532
v -0.386020 -0.457705 -0.026532
v -0.279193 -0.564533 -0.011270
v -0.386020 -0.564533 -0.026532
v -0.386020 -0.564533 -0.011270
v -0.279193 -0.564533 -0.026532
v -0.279193 -0.564533 -0.026532
v -0.279193 -0.564533 -0.011270
v -0.386020 -0.564533 -0.026532
v -0.386020 -0.564533 -0.011270
vn -1 0 0
vn 1 0 0
vn 0 -1 0
vn 0 1 0
vn 0 0 -1
vn 0 0 1
vn 0.7071067811865476 0 -0.7071067811865476
vn -0.7071067811865476 0 0.7071067811865476
vn 0 0.7071067811865477 -0.7071067811865475
vn 0 -0.7071067811865477 0.7071067811865475
usemtl material_0_0
f 1//1 2//1 3//1
f 2//1 1//1 4//1
f 2//1 4//1 5//1
f 6//2 7//2 8//2
f 7//2 9//2 8//2
f 10//2 8//2 9//2
f 11//3 12//3 13//3
f 12//3 11//3 14//3
f 15//4 16//4 17//4
f 18//4 17//4 16//4
f 19//5 20//5 21//5
f 20//5 22//5 23//5
f 22//5 20//5 24//5
f 24//5 20//5 19//5
f 25//6 26//6 27//6
f 27//6 26//6 28//6
f 29//6 28//6 26//6
f 30//6 26//6 25//6
f 31//7 32//7 33//7
f 32//7 31//7 34//7
f 35//8 36//8 37//8
f 38//8 37//8 36//8
f 39//9 40//9 41//9
f 40//9 39//9 42//9
f 43//10 44//10 45//10
f 46//10 45//10 44//10
f 47//2 48//2 49//2
f 48//2 47//2 50//2
f 51//1 52//1 53//1
f 54//1 53//1 52//1
f 55//4 56//4 57//4
f 56//4 55//4 58//4
f 59//3 60//3 61//3
f 62//3 61//3 60//3
f 63//6 64//6 65//6
f 64//6 63//6 66//6
f 66//6 67//6 68//6
f 67//6 66//6 63//6
f 69//5 70//5 71//5
f 72//5 71//5 70//5
f 70//5 69//5 73//5
f 74//5 73//5 69//5
f 75//2 76//2 77//2
f 76//2 75//2 78//2
f 79//1 80//1 81//1
f 82//1 81//1 80//1
f 83//4 84//4 85//4
f 84//4 83//4 86//4
f 87//3 88//3 89//3
f 90//3 89//3 88//3
