# SSTK version 0.8.0
# 154
mtllib original-154.mtl
o GV_copy_001/GV_5/ID608#ID608
v -0.006465 -0.556909 -0.011270
v -0.022390 0.595715 -0.011270
v -0.006465 0.595715 -0.011270
v -0.022390 -0.556909 -0.011270
v -0.022390 -0.556909 -0.011270
v -0.006465 -0.556909 -0.011270
v -0.022390 0.595715 -0.011270
v -0.006465 0.595715 -0.011270
v -0.006465 0.595715 -0.003307
v -0.006465 -0.556909 -0.011270
v -0.006465 0.595715 -0.011270
v -0.006465 -0.556909 -0.003307
v -0.006465 -0.556909 -0.003307
v -0.006465 0.595715 -0.003307
v -0.006465 -0.556909 -0.011270
v -0.006465 0.595715 -0.011270
v -0.022390 -0.556909 -0.003307
v -0.022390 0.595715 -0.011270
v -0.022390 -0.556909 -0.011270
v -0.022390 0.595715 -0.003307
v -0.022390 0.595715 -0.003307
v -0.022390 -0.556909 -0.003307
v -0.022390 0.595715 -0.011270
v -0.022390 -0.556909 -0.011270
v -0.022390 -0.556909 -0.003307
v -0.006465 0.595715 -0.003307
v -0.022390 0.595715 -0.003307
v -0.006465 -0.556909 -0.003307
v -0.006465 -0.556909 -0.003307
v -0.022390 -0.556909 -0.003307
v -0.006465 0.595715 -0.003307
v -0.022390 0.595715 -0.003307
vt 0.005208333 0.4388021
vt -0.005208333 0
vt 0.005208333 0
vt -0.005208333 0.4388021
vt 0.006944444 0
vt 0 0.4388021
vt 0 0
vt 0.006944444 0.4388021
vt -0.006944444 0.4388021
vt -0.006944444 0
vn 0 0 -1
vn 0 0 1
vn 1 0 0
vn -1 0 0
usemtl material_0_0
f 1/1/1 2/2/1 3/3/1
f 2/2/1 1/1/1 4/4/1
f 5/4/2 6/1/2 7/2/2
f 8/3/2 7/2/2 6/1/2
f 9/5/3 10/6/3 11/7/3
f 10/6/3 9/5/3 12/8/3
f 13/8/4 14/5/4 15/6/4
f 16/7/4 15/6/4 14/5/4
f 17/9/4 18/7/4 19/6/4
f 18/7/4 17/9/4 20/10/4
f 21/10/3 22/9/3 23/7/3
f 24/6/3 23/7/3 22/9/3
f 25/1/2 26/2/2 27/3/2
f 26/2/2 25/1/2 28/4/2
f 29/4/1 30/1/1 31/2/1
f 32/3/1 31/2/1 30/1/1
