# SSTK version 0.8.0
# 80
mtllib original-80.mtl
o CSCC/CSCC_3/ID486#ID486
v 0.617293 0.655768 -0.051843
v -0.646148 0.646003 -0.051843
v -0.646148 0.655768 -0.051843
v 0.617293 0.646003 -0.051843
v 0.617293 0.646003 -0.051843
v 0.617293 0.655768 -0.051843
v -0.646148 0.646003 -0.051843
v -0.646148 0.655768 -0.051843
v 0.617293 0.655768 0.041876
v -0.646148 0.655768 -0.051843
v -0.646148 0.655768 0.041876
v 0.617293 0.655768 -0.051843
v 0.617293 0.655768 -0.051843
v 0.617293 0.655768 0.041876
v -0.646148 0.655768 -0.051843
v -0.646148 0.655768 0.041876
v 0.617293 0.646003 -0.051843
v -0.646148 0.632680 0.005864
v -0.646148 0.646003 -0.051843
v 0.617293 0.632680 0.005864
v 0.617293 0.632680 0.005864
v 0.617293 0.646003 -0.051843
v -0.646148 0.632680 0.005864
v -0.646148 0.646003 -0.051843
v 0.617293 0.632680 0.005864
v -0.646148 0.625443 0.005864
v -0.646148 0.632680 0.005864
v 0.617293 0.625443 0.005864
v 0.617293 0.625443 0.005864
v 0.617293 0.632680 0.005864
v -0.646148 0.625443 0.005864
v -0.646148 0.632680 0.005864
v 0.617293 0.625443 0.005864
v -0.646148 0.625443 0.015248
v -0.646148 0.625443 0.005864
v 0.617293 0.625443 0.015248
v 0.617293 0.625443 0.015248
v 0.617293 0.625443 0.005864
v -0.646148 0.625443 0.015248
v -0.646148 0.625443 0.005864
v 0.617293 0.625443 0.015248
v -0.646148 0.621277 0.015248
v -0.646148 0.625443 0.015248
v 0.617293 0.621277 0.015248
v 0.617293 0.621277 0.015248
v 0.617293 0.625443 0.015248
v -0.646148 0.621277 0.015248
v -0.646148 0.625443 0.015248
v -0.646148 0.621277 0.015248
v 0.617293 0.621277 0.024867
v -0.646148 0.621277 0.024867
v 0.617293 0.621277 0.015248
v 0.617293 0.621277 0.015248
v -0.646148 0.621277 0.015248
v 0.617293 0.621277 0.024867
v -0.646148 0.621277 0.024867
v -0.646148 0.621277 0.024867
v 0.617293 0.627195 0.024867
v -0.646148 0.627195 0.024867
v 0.617293 0.621277 0.024867
v 0.617293 0.621277 0.024867
v -0.646148 0.621277 0.024867
v 0.617293 0.627195 0.024867
v -0.646148 0.627195 0.024867
v 0.617293 0.627195 0.024867
v -0.646148 0.623917 0.039067
v -0.646148 0.627195 0.024867
v 0.617293 0.623917 0.039067
v 0.617293 0.623917 0.039067
v 0.617293 0.627195 0.024867
v -0.646148 0.623917 0.039067
v -0.646148 0.627195 0.024867
v 0.617293 0.623917 0.039067
v -0.646148 0.623268 0.041876
v -0.646148 0.623917 0.039067
v 0.617293 0.623268 0.041876
v 0.617293 0.623268 0.041876
v 0.617293 0.623917 0.039067
v -0.646148 0.623268 0.041876
v -0.646148 0.623917 0.039067
vn 0 0 -1
vn 0 0 1
vn 0 1 0
vn 0 -1 0
vn 0 -0.974370071351851 -0.2249510259007248
vn 0 0.974370071351851 0.2249510259007248
usemtl material_0_0
f 1//1 2//1 3//1
f 2//1 1//1 4//1
f 5//2 6//2 7//2
f 8//2 7//2 6//2
f 9//3 10//3 11//3
f 10//3 9//3 12//3
f 13//4 14//4 15//4
f 16//4 15//4 14//4
f 17//5 18//5 19//5
f 18//5 17//5 20//5
f 21//6 22//6 23//6
f 24//6 23//6 22//6
f 25//1 26//1 27//1
f 26//1 25//1 28//1
f 29//2 30//2 31//2
f 32//2 31//2 30//2
f 33//4 34//4 35//4
f 34//4 33//4 36//4
f 37//3 38//3 39//3
f 40//3 39//3 38//3
f 41//1 42//1 43//1
f 42//1 41//1 44//1
f 45//2 46//2 47//2
f 48//2 47//2 46//2
f 49//4 50//4 51//4
f 50//4 49//4 52//4
f 53//3 54//3 55//3
f 56//3 55//3 54//3
f 57//2 58//2 59//2
f 58//2 57//2 60//2
f 61//1 62//1 63//1
f 64//1 63//1 62//1
f 65//5 66//5 67//5
f 66//5 65//5 68//5
f 69//6 70//6 71//6
f 72//6 71//6 70//6
f 73//5 74//5 75//5
f 74//5 73//5 76//5
f 77//6 78//6 79//6
f 80//6 79//6 78//6
