# SSTK version 0.8.0
# 141
mtllib original-141.mtl
o #ID850
v 0.250338 0.589411 -0.008383
v 0.343238 0.589411 -0.011270
v 0.343238 0.589411 -0.008383
v 0.250338 0.589411 -0.011270
v 0.250338 0.589411 -0.011270
v 0.250338 0.589411 -0.008383
v 0.343238 0.589411 -0.011270
v 0.343238 0.589411 -0.008383
v 0.250338 0.594516 -0.003278
v 0.343238 0.589411 -0.008383
v 0.348343 0.594516 -0.003278
v 0.250338 0.589411 -0.008383
v 0.250338 0.589411 -0.008383
v 0.250338 0.594516 -0.003278
v 0.343238 0.589411 -0.008383
v 0.348343 0.594516 -0.003278
v 0.250338 0.603338 -0.011270
v 0.343238 0.589411 -0.011270
v 0.250338 0.589411 -0.011270
v 0.357165 0.496511 -0.011270
v 0.343238 0.496511 -0.011270
v 0.357165 0.603338 -0.011270
v 0.250338 0.603338 -0.011270
v 0.343238 0.589411 -0.011270
v 0.357165 0.603338 -0.011270
v 0.357165 0.496511 -0.011270
v 0.343238 0.496511 -0.011270
v 0.250338 0.589411 -0.011270
v 0.343238 0.496511 -0.008383
v 0.343238 0.589411 -0.011270
v 0.343238 0.496511 -0.011270
v 0.343238 0.589411 -0.008383
v 0.343238 0.589411 -0.008383
v 0.343238 0.496511 -0.008383
v 0.343238 0.589411 -0.011270
v 0.343238 0.496511 -0.011270
v 0.250338 0.594516 -0.000653
v 0.348343 0.594516 -0.003278
v 0.348343 0.594516 -0.000653
v 0.250338 0.594516 -0.003278
v 0.250338 0.594516 -0.003278
v 0.250338 0.594516 -0.000653
v 0.348343 0.594516 -0.003278
v 0.348343 0.594516 -0.000653
v 0.348343 0.496511 -0.003278
v 0.343238 0.589411 -0.008383
v 0.343238 0.496511 -0.008383
v 0.348343 0.594516 -0.003278
v 0.348343 0.594516 -0.003278
v 0.348343 0.496511 -0.003278
v 0.343238 0.589411 -0.008383
v 0.343238 0.496511 -0.008383
v 0.377743 0.623917 -0.000653
v 0.348343 0.496511 -0.000653
v 0.377743 0.496511 -0.000653
v 0.348343 0.594516 -0.000653
v 0.250338 0.594516 -0.000653
v 0.250338 0.623917 -0.000653
v 0.250338 0.623917 -0.000653
v 0.377743 0.623917 -0.000653
v 0.250338 0.594516 -0.000653
v 0.348343 0.594516 -0.000653
v 0.348343 0.496511 -0.000653
v 0.377743 0.496511 -0.000653
v 0.348343 0.496511 -0.000653
v 0.348343 0.594516 -0.003278
v 0.348343 0.496511 -0.003278
v 0.348343 0.594516 -0.000653
v 0.348343 0.594516 -0.000653
v 0.348343 0.496511 -0.000653
v 0.348343 0.594516 -0.003278
v 0.348343 0.496511 -0.003278
v 0.250338 0.623917 -0.011270
v 0.377743 0.623917 -0.000653
v 0.377743 0.623917 -0.011270
v 0.250338 0.623917 -0.000653
v 0.250338 0.623917 -0.000653
v 0.250338 0.623917 -0.011270
v 0.377743 0.623917 -0.000653
v 0.377743 0.623917 -0.011270
vt -0.08333333 0.001888124
vt -0.02256944 2.660886e-48
vt -0.02256944 0.001888124
vt -0.08333333 2.660886e-48
vt -0.08333333 0.04902374
vt -0.02256944 0.04430166
vt -0.01923043 0.04902374
vt -0.08333333 0.04430166
vt 0.08333333 0.06987354
vt 0.02256944 0.06076389
vt 0.08333333 0.06076389
vt 0.0134598 2.270333e-82
vt 0.02256944 3.806905e-82
vt 0.0134598 0.06987354
vt 0.001888124 0
vt -8.693434e-36 0.06076389
vt -8.693434e-36 0
vt 0.001888124 0.06076389
vt -0.08333333 0.006944444
vt -0.01923043 0.005227136
vt -0.01923043 0.006944444
vt -0.08333333 0.005227136
vt -0.009901826 1.905867e-19
vt -0.0146239 0.06076389
vt -0.0146239 1.905867e-19
vt -0.009901826 0.0641029
vt -2.674903e-36 0.08333333
vt -0.01923043 -3.041012e-49
vt -2.674903e-36 -3.041012e-49
vt -0.01923043 0.0641029
vt -0.08333333 0.0641029
vt -0.08333333 0.08333333
vt 0.006944444 0
vt 0.005227136 0.0641029
vt 0.005227136 0
vt 0.006944444 0.0641029
vt 0.08333333 3.649215e-48
vt 0 0.006944444
vt 0 3.649215e-48
vt 0.08333333 0.006944444
vn 0 -1 0
vn 0 1 0
vn 0 -0.7071067811865477 0.7071067811865475
vn 0 0.7071067811865477 -0.7071067811865475
vn 0 0 -1
vn 0 0 1
vn -1 0 0
vn 1 0 0
vn -0.7071067811865476 0 0.7071067811865476
vn 0.7071067811865476 0 -0.7071067811865476
usemtl material_0_0
f 1/1/1 2/2/1 3/3/1
f 2/2/1 1/1/1 4/4/1
f 5/4/2 6/1/2 7/2/2
f 8/3/2 7/2/2 6/1/2
f 9/5/3 10/6/3 11/7/3
f 10/6/3 9/5/3 12/8/3
f 13/8/4 14/5/4 15/6/4
f 16/7/4 15/6/4 14/5/4
f 17/9/5 18/10/5 19/11/5
f 18/10/5 20/12/5 21/13/5
f 20/12/5 18/10/5 22/14/5
f 22/14/5 18/10/5 17/9/5
f 23/9/6 24/10/6 25/14/6
f 25/14/6 24/10/6 26/12/6
f 27/13/6 26/12/6 24/10/6
f 28/11/6 24/10/6 23/9/6
f 29/15/7 30/16/7 31/17/7
f 30/16/7 29/15/7 32/18/7
f 33/18/8 34/15/8 35/16/8
f 36/17/8 35/16/8 34/15/8
f 37/19/1 38/20/1 39/21/1
f 38/20/1 37/19/1 40/22/1
f 41/22/2 42/19/2 43/20/2
f 44/21/2 43/20/2 42/19/2
f 45/23/9 46/24/9 47/25/9
f 46/24/9 45/23/9 48/26/9
f 49/26/10 50/23/10 51/24/10
f 52/25/10 51/24/10 50/23/10
f 53/27/6 54/28/6 55/29/6
f 54/28/6 53/27/6 56/30/6
f 56/30/6 53/27/6 57/31/6
f 57/31/6 53/27/6 58/32/6
f 59/32/5 60/27/5 61/31/5
f 61/31/5 60/27/5 62/30/5
f 62/30/5 60/27/5 63/28/5
f 64/29/5 63/28/5 60/27/5
f 65/33/7 66/34/7 67/35/7
f 66/34/7 65/33/7 68/36/7
f 69/36/8 70/33/8 71/34/8
f 72/35/8 71/34/8 70/33/8
f 73/37/2 74/38/2 75/39/2
f 74/38/2 73/37/2 76/40/2
f 77/40/1 78/37/1 79/38/1
f 80/39/1 79/38/1 78/37/1
