# SSTK version 0.8.0
# 192
mtllib original-192.mtl
o #ID1112
v 0.589423 0.623917 0.039067
v 0.484578 0.594516 0.039067
v 0.589423 0.594516 0.039067
v 0.484578 0.623917 0.039067
v 0.484578 0.623917 0.039067
v 0.589423 0.623917 0.039067
v 0.484578 0.594516 0.039067
v 0.589423 0.594516 0.039067
v 0.484578 0.594516 0.039067
v 0.589423 0.594516 0.036441
v 0.589423 0.594516 0.039067
v 0.484578 0.594516 0.036441
v 0.484578 0.594516 0.036441
v 0.484578 0.594516 0.039067
v 0.589423 0.594516 0.036441
v 0.589423 0.594516 0.039067
v 0.484578 0.623917 0.028449
v 0.589423 0.623917 0.039067
v 0.589423 0.623917 0.028449
v 0.484578 0.623917 0.039067
v 0.484578 0.623917 0.039067
v 0.484578 0.623917 0.028449
v 0.589423 0.623917 0.039067
v 0.589423 0.623917 0.028449
v 0.484578 0.594516 0.036441
v 0.589423 0.589411 0.031336
v 0.589423 0.594516 0.036441
v 0.484578 0.589411 0.031336
v 0.484578 0.589411 0.031336
v 0.484578 0.594516 0.036441
v 0.589423 0.589411 0.031336
v 0.589423 0.594516 0.036441
v 0.484578 0.589411 0.031336
v 0.589423 0.589411 0.028449
v 0.589423 0.589411 0.031336
v 0.484578 0.589411 0.028449
v 0.484578 0.589411 0.028449
v 0.484578 0.589411 0.031336
v 0.589423 0.589411 0.028449
v 0.589423 0.589411 0.031336
v 0.484578 0.603338 0.028449
v 0.589423 0.589411 0.028449
v 0.484578 0.589411 0.028449
v 0.589423 0.603338 0.028449
v 0.589423 0.603338 0.028449
v 0.484578 0.603338 0.028449
v 0.589423 0.589411 0.028449
v 0.484578 0.589411 0.028449
vt 0 0.08333333
vt -0.25 0.0641029
vt 0 0.0641029
vt -0.25 0.08333333
vt -0.25 0.006944444
vt 1.265218e-17 0.005227136
vt 1.265218e-17 0.006944444
vt -0.25 0.005227136
vt 0.25 0
vt 0 0.006944444
vt 0 0
vt 0.25 0.006944444
vt -0.25 0.04902374
vt 1.397492e-19 0.04430166
vt 3.868858e-19 0.04902374
vt -0.25 0.04430166
vt -0.25 0.001888124
vt 0 0.001888124
vt -0.25 0
vt 0.25 0.06987354
vt 0 0.06076389
vt 0.25 0.06076389
vt 0 0.06987354
vn 0 0 1
vn 0 0 -1
vn 0 -1 0
vn 0 1 0
vn 0 -0.7071067811865477 0.7071067811865475
vn 0 0.7071067811865477 -0.7071067811865475
usemtl material_0_0
f 1/1/1 2/2/1 3/3/1
f 2/2/1 1/1/1 4/4/1
f 5/4/2 6/1/2 7/2/2
f 8/3/2 7/2/2 6/1/2
f 9/5/3 10/6/3 11/7/3
f 10/6/3 9/5/3 12/8/3
f 13/8/4 14/5/4 15/6/4
f 16/7/4 15/6/4 14/5/4
f 17/9/4 18/10/4 19/11/4
f 18/10/4 17/9/4 20/12/4
f 21/12/3 22/9/3 23/10/3
f 24/11/3 23/10/3 22/9/3
f 25/13/5 26/14/5 27/15/5
f 26/14/5 25/13/5 28/16/5
f 29/16/6 30/13/6 31/14/6
f 32/15/6 31/14/6 30/13/6
f 33/17/3 34/11/3 35/18/3
f 34/11/3 33/17/3 36/19/3
f 37/19/4 38/17/4 39/11/4
f 40/18/4 39/11/4 38/17/4
f 41/20/2 42/21/2 43/22/2
f 42/21/2 41/20/2 44/23/2
f 45/23/1 46/20/1 47/21/1
f 48/22/1 47/21/1 46/20/1
