# SSTK version 0.8.0
# 84
mtllib original-84.mtl
o WTL/WTL_2/ID518#ID518
v -0.773553 -0.612981 0.068264
v -0.773553 -0.485575 0.028449
v -0.773553 -0.612981 0.028449
v -0.773553 -0.485575 0.068264
v -0.773553 -0.485575 0.068264
v -0.773553 -0.612981 0.068264
v -0.773553 -0.485575 0.028449
v -0.773553 -0.612981 0.028449
v -0.773553 -0.612981 0.068264
v -0.759618 -0.485575 0.068264
v -0.773553 -0.485575 0.068264
v -0.759618 -0.599046 0.068264
v -0.646148 -0.599046 0.068264
v -0.646148 -0.612981 0.068264
v -0.646148 -0.612981 0.068264
v -0.773553 -0.612981 0.068264
v -0.646148 -0.599046 0.068264
v -0.759618 -0.599046 0.068264
v -0.759618 -0.485575 0.068264
v -0.773553 -0.485575 0.068264
v -0.646148 -0.612981 0.028449
v -0.773553 -0.612981 0.068264
v -0.773553 -0.612981 0.028449
v -0.646148 -0.612981 0.068264
v -0.646148 -0.612981 0.068264
v -0.646148 -0.612981 0.028449
v -0.773553 -0.612981 0.068264
v -0.773553 -0.612981 0.028449
v -0.759618 -0.485575 0.068264
v -0.759618 -0.599046 0.057647
v -0.759618 -0.485575 0.057647
v -0.759618 -0.599046 0.068264
v -0.759618 -0.599046 0.068264
v -0.759618 -0.485575 0.068264
v -0.759618 -0.599046 0.057647
v -0.759618 -0.485575 0.057647
v -0.646148 -0.599046 0.068264
v -0.759618 -0.599046 0.057647
v -0.759618 -0.599046 0.068264
v -0.646148 -0.599046 0.057647
v -0.646148 -0.599046 0.057647
v -0.646148 -0.599046 0.068264
v -0.759618 -0.599046 0.057647
v -0.759618 -0.599046 0.068264
v -0.759618 -0.599046 0.057647
v -0.756914 -0.485575 0.057647
v -0.759618 -0.485575 0.057647
v -0.756914 -0.596342 0.057647
v -0.646148 -0.596342 0.057647
v -0.646148 -0.599046 0.057647
v -0.646148 -0.599046 0.057647
v -0.759618 -0.599046 0.057647
v -0.646148 -0.596342 0.057647
v -0.756914 -0.596342 0.057647
v -0.756914 -0.485575 0.057647
v -0.759618 -0.485575 0.057647
v -0.749816 -0.485575 0.033062
v -0.756914 -0.596342 0.057647
v -0.749816 -0.589243 0.033062
v -0.756914 -0.485575 0.057647
v -0.756914 -0.485575 0.057647
v -0.749816 -0.485575 0.033062
v -0.756914 -0.596342 0.057647
v -0.749816 -0.589243 0.033062
v -0.646148 -0.596342 0.057647
v -0.749816 -0.589243 0.033062
v -0.756914 -0.596342 0.057647
v -0.646148 -0.589243 0.033062
v -0.646148 -0.589243 0.033062
v -0.646148 -0.596342 0.057647
v -0.749816 -0.589243 0.033062
v -0.756914 -0.596342 0.057647
v -0.749816 -0.589243 0.033062
v -0.748338 -0.485575 0.033062
v -0.749816 -0.485575 0.033062
v -0.748338 -0.587765 0.033062
v -0.646148 -0.587765 0.033062
v -0.646148 -0.589243 0.033062
v -0.646148 -0.589243 0.033062
v -0.749816 -0.589243 0.033062
v -0.646148 -0.587765 0.033062
v -0.748338 -0.587765 0.033062
v -0.748338 -0.485575 0.033062
v -0.749816 -0.485575 0.033062
v -0.748338 -0.485575 0.033062
v -0.748338 -0.587765 0.028449
v -0.748338 -0.485575 0.028449
v -0.748338 -0.587765 0.033062
v -0.748338 -0.587765 0.033062
v -0.748338 -0.485575 0.033062
v -0.748338 -0.587765 0.028449
v -0.748338 -0.485575 0.028449
v -0.646148 -0.587765 0.033062
v -0.748338 -0.587765 0.028449
v -0.748338 -0.587765 0.033062
v -0.646148 -0.587765 0.028449
v -0.646148 -0.587765 0.028449
v -0.646148 -0.587765 0.033062
v -0.748338 -0.587765 0.028449
v -0.748338 -0.587765 0.033062
vt -0.02604167 0.08333333
vt 0 0
vt 0 0.08333333
vt -0.02604167 0
vt -0.009114583 0
vt -0.009114583 0.07421875
vt -0.08333333 0.07421875
vt -0.08333333 0.08333333
vt 0.08333333 0
vt 0 0.02604167
vt 0.08333333 0.02604167
vt 0.02604167 0
vt 0.01909722 0.07421875
vt 0.01909722 0
vt 0.02604167 0.07421875
vt -0.08333333 0.02604167
vt -0.009114583 0.01909722
vt -0.009114583 0.02604167
vt -0.08333333 0.01909722
vt -0.01088349 -7.272019e-19
vt -0.009114583 -7.272019e-19
vt -0.01088349 0.07244984
vt -0.08333333 0.07244984
vt -0.00140846 -2.087429e-19
vt 0.01532876 0.07244984
vt -0.00140846 0.06780704
vt 0.01532876 -2.087429e-19
vt -0.08333333 0.03844494
vt -0.0155263 0.02170772
vt -0.01088349 0.03844494
vt -0.08333333 0.02170772
vt -0.0155263 0.06780704
vt -0.01649306 -3.578007e-20
vt -0.0155263 -3.578007e-20
vt -0.01649306 0.06684028
vt -0.08333333 0.06684028
vt -0.08333333 0.06780704
vt 0.003016836 0
vt 0 0.06684028
vt 0.003016836 0.06684028
vt -0.08333333 0.003016836
vt -0.01649306 0
vt -0.01649306 0.003016836
vt -0.08333333 0
vn -1 0 0
vn 1 0 0
vn 0 0 1
vn 0 0 -1
vn 0 -1 0
vn 0 1 0
vn 0.9607561913377838 0 0.27739419749900285
vn -0.9607561913377838 0 -0.27739419749900285
vn 0 0.9607561913377837 0.27739419749900307
vn 0 -0.9607561913377837 -0.27739419749900307
usemtl material_0_0
f 1/1/1 2/2/1 3/3/1
f 2/2/1 1/1/1 4/4/1
f 5/4/2 6/1/2 7/2/2
f 8/3/2 7/2/2 6/1/2
f 9/3/3 10/5/3 11/2/3
f 10/5/3 9/3/3 12/6/3
f 12/6/3 9/3/3 13/7/3
f 13/7/3 9/3/3 14/8/3
f 15/8/4 16/3/4 17/7/4
f 17/7/4 16/3/4 18/6/4
f 18/6/4 16/3/4 19/5/4
f 20/2/4 19/5/4 16/3/4
f 21/9/5 22/10/5 23/2/5
f 22/10/5 21/9/5 24/11/5
f 25/11/6 26/9/6 27/10/6
f 28/2/6 27/10/6 26/9/6
f 29/12/2 30/13/2 31/14/2
f 30/13/2 29/12/2 32/15/2
f 33/15/1 34/12/1 35/13/1
f 36/14/1 35/13/1 34/12/1
f 37/16/6 38/17/6 39/18/6
f 38/17/6 37/16/6 40/19/6
f 41/19/5 42/16/5 43/17/5
f 44/18/5 43/17/5 42/16/5
f 45/6/3 46/20/3 47/21/3
f 46/20/3 45/6/3 48/22/3
f 48/22/3 45/6/3 49/23/3
f 49/23/3 45/6/3 50/7/3
f 51/7/4 52/6/4 53/23/4
f 53/23/4 52/6/4 54/22/4
f 54/22/4 52/6/4 55/20/4
f 56/21/4 55/20/4 52/6/4
f 57/24/7 58/25/7 59/26/7
f 58/25/7 57/24/7 60/27/7
f 61/27/8 62/24/8 63/25/8
f 64/26/8 63/25/8 62/24/8
f 65/28/9 66/29/9 67/30/9
f 66/29/9 65/28/9 68/31/9
f 69/31/10 70/28/10 71/29/10
f 72/30/10 71/29/10 70/28/10
f 73/32/3 74/33/3 75/34/3
f 74/33/3 73/32/3 76/35/3
f 76/35/3 73/32/3 77/36/3
f 77/36/3 73/32/3 78/37/3
f 79/37/4 80/32/4 81/36/4
f 81/36/4 80/32/4 82/35/4
f 82/35/4 80/32/4 83/33/4
f 84/34/4 83/33/4 80/32/4
f 85/38/2 86/39/2 87/2/2
f 86/39/2 85/38/2 88/40/2
f 89/40/1 90/38/1 91/39/1
f 92/2/1 91/39/1 90/38/1
f 93/41/6 94/42/6 95/43/6
f 94/42/6 93/41/6 96/44/6
f 97/44/5 98/41/5 99/42/5
f 100/43/5 99/42/5 98/41/5
