# SSTK version 0.8.0
# 3
mtllib original-3.mtl
o BMTL/BMTL_4/ID19#ID19
v -0.674098 -0.612985 -0.051843
v -0.780175 -0.619607 -0.051843
v -0.773553 -0.612985 -0.051843
v -0.674098 -0.619607 -0.051843
v -0.674098 -0.619607 -0.051843
v -0.674098 -0.612985 -0.051843
v -0.780175 -0.619607 -0.051843
v -0.773553 -0.612985 -0.051843
v -0.773549 -0.612981 -0.028547
v -0.674098 -0.612985 -0.051843
v -0.773553 -0.612985 -0.051843
v -0.674098 -0.612981 -0.028547
v -0.674098 -0.612981 -0.028547
v -0.773549 -0.612981 -0.028547
v -0.674098 -0.612985 -0.051843
v -0.773553 -0.612985 -0.051843
v -0.674098 -0.619607 -0.051843
v -0.788792 -0.628224 -0.054466
v -0.780175 -0.619607 -0.051843
v -0.674098 -0.628224 -0.054466
v -0.674098 -0.628224 -0.054466
v -0.674098 -0.619607 -0.051843
v -0.788792 -0.628224 -0.054466
v -0.780175 -0.619607 -0.051843
v -0.773553 -0.612985 -0.051843
v -0.780175 -0.513406 -0.051843
v -0.773553 -0.513406 -0.051843
v -0.780175 -0.619607 -0.051843
v -0.780175 -0.619607 -0.051843
v -0.773553 -0.612985 -0.051843
v -0.780175 -0.513406 -0.051843
v -0.773553 -0.513406 -0.051843
v -0.801503 -0.640935 -0.028547
v -0.773549 -0.513406 -0.028547
v -0.801503 -0.513406 -0.028547
v -0.773549 -0.612981 -0.028547
v -0.674098 -0.612981 -0.028547
v -0.674098 -0.640935 -0.028547
v -0.674098 -0.640935 -0.028547
v -0.801503 -0.640935 -0.028547
v -0.674098 -0.612981 -0.028547
v -0.773549 -0.612981 -0.028547
v -0.773549 -0.513406 -0.028547
v -0.801503 -0.513406 -0.028547
v -0.773553 -0.513406 -0.051843
v -0.773549 -0.612981 -0.028547
v -0.773553 -0.612985 -0.051843
v -0.773549 -0.513406 -0.028547
v -0.773549 -0.513406 -0.028547
v -0.773553 -0.513406 -0.051843
v -0.773549 -0.612981 -0.028547
v -0.773553 -0.612985 -0.051843
v -0.788792 -0.628224 -0.054466
v -0.801503 -0.513406 -0.054466
v -0.788792 -0.513406 -0.054466
v -0.801503 -0.640935 -0.054466
v -0.674098 -0.628224 -0.054466
v -0.674098 -0.640935 -0.054466
v -0.674098 -0.640935 -0.054466
v -0.674098 -0.628224 -0.054466
v -0.801503 -0.640935 -0.054466
v -0.788792 -0.628224 -0.054466
v -0.801503 -0.513406 -0.054466
v -0.788792 -0.513406 -0.054466
v -0.780175 -0.619607 -0.051843
v -0.788792 -0.513406 -0.054466
v -0.780175 -0.513406 -0.051843
v -0.788792 -0.628224 -0.054466
v -0.788792 -0.628224 -0.054466
v -0.780175 -0.619607 -0.051843
v -0.788792 -0.513406 -0.054466
v -0.780175 -0.513406 -0.051843
v -0.801503 -0.640935 -0.028547
v -0.801503 -0.513406 -0.054466
v -0.801503 -0.640935 -0.054466
v -0.801503 -0.513406 -0.028547
v -0.801503 -0.513406 -0.028547
v -0.801503 -0.640935 -0.028547
v -0.801503 -0.513406 -0.054466
v -0.801503 -0.640935 -0.054466
v -0.674098 -0.640935 -0.054466
v -0.801503 -0.640935 -0.028547
v -0.801503 -0.640935 -0.054466
v -0.674098 -0.640935 -0.028547
v -0.674098 -0.640935 -0.028547
v -0.674098 -0.640935 -0.054466
v -0.801503 -0.640935 -0.028547
v -0.801503 -0.640935 -0.054466
vn 0 -0.0000044914769997326515 -1
vn 0 0.0000044914769997326515 1
vn 0 0.9999999838246509 -0.00017986299709043114
vn 0 -0.9999999838246509 0.00017986299709043114
vn 0 0.29127759253284874 -0.9566385754757476
vn 0 -0.29127759253284874 0.9566385754757476
vn -0.000004491476999958557 0 -1
vn 0.000004491476999958557 0 1
vn 0 0 1
vn 0 0 -1
vn 0.9999999838246509 0 -0.00017986299709065704
vn -0.9999999838246509 0 0.00017986299709065704
vn 0.2912775925328485 0 -0.9566385754757477
vn -0.2912775925328485 0 0.9566385754757477
vn -1 0 0
vn 1 0 0
vn 0 -1 0
vn 0 1 0
usemtl material_0_0
f 1//1 2//1 3//1
f 2//1 1//1 4//1
f 5//2 6//2 7//2
f 8//2 7//2 6//2
f 9//3 10//3 11//3
f 10//3 9//3 12//3
f 13//4 14//4 15//4
f 16//4 15//4 14//4
f 17//5 18//5 19//5
f 18//5 17//5 20//5
f 21//6 22//6 23//6
f 24//6 23//6 22//6
f 25//7 26//7 27//7
f 26//7 25//7 28//7
f 29//8 30//8 31//8
f 32//8 31//8 30//8
f 33//9 34//9 35//9
f 34//9 33//9 36//9
f 36//9 33//9 37//9
f 37//9 33//9 38//9
f 39//10 40//10 41//10
f 41//10 40//10 42//10
f 42//10 40//10 43//10
f 44//10 43//10 40//10
f 45//11 46//11 47//11
f 46//11 45//11 48//11
f 49//12 50//12 51//12
f 52//12 51//12 50//12
f 53//10 54//10 55//10
f 54//10 53//10 56//10
f 56//10 53//10 57//10
f 56//10 57//10 58//10
f 59//9 60//9 61//9
f 60//9 62//9 61//9
f 61//9 62//9 63//9
f 64//9 63//9 62//9
f 65//13 66//13 67//13
f 66//13 65//13 68//13
f 69//14 70//14 71//14
f 72//14 71//14 70//14
f 73//15 74//15 75//15
f 74//15 73//15 76//15
f 77//16 78//16 79//16
f 80//16 79//16 78//16
f 81//17 82//17 83//17
f 82//17 81//17 84//17
f 85//18 86//18 87//18
f 88//18 87//18 86//18
