# SSTK version 0.8.0
# 195
mtllib original-195.mtl
o #ID1128
v 0.716829 0.623917 0.039067
v 0.716829 0.496511 0.028449
v 0.716829 0.623917 0.028449
v 0.716829 0.496511 0.039067
v 0.716829 0.496511 0.039067
v 0.716829 0.623917 0.039067
v 0.716829 0.496511 0.028449
v 0.716829 0.623917 0.028449
v 0.716829 0.623917 0.039067
v 0.687428 0.496511 0.039067
v 0.716829 0.496511 0.039067
v 0.687428 0.594516 0.039067
v 0.589423 0.594516 0.039067
v 0.589423 0.623917 0.039067
v 0.589423 0.623917 0.039067
v 0.716829 0.623917 0.039067
v 0.589423 0.594516 0.039067
v 0.687428 0.594516 0.039067
v 0.687428 0.496511 0.039067
v 0.716829 0.496511 0.039067
v 0.589423 0.623917 0.028449
v 0.716829 0.623917 0.039067
v 0.716829 0.623917 0.028449
v 0.589423 0.623917 0.039067
v 0.589423 0.623917 0.039067
v 0.589423 0.623917 0.028449
v 0.716829 0.623917 0.039067
v 0.716829 0.623917 0.028449
v 0.589423 0.594516 0.039067
v 0.687428 0.594516 0.036441
v 0.687428 0.594516 0.039067
v 0.589423 0.594516 0.036441
v 0.589423 0.594516 0.036441
v 0.589423 0.594516 0.039067
v 0.687428 0.594516 0.036441
v 0.687428 0.594516 0.039067
v 0.687428 0.496511 0.039067
v 0.687428 0.594516 0.036441
v 0.687428 0.496511 0.036441
v 0.687428 0.594516 0.039067
v 0.687428 0.594516 0.039067
v 0.687428 0.496511 0.039067
v 0.687428 0.594516 0.036441
v 0.687428 0.496511 0.036441
v 0.589423 0.594516 0.036441
v 0.682323 0.589411 0.031336
v 0.687428 0.594516 0.036441
v 0.589423 0.589411 0.031336
v 0.589423 0.589411 0.031336
v 0.589423 0.594516 0.036441
v 0.682323 0.589411 0.031336
v 0.687428 0.594516 0.036441
v 0.687428 0.496511 0.036441
v 0.682323 0.589411 0.031336
v 0.682323 0.496511 0.031336
v 0.687428 0.594516 0.036441
v 0.687428 0.594516 0.036441
v 0.687428 0.496511 0.036441
v 0.682323 0.589411 0.031336
v 0.682323 0.496511 0.031336
v 0.589423 0.589411 0.031336
v 0.682323 0.589411 0.028449
v 0.682323 0.589411 0.031336
v 0.589423 0.589411 0.028449
v 0.589423 0.589411 0.028449
v 0.589423 0.589411 0.031336
v 0.682323 0.589411 0.028449
v 0.682323 0.589411 0.031336
v 0.682323 0.496511 0.031336
v 0.682323 0.589411 0.028449
v 0.682323 0.496511 0.028449
v 0.682323 0.589411 0.031336
v 0.682323 0.589411 0.031336
v 0.682323 0.496511 0.031336
v 0.682323 0.589411 0.028449
v 0.682323 0.496511 0.028449
v 0.589423 0.603338 0.028449
v 0.682323 0.589411 0.028449
v 0.589423 0.589411 0.028449
v 0.696250 0.496511 0.028449
v 0.682323 0.496511 0.028449
v 0.696250 0.603338 0.028449
v 0.589423 0.603338 0.028449
v 0.682323 0.589411 0.028449
v 0.696250 0.603338 0.028449
v 0.696250 0.496511 0.028449
v 0.682323 0.496511 0.028449
v 0.589423 0.589411 0.028449
vt -0.006944444 0.08333333
vt 0 0
vt 0 0.08333333
vt -0.006944444 0
vt -0.01923043 0
vt -0.01923043 0.0641029
vt -0.08333333 0.0641029
vt -0.08333333 0.08333333
vt 0.08333333 0
vt 0 0.006944444
vt 0.08333333 0.006944444
vt -0.08333333 0.006944444
vt -0.01923043 0.005227136
vt -0.01923043 0.006944444
vt -0.08333333 0.005227136
vt 0.006944444 0
vt 0.005227136 0.0641029
vt 0.005227136 0
vt 0.006944444 0.0641029
vt -0.08333333 0.04902374
vt -0.02256944 0.04430166
vt -0.01923043 0.04902374
vt -0.08333333 0.04430166
vt -0.009901826 1.905867e-19
vt -0.0146239 0.06076389
vt -0.0146239 1.905867e-19
vt -0.009901826 0.0641029
vt -0.08333333 0.001888124
vt -0.02256944 0
vt -0.02256944 0.001888124
vt -0.08333333 0
vt 0.001888124 0
vt 0 0.06076389
vt 0.001888124 0.06076389
vt 0.08333333 0.06987354
vt 0.02256944 0.06076389
vt 0.08333333 0.06076389
vt 0.0134598 0
vt 0.02256944 0
vt 0.0134598 0.06987354
vn 1 0 0
vn -1 0 0
vn 0 0 1
vn 0 0 -1
vn 0 1 0
vn 0 -1 0
vn 0 -0.7071067811865477 0.7071067811865475
vn 0 0.7071067811865477 -0.7071067811865475
vn -0.7071067811865476 0 0.7071067811865476
vn 0.7071067811865476 0 -0.7071067811865476
usemtl material_0_0
f 1/1/1 2/2/1 3/3/1
f 2/2/1 1/1/1 4/4/1
f 5/4/2 6/1/2 7/2/2
f 8/3/2 7/2/2 6/1/2
f 9/3/3 10/5/3 11/2/3
f 10/5/3 9/3/3 12/6/3
f 12/6/3 9/3/3 13/7/3
f 13/7/3 9/3/3 14/8/3
f 15/8/4 16/3/4 17/7/4
f 17/7/4 16/3/4 18/6/4
f 18/6/4 16/3/4 19/5/4
f 20/2/4 19/5/4 16/3/4
f 21/9/5 22/10/5 23/2/5
f 22/10/5 21/9/5 24/11/5
f 25/11/6 26/9/6 27/10/6
f 28/2/6 27/10/6 26/9/6
f 29/12/6 30/13/6 31/14/6
f 30/13/6 29/12/6 32/15/6
f 33/15/5 34/12/5 35/13/5
f 36/14/5 35/13/5 34/12/5
f 37/16/2 38/17/2 39/18/2
f 38/17/2 37/16/2 40/19/2
f 41/19/1 42/16/1 43/17/1
f 44/18/1 43/17/1 42/16/1
f 45/20/7 46/21/7 47/22/7
f 46/21/7 45/20/7 48/23/7
f 49/23/8 50/20/8 51/21/8
f 52/22/8 51/21/8 50/20/8
f 53/24/9 54/25/9 55/26/9
f 54/25/9 53/24/9 56/27/9
f 57/27/10 58/24/10 59/25/10
f 60/26/10 59/25/10 58/24/10
f 61/28/6 62/29/6 63/30/6
f 62/29/6 61/28/6 64/31/6
f 65/31/5 66/28/5 67/29/5
f 68/30/5 67/29/5 66/28/5
f 69/32/2 70/33/2 71/2/2
f 70/33/2 69/32/2 72/34/2
f 73/34/1 74/32/1 75/33/1
f 76/2/1 75/33/1 74/32/1
f 77/35/4 78/36/4 79/37/4
f 78/36/4 80/38/4 81/39/4
f 80/38/4 78/36/4 82/40/4
f 82/40/4 78/36/4 77/35/4
f 83/35/3 84/36/3 85/40/3
f 85/40/3 84/36/3 86/38/3
f 87/39/3 86/38/3 84/36/3
f 88/37/3 84/36/3 83/35/3
