# SSTK version 0.8.0
# 16
mtllib original-16.mtl
o GH_copy_001/GH_10/ID126#ID126
v -0.414229 -0.165291 0.036412
v -0.414229 -0.181217 0.028449
v -0.414229 -0.165291 0.028449
v -0.414229 -0.181217 0.036412
v -0.414229 -0.181217 0.036412
v -0.414229 -0.165291 0.036412
v -0.414229 -0.181217 0.028449
v -0.414229 -0.165291 0.028449
v -0.414229 -0.181217 0.028449
v -0.717482 -0.181217 0.036412
v -0.717482 -0.181217 0.028449
v -0.414229 -0.181217 0.036412
v -0.414229 -0.181217 0.036412
v -0.414229 -0.181217 0.028449
v -0.717482 -0.181217 0.036412
v -0.717482 -0.181217 0.028449
v -0.414229 -0.181217 0.028449
v -0.717482 -0.165291 0.028449
v -0.414229 -0.165291 0.028449
v -0.717482 -0.181217 0.028449
v -0.717482 -0.181217 0.028449
v -0.414229 -0.181217 0.028449
v -0.717482 -0.165291 0.028449
v -0.414229 -0.165291 0.028449
v -0.414229 -0.165291 0.036412
v -0.717482 -0.165291 0.028449
v -0.717482 -0.165291 0.036412
v -0.414229 -0.165291 0.028449
v -0.414229 -0.165291 0.028449
v -0.414229 -0.165291 0.036412
v -0.717482 -0.165291 0.028449
v -0.717482 -0.165291 0.036412
v -0.717482 -0.181217 0.036412
v -0.414229 -0.165291 0.036412
v -0.717482 -0.165291 0.036412
v -0.414229 -0.181217 0.036412
v -0.414229 -0.181217 0.036412
v -0.717482 -0.181217 0.036412
v -0.414229 -0.165291 0.036412
v -0.717482 -0.165291 0.036412
v -0.717482 -0.181217 0.036412
v -0.717482 -0.165291 0.028449
v -0.717482 -0.181217 0.028449
v -0.717482 -0.165291 0.036412
v -0.717482 -0.165291 0.036412
v -0.717482 -0.181217 0.036412
v -0.717482 -0.165291 0.028449
v -0.717482 -0.181217 0.028449
vt 0.006944444 -0.005208333
vt 0 0.005208333
vt 0 -0.005208333
vt 0.006944444 0.005208333
vt 0.2721354 0
vt 0 0.006944444
vt 0 0
vt 0.2721354 0.006944444
vt 0.2721354 0.005208333
vt 0.2721354 -0.005208333
vt -0.2721354 0.006944444
vt -0.2721354 0
vt -0.2721354 -0.005208333
vt -0.2721354 0.005208333
vt -0.006944444 0.005208333
vt -0.006944444 -0.005208333
vn 1 0 0
vn -1 0 0
vn 0 -1 0
vn 0 1 0
vn 0 0 -1
vn 0 0 1
usemtl material_0_0
f 1/1/1 2/2/1 3/3/1
f 2/2/1 1/1/1 4/4/1
f 5/4/2 6/1/2 7/2/2
f 8/3/2 7/2/2 6/1/2
f 9/5/3 10/6/3 11/7/3
f 10/6/3 9/5/3 12/8/3
f 13/8/4 14/5/4 15/6/4
f 16/7/4 15/6/4 14/5/4
f 17/9/5 18/3/5 19/10/5
f 18/3/5 17/9/5 20/2/5
f 21/2/6 22/9/6 23/3/6
f 24/10/6 23/3/6 22/9/6
f 25/11/4 26/7/4 27/6/4
f 26/7/4 25/11/4 28/12/4
f 29/12/3 30/11/3 31/7/3
f 32/6/3 31/7/3 30/11/3
f 33/2/6 34/13/6 35/3/6
f 34/13/6 33/2/6 36/14/6
f 37/14/5 38/2/5 39/13/5
f 40/3/5 39/13/5 38/2/5
f 41/15/2 42/3/2 43/2/2
f 42/3/2 41/15/2 44/16/2
f 45/16/1 46/15/1 47/3/1
f 48/2/1 47/3/1 46/15/1
