# SSTK version 0.8.0
# 5
mtllib original-5.mtl
o BMBL/BMBL_4/ID35#ID35
v -0.674098 0.655768 -0.028547
v -0.674098 0.669039 -0.028547
v -0.773549 0.655768 -0.028547
v -0.801503 0.669039 -0.028547
v -0.801503 0.541757 -0.028547
v -0.773549 0.541757 -0.028547
v -0.773549 0.541757 -0.028547
v -0.801503 0.541757 -0.028547
v -0.773549 0.655768 -0.028547
v -0.801503 0.669039 -0.028547
v -0.674098 0.669039 -0.028547
v -0.674098 0.655768 -0.028547
v -0.674098 0.655768 -0.051932
v -0.780175 0.655768 -0.051843
v -0.780468 0.655768 -0.051932
v -0.773553 0.655768 -0.051843
v -0.773549 0.655768 -0.028547
v -0.674098 0.655768 -0.028547
v -0.674098 0.655768 -0.028547
v -0.674098 0.655768 -0.051932
v -0.773549 0.655768 -0.028547
v -0.773553 0.655768 -0.051843
v -0.780175 0.655768 -0.051843
v -0.780468 0.655768 -0.051932
v -0.674098 0.669039 -0.028547
v -0.801503 0.669039 -0.057121
v -0.801503 0.669039 -0.028547
v -0.674098 0.669039 -0.057121
v -0.674098 0.669039 -0.057121
v -0.674098 0.669039 -0.028547
v -0.801503 0.669039 -0.057121
v -0.801503 0.669039 -0.028547
v -0.801503 0.541757 -0.028547
v -0.801503 0.660457 -0.054466
v -0.801503 0.541757 -0.054466
v -0.801503 0.669039 -0.057121
v -0.801503 0.661025 -0.057121
v -0.801503 0.669039 -0.028547
v -0.801503 0.541757 -0.028547
v -0.801503 0.660457 -0.054466
v -0.801503 0.669039 -0.028547
v -0.801503 0.669039 -0.057121
v -0.801503 0.661025 -0.057121
v -0.801503 0.541757 -0.054466
v -0.773549 0.655768 -0.028547
v -0.773553 0.541757 -0.051843
v -0.773553 0.655768 -0.051843
v -0.773549 0.541757 -0.028547
v -0.773549 0.541757 -0.028547
v -0.773549 0.655768 -0.028547
v -0.773553 0.541757 -0.051843
v -0.773553 0.655768 -0.051843
v -0.674098 0.655768 -0.051932
v -0.780468 0.659914 -0.051932
v -0.674098 0.659914 -0.051932
v -0.780468 0.655768 -0.051932
v -0.780468 0.655768 -0.051932
v -0.674098 0.655768 -0.051932
v -0.780468 0.659914 -0.051932
v -0.674098 0.659914 -0.051932
v -0.773553 0.655768 -0.051843
v -0.780175 0.541757 -0.051843
v -0.780175 0.655768 -0.051843
v -0.773553 0.541757 -0.051843
v -0.773553 0.541757 -0.051843
v -0.773553 0.655768 -0.051843
v -0.780175 0.541757 -0.051843
v -0.780175 0.655768 -0.051843
v -0.780175 0.541757 -0.051843
v -0.780468 0.655768 -0.051932
v -0.780175 0.655768 -0.051843
v -0.780468 0.659914 -0.051932
v -0.788792 0.541757 -0.054466
v -0.788792 0.660457 -0.054466
v -0.780175 0.541757 -0.051843
v -0.780468 0.655768 -0.051932
v -0.788792 0.541757 -0.054466
v -0.780468 0.659914 -0.051932
v -0.788792 0.660457 -0.054466
v -0.780175 0.655768 -0.051843
v -0.674098 0.661025 -0.057121
v -0.801503 0.669039 -0.057121
v -0.674098 0.669039 -0.057121
v -0.801503 0.661025 -0.057121
v -0.801503 0.661025 -0.057121
v -0.674098 0.661025 -0.057121
v -0.801503 0.669039 -0.057121
v -0.674098 0.669039 -0.057121
v -0.788792 0.660457 -0.054466
v -0.801503 0.541757 -0.054466
v -0.801503 0.660457 -0.054466
v -0.788792 0.541757 -0.054466
v -0.788792 0.541757 -0.054466
v -0.788792 0.660457 -0.054466
v -0.801503 0.541757 -0.054466
v -0.801503 0.660457 -0.054466
v -0.674098 0.661025 -0.057121
v -0.801503 0.660457 -0.054466
v -0.801503 0.661025 -0.057121
v -0.788792 0.660457 -0.054466
v -0.780468 0.659914 -0.051932
v -0.674098 0.659914 -0.051932
v -0.674098 0.659914 -0.051932
v -0.674098 0.661025 -0.057121
v -0.780468 0.659914 -0.051932
v -0.788792 0.660457 -0.054466
v -0.801503 0.660457 -0.054466
v -0.801503 0.661025 -0.057121
vn 0 0 1
vn 0 0 -1
vn 0 -1 0
vn 0 1 0
vn -1 0 0
vn 1 0 0
vn 0.9999999838246509 0 -0.00017986299709065704
vn -0.9999999838246509 0 0.00017986299709065704
vn -0.000004491476999958557 0 -1
vn 0.000004491476999958557 0 1
vn 0.2912775925328485 0 -0.9566385754757477
vn -0.2912775925328485 0 0.9566385754757477
vn 0 -0.9778574909861782 -0.20927189807094654
vn 0 0.9778574909861782 0.20927189807094654
usemtl material_0_0
f 1//1 2//1 3//1
f 4//1 3//1 2//1
f 3//1 4//1 5//1
f 3//1 5//1 6//1
f 7//2 8//2 9//2
f 8//2 10//2 9//2
f 11//2 9//2 10//2
f 9//2 11//2 12//2
f 13//3 14//3 15//3
f 14//3 13//3 16//3
f 16//3 13//3 17//3
f 17//3 13//3 18//3
f 19//4 20//4 21//4
f 21//4 20//4 22//4
f 22//4 20//4 23//4
f 24//4 23//4 20//4
f 25//4 26//4 27//4
f 26//4 25//4 28//4
f 29//3 30//3 31//3
f 32//3 31//3 30//3
f 33//5 34//5 35//5
f 34//5 36//5 37//5
f 36//5 34//5 38//5
f 38//5 34//5 33//5
f 39//6 40//6 41//6
f 41//6 40//6 42//6
f 43//6 42//6 40//6
f 44//6 40//6 39//6
f 45//7 46//7 47//7
f 46//7 45//7 48//7
f 49//8 50//8 51//8
f 52//8 51//8 50//8
f 53//2 54//2 55//2
f 54//2 53//2 56//2
f 57//1 58//1 59//1
f 60//1 59//1 58//1
f 61//9 62//9 63//9
f 62//9 61//9 64//9
f 65//10 66//10 67//10
f 68//10 67//10 66//10
f 69//11 70//11 71//11
f 72//11 73//11 74//11
f 73//11 72//11 70//11
f 73//11 70//11 69//11
f 75//12 76//12 77//12
f 76//12 78//12 77//12
f 79//12 77//12 78//12
f 80//12 76//12 75//12
f 81//2 82//2 83//2
f 82//2 81//2 84//2
f 85//1 86//1 87//1
f 88//1 87//1 86//1
f 89//2 90//2 91//2
f 90//2 89//2 92//2
f 93//1 94//1 95//1
f 96//1 95//1 94//1
f 97//13 98//13 99//13
f 98//13 97//13 100//13
f 100//13 97//13 101//13
f 101//13 97//13 102//13
f 103//14 104//14 105//14
f 105//14 104//14 106//14
f 106//14 104//14 107//14
f 108//14 107//14 104//14
