mtllib new-3.mtl
v -0.004848 0.857857 0.280528
v -0.044548 -0.769861 0.280528
v -0.004848 -0.769861 0.280528
v -0.058630 0.069204 0.280528
v -0.058630 0.317169 0.280528
v -0.384290 0.317169 0.280528
v -0.411777 -0.789711 0.280528
v -0.044548 -0.789711 0.280528
v -0.384290 0.069204 0.280528
v -0.411777 0.877707 0.280528
v -0.044548 0.857857 0.280528
v -0.044548 0.877707 0.280528
v -0.004848 -0.789711 0.240938
v -0.411777 -0.789711 0.280528
v -0.411777 -0.789711 0.240938
v -0.044548 -0.789711 0.280528
v -0.044548 -0.789711 0.318218
v -0.004848 -0.789711 0.318218
v -0.004848 0.877707 0.318218
v -0.044548 0.877707 0.280528
v -0.411777 0.877707 0.240938
v -0.411777 0.877707 0.280528
v -0.004848 0.877707 0.240938
v -0.411777 0.877707 0.240938
v -0.411777 -0.789711 0.280528
v -0.411777 0.877707 0.280528
v -0.411777 -0.789711 0.240938
v -0.044548 0.877707 0.280528
v -0.044548 0.857857 0.318218
v -0.044548 0.857857 0.280528
v -0.044548 -0.769861 0.280528
v -0.044548 -0.789711 0.318218
v -0.044548 -0.789711 0.280528
v -0.004848 -0.769861 0.320228
v -0.044548 -0.769861 0.318218
v -0.044548 -0.769861 0.320228
v -0.044548 -0.769861 0.280528
v -0.004848 -0.769861 0.280528
v -0.004848 -0.769861 0.320228
v -0.004848 -0.769861 0.280528
v -0.044548 -0.769861 0.280528
v -0.044548 -0.769861 0.318218
v -0.044548 -0.769861 0.320228
v -0.004848 0.857857 0.280528
v -0.044548 0.857857 0.318218
v -0.044548 0.857857 0.280528
v -0.044548 0.857857 0.320228
v -0.004848 0.857857 0.320228
v -0.004848 0.857857 0.280528
v -0.004848 0.857857 0.320228
v -0.044548 0.857857 0.320228
v -0.044548 0.857857 0.318218
v -0.044548 0.857857 0.280528
v -0.004848 -0.789711 0.240938
v -0.004848 -0.769861 0.318218
v -0.004848 -0.769861 0.280528
v -0.004848 0.857857 0.280528
v -0.004848 0.877707 0.318218
v -0.004848 0.877707 0.240938
vn 0.000000 0.000000 1.000000
vn 0.000000 0.000000 -1.000000
vn 0.000000 -1.000000 0.000000
vn 0.000000 1.000000 0.000000
vn -1.000000 0.000000 0.000000
vn 1.000000 0.000000 0.000000
vn -1.000000 0.000000 0.000000
vn 1.000000 0.000000 0.000000
vn -1.000000 0.000000 0.000000
vn 1.000000 0.000000 0.000000
vn 0.000000 1.000000 0.000000
vn 0.000000 -1.000000 0.000000
vn 0.000000 -1.000000 0.000000
vn 0.000000 1.000000 0.000000
vn 1.000000 0.000000 0.000000
vn -1.000000 0.000000 0.000000
vt 0.077015 1.680000
vt 0.125758 1.660000
vt 0.077015 1.660000
vt 0.077015 0.020000
vt 0.125758 0.000000
vt 0.077015 0.000000
vt -0.025815 0.000000
vt -0.125758 0.020000
vt -0.077015 0.020000
vt -0.077015 1.660000
vt -0.125758 1.680000
vt -0.025815 1.680000
usemtl material-0
f 1//1 2//1 3//1
f 3//2 2//2 1//2
f 2//1 1//1 4//1
f 4//2 1//2 2//2
f 4//1 1//1 5//1
f 5//2 1//2 4//2
f 5//1 1//1 6//1
f 6//2 1//2 5//2
f 2//1 7//1 8//1
f 8//2 7//2 2//2
f 7//1 2//1 9//1
f 9//2 2//2 7//2
f 7//1 9//1 10//1
f 10//2 9//2 7//2
f 9//1 2//1 4//1
f 4//2 2//2 9//2
f 10//1 9//1 6//1
f 6//2 9//2 10//2
f 10//1 6//1 11//1
f 11//2 6//2 10//2
f 11//1 6//1 1//1
f 1//2 6//2 11//2
f 10//1 11//1 12//1
f 12//2 11//2 10//2
f 13//3 14//3 15//3
f 15//4 14//4 13//4
f 14//3 13//3 16//3
f 16//4 13//4 14//4
f 16//3 13//3 17//3
f 17//4 13//4 16//4
f 17//3 13//3 18//3
f 18//4 13//4 17//4
f 20//4 21//4 22//4
f 22//3 21//3 20//3
f 21//4 20//4 23//4
f 23//3 20//3 21//3
f 23//4 20//4 19//4
f 19//3 20//3 23//3
f 24//5 25//5 26//5
f 26//6 25//6 24//6
f 25//5 24//5 27//5
f 27//6 24//6 25//6
usemtl material-1
f 29/2/7 28/1/7 30/3/7
f 30/3/8 28/1/8 29/2/8
usemtl material-2
f 32/5/9 31/4/9 33/6/9
f 33/6/10 31/4/10 32/5/10
usemtl material-3
f 34//11 35//11 36//11
f 37//11 34//11 38//11
usemtl material-4
f 40//12 39//12 41//12
f 43//12 42//12 39//12
usemtl material-5
f 44//13 45//13 46//13
f 47//13 44//13 48//13
usemtl material-6
f 50//14 49//14 51//14
f 53//14 52//14 49//14
usemtl material-7
f 55/8/15 54/7/15 56/9/15
f 56/9/16 54/7/16 55/8/16
f 56/9/15 54/7/15 57/10/15
f 57/10/16 54/7/16 56/9/16
f 58/11/15 57/10/15 59/12/15
f 59/12/16 57/10/16 58/11/16
f 59/12/15 57/10/15 54/7/15
f 54/7/16 57/10/16 59/12/16