mtllib new-5.mtl
v 0.421932 0.877707 0.280528
v 0.054703 -0.789711 0.280528
v 0.421932 -0.789711 0.280528
v 0.054703 -0.769861 0.280528
v 0.015002 -0.769861 0.280528
v 0.054703 0.857857 0.280528
v 0.054703 0.877707 0.280528
v 0.015002 0.857857 0.280528
v 0.054703 0.877707 0.318218
v 0.015002 0.877707 0.240827
v 0.054703 0.877707 0.280528
v 0.421932 0.877707 0.240827
v 0.421932 0.877707 0.280528
v 0.015002 0.877707 0.240827
v 0.015002 0.857857 0.318218
v 0.015002 0.877707 0.318218
v 0.015002 0.857857 0.280528
v 0.015002 -0.769861 0.280528
v 0.015002 -0.789711 0.318218
v 0.015002 -0.789711 0.240827
v 0.015002 -0.789711 0.240827
v 0.054703 -0.789711 0.280528
v 0.015002 -0.789711 0.318218
v 0.421932 -0.789711 0.240827
v 0.421932 -0.789711 0.280528
v 0.054703 -0.789711 0.318218
v 0.421932 -0.789711 0.240827
v 0.421932 0.877707 0.280528
v 0.421932 -0.789711 0.280528
v 0.421932 0.877707 0.240827
v 0.054703 0.857857 0.280528
v 0.054703 0.877707 0.318218
v 0.054703 0.877707 0.280528
v 0.054703 -0.789711 0.280528
v 0.054703 -0.769861 0.318218
v 0.054703 -0.789711 0.318218
v 0.054703 -0.769861 0.280528
v 0.054703 -0.769861 0.320228
v 0.015002 -0.769861 0.318218
v 0.015002 -0.769861 0.320228
v 0.015002 -0.769861 0.280528
v 0.054703 -0.769861 0.280528
v 0.054703 -0.769861 0.318218
v 0.054703 -0.769861 0.318218
v 0.054703 -0.769861 0.320228
v 0.054703 -0.769861 0.280528
v 0.015002 -0.769861 0.280528
v 0.015002 -0.769861 0.318218
v 0.015002 -0.769861 0.320228
v 0.054703 0.857857 0.280528
v 0.015002 0.857857 0.318218
v 0.015002 0.857857 0.280528
v 0.015002 0.857857 0.320228
v 0.054703 0.857857 0.320228
v 0.054703 0.857857 0.280528
v 0.054703 0.857857 0.320228
v 0.015002 0.857857 0.320228
v 0.015002 0.857857 0.318218
v 0.015002 0.857857 0.280528
vn 0.000000 0.000000 1.000000
vn 0.000000 0.000000 -1.000000
vn 0.000000 1.000000 0.000000
vn 0.000000 -1.000000 0.000000
vn -1.000000 0.000000 0.000000
vn 1.000000 0.000000 0.000000
vn 1.000000 0.000000 0.000000
vn -1.000000 0.000000 0.000000
vn 1.000000 0.000000 0.000000
vn -1.000000 0.000000 0.000000
vn 0.000000 1.000000 0.000000
vn 0.000000 -1.000000 0.000000
vt -0.077015 1.660000
vt -0.125758 1.680000
vt -0.077015 1.680000
vt -0.077015 0.000000
vt -0.125758 0.020000
vt -0.125758 0.000000
vt -0.077015 0.020000
usemtl material-1
f 1//1 2//1 3//1
f 3//2 2//2 1//2
f 2//1 1//1 4//1
f 4//2 1//2 2//2
f 4//1 1//1 5//1
f 5//2 1//2 4//2
f 5//1 1//1 6//1
f 6//2 1//2 5//2
f 6//1 1//1 7//1
f 7//2 1//2 6//2
f 8//1 5//1 6//1
f 6//2 5//2 8//2
f 10//3 9//3 11//3
f 11//4 9//4 10//4
f 10//3 11//3 12//3
f 12//4 11//4 10//4
f 12//3 11//3 13//3
f 13//4 11//4 12//4
f 14//5 15//5 16//5
f 16//6 15//6 14//6
f 15//5 14//5 17//5
f 17//6 14//6 15//6
f 17//5 14//5 18//5
f 18//6 14//6 17//6
f 19//5 18//5 20//5
f 20//6 18//6 19//6
f 20//5 18//5 14//5
f 14//6 18//6 20//6
f 21//4 22//4 23//4
f 23//3 22//3 21//3
f 22//4 21//4 24//4
f 24//3 21//3 22//3
f 22//4 24//4 25//4
f 25//3 24//3 22//3
f 26//4 23//4 22//4
f 22//3 23//3 26//3
f 27//6 28//6 29//6
f 29//5 28//5 27//5
f 28//6 27//6 30//6
f 30//5 27//5 28//5
usemtl material-2
f 32/2/7 31/1/7 33/3/7
f 33/3/8 31/1/8 32/2/8
usemtl material-3
f 34/4/9 35/5/9 36/6/9
f 36/6/10 35/5/10 34/4/10
f 35/5/9 34/4/9 37/7/9
f 37/7/10 34/4/10 35/5/10
usemtl material-4
f 38//11 39//11 40//11
f 39//11 38//11 41//11
f 41//11 38//11 42//11
f 42//11 38//11 43//11
f 50//12 51//12 52//12
f 51//12 50//12 53//12
f 53//12 50//12 54//12
usemtl material-5
f 44//12 45//12 46//12
f 46//12 45//12 47//12
f 47//12 45//12 48//12
f 49//12 48//12 45//12
f 56//11 55//11 57//11
f 57//11 55//11 58//11
f 59//11 58//11 55//11