mtllib new-4.mtl
v 0.029715 -0.774998 0.337392
v 0.024927 -0.759936 0.335409
v 0.024927 -0.779786 0.335409
v 0.029715 -0.764723 0.337392
v 0.029715 0.852719 0.337392
v 0.024927 0.847932 0.335409
v 0.024927 0.867782 0.335409
v 0.029715 0.862994 0.337392
v 0.029715 0.862994 0.337392
v 0.029715 0.852719 0.337392
v 0.024927 0.867782 0.335409
v 0.024927 0.847932 0.335409
v 0.024927 -0.759936 0.335409
v 0.029715 -0.764723 0.337392
v 0.029715 -0.774998 0.337392
v 0.024927 -0.779786 0.335409
v 0.034852 -0.769861 0.338068
v 0.034852 0.857857 0.338068
v 0.034852 0.857857 0.338068
v 0.034852 -0.769861 0.338068
v 0.020816 -0.755825 0.332254
v 0.020816 -0.783897 0.332254
v 0.020816 0.843820 0.332254
v 0.020816 0.871893 0.332254
v 0.020816 0.871893 0.332254
v 0.020816 0.843820 0.332254
v 0.020816 -0.755825 0.332254
v 0.020816 -0.783897 0.332254
v 0.039990 -0.764723 0.337392
v 0.039990 -0.774998 0.337392
v 0.039990 0.852719 0.337392
v 0.039990 0.862994 0.337392
v 0.039990 0.862994 0.337392
v 0.039990 0.852719 0.337392
v 0.039990 -0.764723 0.337392
v 0.039990 -0.774998 0.337392
v 0.017662 0.875048 0.328143
v 0.017662 -0.787052 0.328143
v 0.017662 0.840666 0.328143
v 0.017662 -0.752670 0.328143
v 0.017662 -0.752670 0.328143
v 0.017662 0.840666 0.328143
v 0.017662 -0.787052 0.328143
v 0.017662 0.875048 0.328143
v 0.044778 -0.759936 0.335409
v 0.044778 -0.779786 0.335409
v 0.044778 0.847932 0.335409
v 0.044778 0.867782 0.335409
v 0.044778 0.867782 0.335409
v 0.044778 0.847932 0.335409
v 0.044778 -0.759936 0.335409
v 0.044778 -0.779786 0.335409
v 0.015678 0.877031 0.323355
v 0.015678 -0.789035 0.323355
v 0.015678 0.838683 0.323355
v 0.015678 -0.750687 0.323355
v 0.015678 -0.750687 0.323355
v 0.015678 0.838683 0.323355
v 0.015678 -0.789035 0.323355
v 0.015678 0.877031 0.323355
v 0.048889 -0.755825 0.332254
v 0.048889 -0.783897 0.332254
v 0.048889 0.843820 0.332254
v 0.048889 0.871893 0.332254
v 0.048889 0.871893 0.332254
v 0.048889 0.843820 0.332254
v 0.048889 -0.755825 0.332254
v 0.048889 -0.783897 0.332254
v 0.015002 0.877707 0.318218
v 0.015002 -0.789711 0.318218
v 0.015002 0.857857 0.318218
v 0.015002 0.838006 0.318218
v 0.015002 -0.750011 0.318218
v 0.015002 -0.769861 0.318218
v 0.015002 -0.769861 0.318218
v 0.015002 -0.750011 0.318218
v 0.015002 -0.789711 0.318218
v 0.015002 0.838006 0.318218
v 0.015002 0.857857 0.318218
v 0.015002 0.877707 0.318218
v 0.052043 -0.787052 0.328143
v 0.052043 0.875048 0.328143
v 0.052043 -0.752670 0.328143
v 0.052043 0.840666 0.328143
v 0.052043 0.840666 0.328143
v 0.052043 -0.752670 0.328143
v 0.052043 0.875048 0.328143
v 0.052043 -0.787052 0.328143
v 0.054026 -0.789035 0.323355
v 0.054026 0.877031 0.323355
v 0.054026 -0.750687 0.323355
v 0.054026 0.838683 0.323355
v 0.054026 0.838683 0.323355
v 0.054026 -0.750687 0.323355
v 0.054026 0.877031 0.323355
v 0.054026 -0.789035 0.323355
v 0.054703 -0.789711 0.318218
v 0.054703 0.877707 0.318218
v 0.054703 -0.769861 0.318218
v 0.054703 -0.750011 0.318218
v 0.054703 0.838006 0.318218
v 0.054703 0.857857 0.318218
v 0.054703 0.857857 0.318218
v 0.054703 0.838006 0.318218
v 0.054703 0.877707 0.318218
v 0.054703 -0.750011 0.318218
v 0.054703 -0.769861 0.318218
v 0.054703 -0.789711 0.318218
v 0.054703 0.877707 0.318218
v 0.015002 0.877707 0.240827
v 0.015002 0.877707 0.318218
v 0.015002 -0.769861 0.280528
v 0.015002 -0.789711 0.318218
v 0.015002 -0.769861 0.318218
v 0.015678 0.877031 0.323355
v 0.054703 0.877707 0.318218
v 0.015002 0.877707 0.318218
v 0.054026 0.877031 0.323355
v 0.054703 -0.789711 0.318218
v 0.015678 -0.789035 0.323355
v 0.015002 -0.789711 0.318218
v 0.054026 -0.789035 0.323355
v 0.017662 0.875048 0.328143
v 0.052043 0.875048 0.328143
v 0.017662 -0.787052 0.328143
v 0.052043 -0.787052 0.328143
v 0.020816 0.871893 0.332254
v 0.048889 0.871893 0.332254
v 0.020816 -0.783897 0.332254
v 0.048889 -0.783897 0.332254
v 0.024927 0.867782 0.335409
v 0.044778 0.867782 0.335409
v 0.044778 -0.779786 0.335409
v 0.024927 -0.779786 0.335409
v 0.029715 0.862994 0.337392
v 0.039990 0.862994 0.337392
v 0.039990 -0.774998 0.337392
v 0.029715 -0.774998 0.337392
v 0.034852 0.857857 0.338068
v 0.034852 -0.769861 0.338068
v 0.054703 0.857857 0.280528
v 0.054703 0.877707 0.318218
v 0.054703 0.857857 0.318218
v 0.015002 0.857857 0.320228
v 0.054703 -0.769861 0.320228
v 0.015002 -0.769861 0.320228
v 0.054703 0.857857 0.320228
v 0.054703 0.857857 0.320228
v 0.015002 0.857857 0.320228
v 0.054703 -0.769861 0.320228
v 0.015002 -0.769861 0.320228
v 0.054703 0.857857 0.280528
v 0.054703 0.857857 0.320228
v 0.054703 0.857857 0.318218
v 0.054703 0.857857 0.318218
v 0.054703 0.857857 0.280528
v 0.054703 0.857857 0.320228
vn -0.320658 0.000000 0.947195
vn -0.500000 0.000000 0.866025
vn -0.551650 0.000000 0.834076
vn -0.258819 0.000000 0.965926
vn 0.320658 0.000000 -0.947195
vn 0.258819 0.000000 -0.965926
vn 0.551650 0.000000 -0.834076
vn 0.500000 0.000000 -0.866025
vn 0.000000 0.000000 1.000000
vn 0.000000 0.000000 -1.000000
vn -0.707107 0.000000 0.707107
vn -0.743617 0.000000 0.668606
vn 0.743617 0.000000 -0.668606
vn 0.707107 0.000000 -0.707107
vn 0.258819 0.000000 0.965926
vn 0.320658 0.000000 0.947195
vn -0.320658 0.000000 -0.947195
vn -0.258819 0.000000 -0.965926
vn -0.885584 0.000000 0.464479
vn -0.866025 0.000000 0.500000
vn 0.866025 0.000000 -0.500000
vn 0.885584 0.000000 -0.464479
vn 0.500000 0.000000 0.866025
vn 0.551650 0.000000 0.834076
vn -0.551650 0.000000 -0.834076
vn -0.500000 0.000000 -0.866025
vn -0.971489 0.000000 0.237085
vn -0.965926 0.000000 0.258819
vn 0.965926 0.000000 -0.258819
vn 0.971489 0.000000 -0.237085
vn 0.707107 0.000000 0.707107
vn 0.743617 0.000000 0.668606
vn -0.743617 0.000000 -0.668606
vn -0.707107 0.000000 -0.707107
vn -0.991445 0.000000 0.130526
vn 0.991445 0.000000 -0.130526
vn 0.885584 0.000000 0.464479
vn 0.866025 0.000000 0.500000
vn -0.866025 0.000000 -0.500000
vn -0.885584 0.000000 -0.464479
vn 0.971489 0.000000 0.237085
vn 0.965926 0.000000 0.258819
vn -0.965926 0.000000 -0.258819
vn -0.971489 0.000000 -0.237085
vn 0.991445 0.000000 0.130526
vn -0.991445 0.000000 -0.130526
vn 0.000000 1.000000 0.000000
vn 0.000000 -1.000000 0.000000
vn -1.000000 0.000000 0.000000
vn 1.000000 0.000000 0.000000
vn 0.000000 0.971489 0.237085
vn 0.000000 0.991445 0.130526
vn 0.000000 -0.971489 -0.237085
vn 0.000000 -0.991445 -0.130526
vn 0.000000 -0.991445 0.130526
vn 0.000000 -0.971489 0.237085
vn 0.000000 0.991445 -0.130526
vn 0.000000 0.971489 -0.237085
vn 0.000000 0.885584 0.464479
vn 0.000000 -0.885584 -0.464479
vn 0.000000 -0.885584 0.464479
vn 0.000000 0.885584 -0.464479
vn 0.000000 0.743617 0.668606
vn 0.000000 -0.743617 -0.668606
vn 0.000000 -0.743617 0.668606
vn 0.000000 0.743617 -0.668606
vn 0.000000 0.551650 0.834076
vn 0.000000 -0.551650 -0.834076
vn 0.000000 -0.551650 0.834076
vn 0.000000 0.551650 -0.834076
vn 0.000000 0.320658 0.947195
vn 0.000000 -0.320658 -0.947195
vn 0.000000 -0.320658 0.947195
vn 0.000000 0.320658 -0.947195
vn 0.000000 0.130526 0.991445
vn 0.000000 -0.130526 -0.991445
vn 0.000000 -0.130526 0.991445
vn 0.000000 0.130526 -0.991445
vn 1.000000 0.000000 0.000000
vn -1.000000 0.000000 0.000000
vn 0.000000 1.000000 0.000000
vn 0.000000 0.000000 -1.000000
vn 0.000000 -1.000000 0.000000
vn 0.000000 0.000000 1.000000
vt -0.077015 1.660000
vt -0.125758 1.680000
vt -0.125758 1.660000
usemtl material-0
f 1//1 2//2 3//3
f 2//2 1//1 4//4
f 2//2 4//4 5//4
f 2//2 5//4 6//2
f 6//2 5//4 7//3
f 7//3 5//4 8//1
f 9//5 10//6 11//7
f 11//7 10//6 12//8
f 12//8 10//6 13//8
f 10//6 14//6 13//8
f 14//6 15//5 13//8
f 16//7 13//8 15//5
f 17//9 4//4 1//1
f 4//4 17//9 18//9
f 4//4 18//9 5//4
f 5//4 18//9 8//1
f 9//5 19//10 10//6
f 10//6 19//10 14//6
f 19//10 20//10 14//6
f 15//5 14//6 20//10
f 3//3 21//11 22//12
f 21//11 3//3 2//2
f 21//11 2//2 6//2
f 21//11 6//2 23//11
f 23//11 6//2 24//12
f 24//12 6//2 7//3
f 11//7 12//8 25//13
f 25//13 12//8 26//14
f 26//14 12//8 27//14
f 12//8 13//8 27//14
f 13//8 16//7 27//14
f 28//13 27//14 16//7
f 29//15 17//9 30//16
f 17//9 29//15 18//9
f 18//9 29//15 31//15
f 18//9 31//15 32//16
f 33//17 34//18 19//10
f 34//18 35//18 19//10
f 19//10 35//18 20//10
f 36//17 20//10 35//18
f 37//19 23//11 24//12
f 23//11 37//19 21//11
f 21//11 38//19 22//12
f 38//19 21//11 37//19
f 38//19 37//19 39//20
f 38//19 39//20 40//20
f 41//21 42//21 43//22
f 42//21 44//22 43//22
f 44//22 27//14 43//22
f 28//13 43//22 27//14
f 27//14 44//22 26//14
f 25//13 26//14 44//22
f 45//23 30//16 46//24
f 30//16 45//23 29//15
f 29//15 45//23 31//15
f 31//15 45//23 47//23
f 31//15 47//23 48//24
f 31//15 48//24 32//16
f 33//17 49//25 34//18
f 49//25 50//26 34//18
f 50//26 51//26 34//18
f 34//18 51//26 35//18
f 35//18 51//26 36//17
f 52//25 36//17 51//26
f 53//27 39//20 37//19
f 39//20 53//27 40//20
f 40//20 53//27 38//19
f 38//19 53//27 54//27
f 54//27 53//27 55//28
f 54//27 55//28 56//28
f 57//29 58//29 59//30
f 58//29 60//30 59//30
f 59//30 60//30 43//22
f 43//22 60//30 41//21
f 41//21 60//30 42//21
f 44//22 42//21 60//30
f 61//31 46//24 62//32
f 46//24 61//31 45//23
f 45//23 61//31 47//23
f 47//23 61//31 63//31
f 47//23 63//31 64//32
f 47//23 64//32 48//24
f 49//25 65//33 50//26
f 65//33 66//34 50//26
f 66//34 67//34 50//26
f 50//26 67//34 51//26
f 51//26 67//34 52//25
f 68//33 52//25 67//34
f 69//35 55//28 53//27
f 55//28 69//35 56//28
f 56//28 69//35 54//27
f 54//27 69//35 70//35
f 70//35 69//35 71//35
f 70//35 71//35 72//35
f 70//35 72//35 73//35
f 70//35 73//35 74//35
f 75//36 76//36 77//36
f 76//36 78//36 77//36
f 78//36 79//36 77//36
f 79//36 80//36 77//36
f 77//36 80//36 59//30
f 59//30 80//36 57//29
f 57//29 80//36 58//29
f 60//30 58//29 80//36
f 81//37 61//31 62//32
f 61//31 81//37 63//31
f 63//31 82//37 64//32
f 82//37 63//31 81//37
f 82//37 81//37 83//38
f 82//37 83//38 84//38
f 85//39 86//39 87//40
f 86//39 88//40 87//40
f 88//40 66//34 87//40
f 65//33 87//40 66//34
f 66//34 88//40 67//34
f 68//33 67//34 88//40
f 89//41 83//38 81//37
f 83//38 89//41 84//38
f 84//38 89//41 82//37
f 82//37 89//41 90//41
f 90//41 89//41 91//42
f 90//41 91//42 92//42
f 93//43 94//43 95//44
f 94//43 96//44 95//44
f 95//44 96//44 87//40
f 87//40 96//44 85//39
f 85//39 96//44 86//39
f 88//40 86//39 96//44
f 97//45 91//42 89//41
f 91//42 97//45 92//42
f 92//42 97//45 90//41
f 90//41 97//45 98//45
f 98//45 97//45 99//45
f 98//45 99//45 100//45
f 98//45 100//45 101//45
f 98//45 101//45 102//45
f 103//46 104//46 105//46
f 104//46 106//46 105//46
f 106//46 107//46 105//46
f 107//46 108//46 105//46
f 105//46 108//46 95//44
f 95//44 108//46 93//43
f 93//43 108//46 94//43
f 96//44 94//43 108//46
usemtl material-1
f 109//47 110//47 111//47
f 111//48 110//48 109//48
f 112//49 113//49 114//49
f 114//50 113//50 112//50
f 115//51 116//52 117//52
f 117//54 116//54 115//53
f 116//52 115//51 118//51
f 118//53 115//53 116//54
f 119//55 120//56 121//55
f 121//57 120//58 119//57
f 120//56 119//55 122//56
f 122//58 119//57 120//58
f 123//59 118//51 115//51
f 115//53 118//53 123//60
f 118//51 123//59 124//59
f 124//60 123//60 118//53
f 122//56 125//61 120//56
f 120//58 125//62 122//58
f 125//61 122//56 126//61
f 126//62 122//58 125//62
f 127//63 124//59 123//59
f 123//60 124//60 127//64
f 124//59 127//63 128//63
f 128//64 127//64 124//60
f 126//61 129//65 125//61
f 125//62 129//66 126//62
f 129//65 126//61 130//65
f 130//66 126//62 129//66
f 128//63 131//67 132//67
f 132//68 131//68 128//64
f 131//67 128//63 127//63
f 127//64 128//64 131//68
f 133//69 129//65 130//65
f 130//66 129//66 133//70
f 129//65 133//69 134//69
f 134//70 133//70 129//66
f 132//67 135//71 136//71
f 136//72 135//72 132//68
f 135//71 132//67 131//67
f 131//68 132//68 135//72
f 137//73 134//69 133//69
f 133//70 134//70 137//74
f 134//69 137//73 138//73
f 138//74 137//74 134//70
f 135//71 139//75 136//71
f 136//72 139//76 135//72
f 140//77 138//73 137//73
f 137//74 138//74 140//78
usemtl material-2
f 141/1/79 142/2/79 143/3/79
f 143/3/80 142/2/80 141/1/80
usemtl material-4
f 144//82 145//82 146//82
f 145//82 144//82 147//82
f 153//83 152//83 154//83
usemtl material-5
f 148//84 149//84 150//84
f 151//84 150//84 149//84
f 155//81 156//81 157//81