# SSTK version 0.8.0
# 18
mtllib original-18.mtl
o #ID871
v -0.301552 0.279078 0.285490
v -0.304121 0.279114 0.285490
v -0.302839 0.278927 0.285490
v -0.300348 0.279557 0.285490
v -0.305310 0.279627 0.285490
v -0.299309 0.280331 0.285490
v -0.306327 0.280430 0.285490
v -0.298506 0.281348 0.285490
v -0.307101 0.281469 0.285490
v -0.297994 0.282537 0.285490
v -0.307580 0.282673 0.285490
v -0.297807 0.283819 0.285490
v -0.307731 0.283959 0.285490
v -0.297957 0.285106 0.285490
v -0.307543 0.285241 0.285490
v -0.298436 0.286310 0.285490
v -0.307031 0.286431 0.285490
v -0.299210 0.287348 0.285490
v -0.306228 0.287448 0.285490
v -0.300227 0.288151 0.285490
v -0.305189 0.288222 0.285490
v -0.301417 0.288664 0.285490
v -0.303985 0.288700 0.285490
v -0.302698 0.288851 0.285490
vn 0 0 1
vn 0 0 -1
usemtl material_0_2
f 1//1 2//1 3//1
f 3//2 2//2 1//2
f 2//1 1//1 4//1
f 4//2 1//2 2//2
f 2//1 4//1 5//1
f 5//2 4//2 2//2
f 5//1 4//1 6//1
f 6//2 4//2 5//2
f 5//1 6//1 7//1
f 7//2 6//2 5//2
f 7//1 6//1 8//1
f 8//2 6//2 7//2
f 7//1 8//1 9//1
f 9//2 8//2 7//2
f 9//1 8//1 10//1
f 10//2 8//2 9//2
f 9//1 10//1 11//1
f 11//2 10//2 9//2
f 11//1 10//1 12//1
f 12//2 10//2 11//2
f 11//1 12//1 13//1
f 13//2 12//2 11//2
f 13//1 12//1 14//1
f 14//2 12//2 13//2
f 13//1 14//1 15//1
f 15//2 14//2 13//2
f 15//1 14//1 16//1
f 16//2 14//2 15//2
f 15//1 16//1 17//1
f 17//2 16//2 15//2
f 17//1 16//1 18//1
f 18//2 16//2 17//2
f 17//1 18//1 19//1
f 19//2 18//2 17//2
f 19//1 18//1 20//1
f 20//2 18//2 19//2
f 19//1 20//1 21//1
f 21//2 20//2 19//2
f 21//1 20//1 22//1
f 22//2 20//2 21//2
f 21//1 22//1 23//1
f 23//2 22//2 21//2
f 23//1 22//1 24//1
f 24//2 22//2 23//2
