# SSTK version 0.8.0
# 42
mtllib original-42.mtl
o #ID1033
v -0.262294 0.245925 0.242164
v -0.262294 0.245925 0.243934
v -0.262411 0.245925 0.243049
v -0.261953 0.245925 0.241340
v -0.261953 0.245925 0.244759
v -0.261409 0.245925 0.245467
v -0.261409 0.245925 0.240631
v -0.260701 0.245925 0.240088
v -0.260701 0.245925 0.246010
v -0.259877 0.245925 0.239746
v -0.259877 0.245925 0.246352
v -0.258992 0.245925 0.246468
v -0.258992 0.245925 0.239630
v -0.258107 0.245925 0.246352
v -0.258107 0.245925 0.239746
v -0.257282 0.245925 0.246010
v -0.257282 0.245925 0.240088
v -0.256574 0.245925 0.240631
v -0.256574 0.245925 0.245467
v -0.256031 0.245925 0.244759
v -0.256031 0.245925 0.241340
v -0.255689 0.245925 0.242164
v -0.255689 0.245925 0.243934
v -0.255573 0.245925 0.243049
v -0.255573 0.245925 0.243049
v -0.255689 0.245925 0.242164
v -0.255689 0.245925 0.243934
v -0.256031 0.245925 0.244759
v -0.256031 0.245925 0.241340
v -0.256574 0.245925 0.240631
v -0.256574 0.245925 0.245467
v -0.257282 0.245925 0.246010
v -0.257282 0.245925 0.240088
v -0.258107 0.245925 0.239746
v -0.258107 0.245925 0.246352
v -0.258992 0.245925 0.239630
v -0.258992 0.245925 0.246468
v -0.259877 0.245925 0.239746
v -0.259877 0.245925 0.246352
v -0.260701 0.245925 0.246010
v -0.260701 0.245925 0.240088
v -0.261409 0.245925 0.245467
v -0.261409 0.245925 0.240631
v -0.261953 0.245925 0.241340
v -0.261953 0.245925 0.244759
v -0.262294 0.245925 0.243934
v -0.262294 0.245925 0.242164
v -0.262411 0.245925 0.243049
v -0.259877 0.245925 0.246352
v -0.258992 0.226609 0.246468
v -0.259877 0.226609 0.246352
v -0.258992 0.245925 0.246468
v -0.258992 0.245925 0.246468
v -0.259877 0.245925 0.246352
v -0.258992 0.226609 0.246468
v -0.259877 0.226609 0.246352
v -0.260701 0.245925 0.246010
v -0.260701 0.226609 0.246010
v -0.260701 0.245925 0.246010
v -0.260701 0.226609 0.246010
v -0.261409 0.245925 0.245467
v -0.261409 0.226609 0.245467
v -0.261409 0.245925 0.245467
v -0.261409 0.226609 0.245467
v -0.261953 0.226609 0.244759
v -0.261953 0.245925 0.244759
v -0.261953 0.245925 0.244759
v -0.261953 0.226609 0.244759
v -0.262294 0.226609 0.243934
v -0.262294 0.245925 0.243934
v -0.262294 0.245925 0.243934
v -0.262294 0.226609 0.243934
v -0.262411 0.226609 0.243049
v -0.262411 0.245925 0.243049
v -0.262411 0.245925 0.243049
v -0.262411 0.226609 0.243049
v -0.262294 0.226609 0.242164
v -0.262294 0.245925 0.242164
v -0.262294 0.245925 0.242164
v -0.262294 0.226609 0.242164
v -0.261953 0.226609 0.241340
v -0.261953 0.245925 0.241340
v -0.261953 0.245925 0.241340
v -0.261953 0.226609 0.241340
v -0.261409 0.226609 0.240631
v -0.261409 0.245925 0.240631
v -0.261409 0.245925 0.240631
v -0.261409 0.226609 0.240631
v -0.260701 0.245925 0.240088
v -0.260701 0.226609 0.240088
v -0.260701 0.245925 0.240088
v -0.260701 0.226609 0.240088
v -0.259877 0.245925 0.239746
v -0.259877 0.226609 0.239746
v -0.259877 0.245925 0.239746
v -0.259877 0.226609 0.239746
v -0.258992 0.245925 0.239630
v -0.258992 0.226609 0.239630
v -0.258992 0.245925 0.239630
v -0.258992 0.226609 0.239630
v -0.258107 0.245925 0.239746
v -0.258107 0.226609 0.239746
v -0.258107 0.245925 0.239746
v -0.258107 0.226609 0.239746
v -0.257282 0.245925 0.240088
v -0.257282 0.226609 0.240088
v -0.257282 0.245925 0.240088
v -0.257282 0.226609 0.240088
v -0.256574 0.245925 0.240631
v -0.256574 0.226609 0.240631
v -0.256574 0.245925 0.240631
v -0.256574 0.226609 0.240631
v -0.256031 0.226609 0.241340
v -0.256031 0.245925 0.241340
v -0.256031 0.226609 0.241340
v -0.256031 0.245925 0.241340
v -0.255689 0.226609 0.242164
v -0.255689 0.245925 0.242164
v -0.255689 0.226609 0.242164
v -0.255689 0.245925 0.242164
v -0.255573 0.226609 0.243049
v -0.255573 0.245925 0.243049
v -0.255573 0.226609 0.243049
v -0.255573 0.245925 0.243049
v -0.255689 0.226609 0.243934
v -0.255689 0.245925 0.243934
v -0.255689 0.226609 0.243934
v -0.255689 0.245925 0.243934
v -0.256031 0.226609 0.244759
v -0.256031 0.245925 0.244759
v -0.256031 0.226609 0.244759
v -0.256031 0.245925 0.244759
v -0.256574 0.226609 0.245467
v -0.256574 0.245925 0.245467
v -0.256574 0.226609 0.245467
v -0.256574 0.245925 0.245467
v -0.257282 0.245925 0.246010
v -0.257282 0.226609 0.246010
v -0.257282 0.245925 0.246010
v -0.257282 0.226609 0.246010
v -0.258107 0.245925 0.246352
v -0.258107 0.226609 0.246352
v -0.258107 0.245925 0.246352
v -0.258107 0.226609 0.246352
vn 0 -1 0
vn 0 1 0
vn 0.25881900959356163 0 -0.9659258358036645
vn 0 0 -1
vn 0 0 1
vn -0.25881900959356163 0 0.9659258358036645
vn 0.5000000016387101 0 -0.866025402838329
vn -0.5000000016387101 0 0.866025402838329
vn 0.7071067811865476 0 -0.7071067811865476
vn -0.7071067811865476 0 0.7071067811865476
vn 0.866025402838329 0 -0.5000000016387101
vn -0.866025402838329 0 0.5000000016387101
vn 0.9659258358036645 0 -0.25881900959356163
vn -0.9659258358036645 0 0.25881900959356163
vn 1 0 0
vn -1 0 0
vn 0.9659258358036645 0 0.25881900959356163
vn -0.9659258358036645 0 -0.25881900959356163
vn 0.866025402838329 0 0.5000000016387101
vn -0.866025402838329 0 -0.5000000016387101
vn 0.7071067811865476 0 0.7071067811865476
vn -0.7071067811865476 0 -0.7071067811865476
vn 0.5000000016387101 0 0.866025402838329
vn -0.5000000016387101 0 -0.866025402838329
vn 0.25881900959356163 0 0.9659258358036645
vn -0.25881900959356163 0 -0.9659258358036645
usemtl material_0_0
f 1//1 2//1 3//1
f 2//1 1//1 4//1
f 2//1 4//1 5//1
f 5//1 4//1 6//1
f 6//1 4//1 7//1
f 6//1 7//1 8//1
f 6//1 8//1 9//1
f 9//1 8//1 10//1
f 9//1 10//1 11//1
f 11//1 10//1 12//1
f 12//1 10//1 13//1
f 12//1 13//1 14//1
f 14//1 13//1 15//1
f 14//1 15//1 16//1
f 16//1 15//1 17//1
f 16//1 17//1 18//1
f 16//1 18//1 19//1
f 19//1 18//1 20//1
f 20//1 18//1 21//1
f 20//1 21//1 22//1
f 20//1 22//1 23//1
f 23//1 22//1 24//1
f 25//2 26//2 27//2
f 27//2 26//2 28//2
f 26//2 29//2 28//2
f 29//2 30//2 28//2
f 28//2 30//2 31//2
f 31//2 30//2 32//2
f 30//2 33//2 32//2
f 33//2 34//2 32//2
f 32//2 34//2 35//2
f 34//2 36//2 35//2
f 35//2 36//2 37//2
f 36//2 38//2 37//2
f 37//2 38//2 39//2
f 39//2 38//2 40//2
f 38//2 41//2 40//2
f 40//2 41//2 42//2
f 41//2 43//2 42//2
f 43//2 44//2 42//2
f 42//2 44//2 45//2
f 45//2 44//2 46//2
f 44//2 47//2 46//2
f 48//2 46//2 47//2
f 49//3 50//4 51//3
f 50//4 49//3 52//4
f 53//5 54//6 55//5
f 56//6 55//5 54//6
f 57//7 51//3 58//7
f 51//3 57//7 49//3
f 54//6 59//8 56//6
f 60//8 56//6 59//8
f 61//9 58//7 62//9
f 58//7 61//9 57//7
f 59//8 63//10 60//8
f 64//10 60//8 63//10
f 65//11 61//9 62//9
f 61//9 65//11 66//11
f 67//12 68//12 63//10
f 64//10 63//10 68//12
f 69//13 66//11 65//11
f 66//11 69//13 70//13
f 71//14 72//14 67//12
f 68//12 67//12 72//14
f 73//15 70//13 69//13
f 70//13 73//15 74//15
f 75//16 76//16 71//14
f 72//14 71//14 76//16
f 77//17 74//15 73//15
f 74//15 77//17 78//17
f 79//18 80//18 75//16
f 76//16 75//16 80//18
f 81//19 78//17 77//17
f 78//17 81//19 82//19
f 83//20 84//20 79//18
f 80//18 79//18 84//20
f 85//21 82//19 81//19
f 82//19 85//21 86//21
f 87//22 88//22 83//20
f 84//20 83//20 88//22
f 89//23 85//21 90//23
f 85//21 89//23 86//21
f 87//22 91//24 88//22
f 92//24 88//22 91//24
f 93//25 90//23 94//25
f 90//23 93//25 89//23
f 91//24 95//26 92//24
f 96//26 92//24 95//26
f 97//5 94//25 98//5
f 94//25 97//5 93//25
f 95//26 99//4 96//26
f 100//4 96//26 99//4
f 101//6 98//5 102//6
f 98//5 101//6 97//5
f 99//4 103//3 100//4
f 104//3 100//4 103//3
f 105//8 102//6 106//8
f 102//6 105//8 101//6
f 103//3 107//7 104//3
f 108//7 104//3 107//7
f 109//10 106//8 110//10
f 106//8 109//10 105//8
f 107//7 111//9 108//7
f 112//9 108//7 111//9
f 109//10 113//12 114//12
f 113//12 109//10 110//10
f 112//9 111//9 115//11
f 116//11 115//11 111//9
f 114//12 117//14 118//14
f 117//14 114//12 113//12
f 115//11 116//11 119//13
f 120//13 119//13 116//11
f 118//14 121//16 122//16
f 121//16 118//14 117//14
f 119//13 120//13 123//15
f 124//15 123//15 120//13
f 122//16 125//18 126//18
f 125//18 122//16 121//16
f 123//15 124//15 127//17
f 128//17 127//17 124//15
f 126//18 129//20 130//20
f 129//20 126//18 125//18
f 127//17 128//17 131//19
f 132//19 131//19 128//17
f 130//20 133//22 134//22
f 133//22 130//20 129//20
f 131//19 132//19 135//21
f 136//21 135//21 132//19
f 137//24 133//22 138//24
f 133//22 137//24 134//22
f 136//21 139//23 135//21
f 140//23 135//21 139//23
f 141//26 138//24 142//26
f 138//24 141//26 137//24
f 139//23 143//25 140//23
f 144//25 140//23 143//25
f 52//4 142//26 50//4
f 142//26 52//4 141//26
f 143//25 53//5 144//25
f 55//5 144//25 53//5
