# SSTK version 0.8.0
# 25
mtllib original-25.mtl
o #ID921
v -0.202369 0.264292 0.285490
v -0.204931 0.264102 0.285490
v -0.203638 0.264028 0.285490
v -0.206161 0.264508 0.285490
v -0.201212 0.264875 0.285490
v -0.207245 0.265218 0.285490
v -0.200246 0.265738 0.285490
v -0.208107 0.266185 0.285490
v -0.199536 0.266821 0.285490
v -0.208690 0.267341 0.285490
v -0.199130 0.268052 0.285490
v -0.208954 0.268610 0.285490
v -0.199056 0.269345 0.285490
v -0.208881 0.269903 0.285490
v -0.199320 0.270613 0.285490
v -0.208475 0.271133 0.285490
v -0.199903 0.271770 0.285490
v -0.207764 0.272217 0.285490
v -0.200766 0.272737 0.285490
v -0.206798 0.273079 0.285490
v -0.201849 0.273447 0.285490
v -0.205641 0.273663 0.285490
v -0.203079 0.273853 0.285490
v -0.204373 0.273926 0.285490
vn 0 0 1
vn 0 0 -1
usemtl material_0_2
f 1//1 2//1 3//1
f 3//2 2//2 1//2
f 2//1 1//1 4//1
f 4//2 1//2 2//2
f 4//1 1//1 5//1
f 5//2 1//2 4//2
f 4//1 5//1 6//1
f 6//2 5//2 4//2
f 6//1 5//1 7//1
f 7//2 5//2 6//2
f 6//1 7//1 8//1
f 8//2 7//2 6//2
f 8//1 7//1 9//1
f 9//2 7//2 8//2
f 8//1 9//1 10//1
f 10//2 9//2 8//2
f 10//1 9//1 11//1
f 11//2 9//2 10//2
f 10//1 11//1 12//1
f 12//2 11//2 10//2
f 12//1 11//1 13//1
f 13//2 11//2 12//2
f 12//1 13//1 14//1
f 14//2 13//2 12//2
f 14//1 13//1 15//1
f 15//2 13//2 14//2
f 14//1 15//1 16//1
f 16//2 15//2 14//2
f 16//1 15//1 17//1
f 17//2 15//2 16//2
f 16//1 17//1 18//1
f 18//2 17//2 16//2
f 18//1 17//1 19//1
f 19//2 17//2 18//2
f 18//1 19//1 20//1
f 20//2 19//2 18//2
f 20//1 19//1 21//1
f 21//2 19//2 20//2
f 20//1 21//1 22//1
f 22//2 21//2 20//2
f 22//1 21//1 23//1
f 23//2 21//2 22//2
f 22//1 23//1 24//1
f 24//2 23//2 22//2
