# SSTK version 0.8.0
# 31
mtllib original-31.mtl
o #ID965
v 0.412006 -0.839218 0.220977
v 0.402081 -0.829293 0.220977
v 0.024927 -0.839218 0.220977
v 0.412006 -0.799636 0.220977
v 0.402081 -0.809561 0.220977
v 0.034852 -0.809561 0.220977
v 0.034852 -0.829293 0.220977
v 0.024927 -0.799636 0.220977
vn 0 0 1
vn 0 0 -1
usemtl material_0_2
f 1//1 2//1 3//1
f 3//2 2//2 1//2
f 2//1 1//1 4//1
f 4//2 1//2 2//2
f 2//1 4//1 5//1
f 5//2 4//2 2//2
f 5//1 4//1 6//1
f 6//2 4//2 5//2
f 3//1 7//1 8//1
f 8//2 7//2 3//2
f 7//1 3//1 2//1
f 2//2 3//2 7//2
f 8//1 7//1 6//1
f 6//2 7//2 8//2
f 8//1 6//1 4//1
f 4//2 6//2 8//2
