# SSTK version 0.8.0
# 43
mtllib original-43.mtl
o #ID1039
v -0.263785 0.226609 0.241765
v -0.263785 0.226609 0.244334
v -0.263954 0.226609 0.243049
v -0.263289 0.226609 0.240568
v -0.263289 0.226609 0.245530
v -0.262501 0.226609 0.239540
v -0.262501 0.226609 0.246558
v -0.262411 0.226609 0.243049
v -0.262294 0.226609 0.242164
v -0.261473 0.226609 0.238751
v -0.261953 0.226609 0.241340
v -0.261409 0.226609 0.240631
v -0.260276 0.226609 0.238256
v -0.260701 0.226609 0.240088
v -0.259877 0.226609 0.239746
v -0.258992 0.226609 0.238087
v -0.258992 0.226609 0.239630
v -0.257707 0.226609 0.238256
v -0.258107 0.226609 0.239746
v -0.257282 0.226609 0.240088
v -0.256510 0.226609 0.238751
v -0.256574 0.226609 0.240631
v -0.256031 0.226609 0.241340
v -0.255483 0.226609 0.239540
v -0.255689 0.226609 0.242164
v -0.255573 0.226609 0.243049
v -0.262294 0.226609 0.243934
v -0.261473 0.226609 0.247347
v -0.261953 0.226609 0.244759
v -0.261409 0.226609 0.245467
v -0.260276 0.226609 0.247843
v -0.260701 0.226609 0.246010
v -0.259877 0.226609 0.246352
v -0.258992 0.226609 0.248012
v -0.258992 0.226609 0.246468
v -0.258107 0.226609 0.246352
v -0.257707 0.226609 0.247843
v -0.257282 0.226609 0.246010
v -0.256510 0.226609 0.247347
v -0.256574 0.226609 0.245467
v -0.256031 0.226609 0.244759
v -0.255483 0.226609 0.246558
v -0.255689 0.226609 0.243934
v -0.254694 0.226609 0.240568
v -0.254694 0.226609 0.245530
v -0.254198 0.226609 0.241765
v -0.254198 0.226609 0.244334
v -0.254029 0.226609 0.243049
v -0.254029 0.226609 0.243049
v -0.254198 0.226609 0.241765
v -0.254198 0.226609 0.244334
v -0.254694 0.226609 0.245530
v -0.254694 0.226609 0.240568
v -0.255483 0.226609 0.246558
v -0.255483 0.226609 0.239540
v -0.255573 0.226609 0.243049
v -0.255689 0.226609 0.243934
v -0.256031 0.226609 0.244759
v -0.256510 0.226609 0.247347
v -0.256574 0.226609 0.245467
v -0.257282 0.226609 0.246010
v -0.257707 0.226609 0.247843
v -0.258107 0.226609 0.246352
v -0.258992 0.226609 0.248012
v -0.258992 0.226609 0.246468
v -0.259877 0.226609 0.246352
v -0.260276 0.226609 0.247843
v -0.260701 0.226609 0.246010
v -0.261409 0.226609 0.245467
v -0.261473 0.226609 0.247347
v -0.261953 0.226609 0.244759
v -0.262294 0.226609 0.243934
v -0.262411 0.226609 0.243049
v -0.262501 0.226609 0.246558
v -0.255689 0.226609 0.242164
v -0.256031 0.226609 0.241340
v -0.256510 0.226609 0.238751
v -0.256574 0.226609 0.240631
v -0.257282 0.226609 0.240088
v -0.257707 0.226609 0.238256
v -0.258107 0.226609 0.239746
v -0.258992 0.226609 0.239630
v -0.258992 0.226609 0.238087
v -0.259877 0.226609 0.239746
v -0.260276 0.226609 0.238256
v -0.260701 0.226609 0.240088
v -0.261409 0.226609 0.240631
v -0.261473 0.226609 0.238751
v -0.261953 0.226609 0.241340
v -0.262294 0.226609 0.242164
v -0.262501 0.226609 0.239540
v -0.263289 0.226609 0.245530
v -0.263289 0.226609 0.240568
v -0.263785 0.226609 0.244334
v -0.263785 0.226609 0.241765
v -0.263954 0.226609 0.243049
v -0.262501 0.245925 0.239540
v -0.261473 0.226609 0.238751
v -0.262501 0.226609 0.239540
v -0.261473 0.245925 0.238751
v -0.261473 0.245925 0.238751
v -0.262501 0.245925 0.239540
v -0.261473 0.226609 0.238751
v -0.262501 0.226609 0.239540
v -0.260276 0.226609 0.238256
v -0.260276 0.245925 0.238256
v -0.260276 0.245925 0.238256
v -0.260276 0.226609 0.238256
v -0.258992 0.226609 0.238087
v -0.258992 0.245925 0.238087
v -0.258992 0.245925 0.238087
v -0.258992 0.226609 0.238087
v -0.257707 0.226609 0.238256
v -0.257707 0.245925 0.238256
v -0.257707 0.245925 0.238256
v -0.257707 0.226609 0.238256
v -0.256510 0.226609 0.238751
v -0.256510 0.245925 0.238751
v -0.256510 0.245925 0.238751
v -0.256510 0.226609 0.238751
v -0.255483 0.226609 0.239540
v -0.255483 0.245925 0.239540
v -0.255483 0.245925 0.239540
v -0.255483 0.226609 0.239540
v -0.254694 0.245925 0.240568
v -0.254694 0.226609 0.240568
v -0.254694 0.245925 0.240568
v -0.254694 0.226609 0.240568
v -0.254198 0.245925 0.241765
v -0.254198 0.226609 0.241765
v -0.254198 0.245925 0.241765
v -0.254198 0.226609 0.241765
v -0.254029 0.245925 0.243049
v -0.254029 0.226609 0.243049
v -0.254029 0.245925 0.243049
v -0.254029 0.226609 0.243049
v -0.254198 0.245925 0.244334
v -0.254198 0.226609 0.244334
v -0.254198 0.245925 0.244334
v -0.254198 0.226609 0.244334
v -0.254694 0.245925 0.245530
v -0.254694 0.226609 0.245530
v -0.254694 0.245925 0.245530
v -0.254694 0.226609 0.245530
v -0.255483 0.245925 0.246558
v -0.255483 0.226609 0.246558
v -0.255483 0.245925 0.246558
v -0.255483 0.226609 0.246558
v -0.256510 0.226609 0.247347
v -0.256510 0.245925 0.247347
v -0.256510 0.245925 0.247347
v -0.256510 0.226609 0.247347
v -0.257707 0.226609 0.247843
v -0.257707 0.245925 0.247843
v -0.257707 0.245925 0.247843
v -0.257707 0.226609 0.247843
v -0.258992 0.226609 0.248012
v -0.258992 0.245925 0.248012
v -0.258992 0.245925 0.248012
v -0.258992 0.226609 0.248012
v -0.260276 0.226609 0.247843
v -0.260276 0.245925 0.247843
v -0.260276 0.245925 0.247843
v -0.260276 0.226609 0.247843
v -0.261473 0.226609 0.247347
v -0.261473 0.245925 0.247347
v -0.261473 0.245925 0.247347
v -0.261473 0.226609 0.247347
v -0.262501 0.226609 0.246558
v -0.262501 0.245925 0.246558
v -0.262501 0.245925 0.246558
v -0.262501 0.226609 0.246558
v -0.263289 0.245925 0.245530
v -0.263289 0.226609 0.245530
v -0.263289 0.226609 0.245530
v -0.263289 0.245925 0.245530
v -0.263785 0.245925 0.244334
v -0.263785 0.226609 0.244334
v -0.263785 0.226609 0.244334
v -0.263785 0.245925 0.244334
v -0.263954 0.245925 0.243049
v -0.263954 0.226609 0.243049
v -0.263954 0.226609 0.243049
v -0.263954 0.245925 0.243049
v -0.263785 0.245925 0.241765
v -0.263785 0.226609 0.241765
v -0.263785 0.226609 0.241765
v -0.263785 0.245925 0.241765
v -0.263289 0.245925 0.240568
v -0.263289 0.226609 0.240568
v -0.263289 0.226609 0.240568
v -0.263289 0.245925 0.240568
vn 0 -1 0
vn 0 1 0
vn -0.7071067811865476 0 -0.7071067811865476
vn -0.5000000016387101 0 -0.866025402838329
vn 0.5000000016387101 0 0.866025402838329
vn 0.7071067811865476 0 0.7071067811865476
vn -0.25881900959356163 0 -0.9659258358036645
vn 0.25881900959356163 0 0.9659258358036645
vn 0 0 -1
vn 0 0 1
vn 0.25881900959356163 0 -0.9659258358036645
vn -0.25881900959356163 0 0.9659258358036645
vn 0.5000000016387101 0 -0.866025402838329
vn -0.5000000016387101 0 0.866025402838329
vn 0.7071067811865476 0 -0.7071067811865476
vn -0.7071067811865476 0 0.7071067811865476
vn 0.866025402838329 0 -0.5000000016387101
vn -0.866025402838329 0 0.5000000016387101
vn 0.9659258358036645 0 -0.25881900959356163
vn -0.9659258358036645 0 0.25881900959356163
vn 1 0 0
vn -1 0 0
vn 0.9659258358036645 0 0.25881900959356163
vn -0.9659258358036645 0 -0.25881900959356163
vn 0.866025402838329 0 0.5000000016387101
vn -0.866025402838329 0 -0.5000000016387101
usemtl material_0_0
f 1//1 2//1 3//1
f 2//1 1//1 4//1
f 2//1 4//1 5//1
f 5//1 4//1 6//1
f 5//1 6//1 7//1
f 7//1 6//1 8//1
f 8//1 6//1 9//1
f 9//1 6//1 10//1
f 9//1 10//1 11//1
f 11//1 10//1 12//1
f 12//1 10//1 13//1
f 12//1 13//1 14//1
f 14//1 13//1 15//1
f 15//1 13//1 16//1
f 15//1 16//1 17//1
f 17//1 16//1 18//1
f 17//1 18//1 19//1
f 19//1 18//1 20//1
f 20//1 18//1 21//1
f 20//1 21//1 22//1
f 22//1 21//1 23//1
f 23//1 21//1 24//1
f 23//1 24//1 25//1
f 25//1 24//1 26//1
f 7//1 27//1 28//1
f 27//1 7//1 8//1
f 28//1 27//1 29//1
f 28//1 29//1 30//1
f 28//1 30//1 31//1
f 31//1 30//1 32//1
f 31//1 32//1 33//1
f 31//1 33//1 34//1
f 34//1 33//1 35//1
f 34//1 35//1 36//1
f 34//1 36//1 37//1
f 37//1 36//1 38//1
f 37//1 38//1 39//1
f 39//1 38//1 40//1
f 39//1 40//1 41//1
f 39//1 41//1 42//1
f 42//1 41//1 43//1
f 42//1 43//1 26//1
f 42//1 26//1 24//1
f 42//1 24//1 44//1
f 42//1 44//1 45//1
f 45//1 44//1 46//1
f 45//1 46//1 47//1
f 47//1 46//1 48//1
f 49//2 50//2 51//2
f 51//2 50//2 52//2
f 50//2 53//2 52//2
f 52//2 53//2 54//2
f 53//2 55//2 54//2
f 55//2 56//2 54//2
f 56//2 57//2 54//2
f 57//2 58//2 54//2
f 54//2 58//2 59//2
f 58//2 60//2 59//2
f 60//2 61//2 59//2
f 59//2 61//2 62//2
f 61//2 63//2 62//2
f 62//2 63//2 64//2
f 63//2 65//2 64//2
f 65//2 66//2 64//2
f 64//2 66//2 67//2
f 66//2 68//2 67//2
f 68//2 69//2 67//2
f 67//2 69//2 70//2
f 69//2 71//2 70//2
f 71//2 72//2 70//2
f 73//2 74//2 72//2
f 70//2 72//2 74//2
f 56//2 55//2 75//2
f 75//2 55//2 76//2
f 55//2 77//2 76//2
f 76//2 77//2 78//2
f 78//2 77//2 79//2
f 77//2 80//2 79//2
f 79//2 80//2 81//2
f 81//2 80//2 82//2
f 80//2 83//2 82//2
f 82//2 83//2 84//2
f 83//2 85//2 84//2
f 84//2 85//2 86//2
f 86//2 85//2 87//2
f 85//2 88//2 87//2
f 87//2 88//2 89//2
f 89//2 88//2 90//2
f 88//2 91//2 90//2
f 90//2 91//2 73//2
f 73//2 91//2 74//2
f 74//2 91//2 92//2
f 91//2 93//2 92//2
f 92//2 93//2 94//2
f 93//2 95//2 94//2
f 96//2 94//2 95//2
f 97//3 98//4 99//3
f 98//4 97//3 100//4
f 101//5 102//6 103//5
f 104//6 103//5 102//6
f 100//4 105//7 98//4
f 105//7 100//4 106//7
f 107//8 101//5 108//8
f 103//5 108//8 101//5
f 106//7 109//9 105//7
f 109//9 106//7 110//9
f 111//10 107//8 112//10
f 108//8 112//10 107//8
f 110//9 113//11 109//9
f 113//11 110//9 114//11
f 115//12 111//10 116//12
f 112//10 116//12 111//10
f 114//11 117//13 113//11
f 117//13 114//11 118//13
f 119//14 115//12 120//14
f 116//12 120//14 115//12
f 118//13 121//15 117//13
f 121//15 118//13 122//15
f 123//16 119//14 124//16
f 120//14 124//16 119//14
f 121//15 125//17 126//17
f 125//17 121//15 122//15
f 123//16 124//16 127//18
f 128//18 127//18 124//16
f 126//17 129//19 130//19
f 129//19 126//17 125//17
f 127//18 128//18 131//20
f 132//20 131//20 128//18
f 130//19 133//21 134//21
f 133//21 130//19 129//19
f 131//20 132//20 135//22
f 136//22 135//22 132//20
f 134//21 137//23 138//23
f 137//23 134//21 133//21
f 135//22 136//22 139//24
f 140//24 139//24 136//22
f 138//23 141//25 142//25
f 141//25 138//23 137//23
f 139//24 140//24 143//26
f 144//26 143//26 140//24
f 142//25 145//6 146//6
f 145//6 142//25 141//25
f 143//26 144//26 147//3
f 148//3 147//3 144//26
f 145//6 149//5 146//6
f 149//5 145//6 150//5
f 151//4 147//3 152//4
f 148//3 152//4 147//3
f 150//5 153//8 149//5
f 153//8 150//5 154//8
f 155//7 151//4 156//7
f 152//4 156//7 151//4
f 154//8 157//10 153//8
f 157//10 154//8 158//10
f 159//9 155//7 160//9
f 156//7 160//9 155//7
f 158//10 161//12 157//10
f 161//12 158//10 162//12
f 163//11 159//9 164//11
f 160//9 164//11 159//9
f 162//12 165//14 161//12
f 165//14 162//12 166//14
f 167//13 163//11 168//13
f 164//11 168//13 163//11
f 166//14 169//16 165//14
f 169//16 166//14 170//16
f 171//15 167//13 172//15
f 168//13 172//15 167//13
f 173//18 169//16 170//16
f 169//16 173//18 174//18
f 175//17 176//17 172//15
f 171//15 172//15 176//17
f 177//20 174//18 173//18
f 174//18 177//20 178//20
f 179//19 180//19 175//17
f 176//17 175//17 180//19
f 181//22 178//20 177//20
f 178//20 181//22 182//22
f 183//21 184//21 179//19
f 180//19 179//19 184//21
f 185//24 182//22 181//22
f 182//22 185//24 186//24
f 187//23 188//23 183//21
f 184//21 183//21 188//23
f 189//26 186//24 185//24
f 186//24 189//26 190//26
f 191//25 192//25 187//23
f 188//23 187//23 192//25
f 97//3 190//26 189//26
f 190//26 97//3 99//3
f 104//6 102//6 191//25
f 192//25 191//25 102//6
