# SSTK version 0.8.0
# 41
mtllib original-41.mtl
o #ID1027
v -0.205938 0.209902 0.244696
v -0.206544 0.209902 0.258879
v -0.207174 0.209902 0.251748
v -0.204089 0.209902 0.265605
v -0.203993 0.209902 0.251884
v -0.202918 0.209902 0.238204
v -0.202900 0.209902 0.245651
v -0.198321 0.209902 0.232716
v -0.200230 0.209902 0.239913
v -0.196167 0.209902 0.235061
v -0.192460 0.209902 0.228604
v -0.190987 0.209902 0.231427
v -0.185734 0.209902 0.226149
v -0.185042 0.209902 0.229257
v -0.178602 0.209902 0.225518
v -0.178738 0.209902 0.228700
v -0.172505 0.209902 0.229793
v -0.171551 0.209902 0.226755
v -0.166768 0.209902 0.232462
v -0.165059 0.209902 0.229775
v -0.161916 0.209902 0.236526
v -0.159570 0.209902 0.234372
v -0.158282 0.209902 0.241706
v -0.155458 0.209902 0.240233
v -0.156112 0.209902 0.247651
v -0.155555 0.209902 0.253954
v -0.203436 0.209902 0.258187
v -0.199977 0.209902 0.271466
v -0.201266 0.209902 0.264132
v -0.197632 0.209902 0.269312
v -0.194489 0.209902 0.276063
v -0.192780 0.209902 0.273376
v -0.187997 0.209902 0.279083
v -0.187042 0.209902 0.276045
v -0.180945 0.209902 0.280320
v -0.180809 0.209902 0.277138
v -0.173813 0.209902 0.279689
v -0.174505 0.209902 0.276581
v -0.168561 0.209902 0.274411
v -0.167088 0.209902 0.277234
v -0.163380 0.209902 0.270777
v -0.161227 0.209902 0.273123
v -0.159317 0.209902 0.265925
v -0.156630 0.209902 0.267634
v -0.156648 0.209902 0.260187
v -0.153610 0.209902 0.261142
v -0.153003 0.209902 0.246959
v -0.152373 0.209902 0.254090
v -0.152373 0.209902 0.254090
v -0.153003 0.209902 0.246959
v -0.153610 0.209902 0.261142
v -0.155458 0.209902 0.240233
v -0.155555 0.209902 0.253954
v -0.156630 0.209902 0.267634
v -0.156648 0.209902 0.260187
v -0.159317 0.209902 0.265925
v -0.161227 0.209902 0.273123
v -0.163380 0.209902 0.270777
v -0.167088 0.209902 0.277234
v -0.168561 0.209902 0.274411
v -0.173813 0.209902 0.279689
v -0.174505 0.209902 0.276581
v -0.180809 0.209902 0.277138
v -0.180945 0.209902 0.280320
v -0.187042 0.209902 0.276045
v -0.187997 0.209902 0.279083
v -0.192780 0.209902 0.273376
v -0.194489 0.209902 0.276063
v -0.197632 0.209902 0.269312
v -0.199977 0.209902 0.271466
v -0.201266 0.209902 0.264132
v -0.203436 0.209902 0.258187
v -0.203993 0.209902 0.251884
v -0.204089 0.209902 0.265605
v -0.156112 0.209902 0.247651
v -0.158282 0.209902 0.241706
v -0.159570 0.209902 0.234372
v -0.161916 0.209902 0.236526
v -0.165059 0.209902 0.229775
v -0.166768 0.209902 0.232462
v -0.171551 0.209902 0.226755
v -0.172505 0.209902 0.229793
v -0.178602 0.209902 0.225518
v -0.178738 0.209902 0.228700
v -0.185042 0.209902 0.229257
v -0.185734 0.209902 0.226149
v -0.190987 0.209902 0.231427
v -0.192460 0.209902 0.228604
v -0.196167 0.209902 0.235061
v -0.198321 0.209902 0.232716
v -0.200230 0.209902 0.239913
v -0.202900 0.209902 0.245651
v -0.202918 0.209902 0.238204
v -0.205938 0.209902 0.244696
v -0.206544 0.209902 0.258879
v -0.207174 0.209902 0.251748
v -0.204089 0.245925 0.265605
v -0.199977 0.209902 0.271466
v -0.199977 0.245925 0.271466
v -0.204089 0.209902 0.265605
v -0.204089 0.209902 0.265605
v -0.204089 0.245925 0.265605
v -0.199977 0.209902 0.271466
v -0.199977 0.245925 0.271466
v -0.206544 0.245925 0.258879
v -0.206544 0.209902 0.258879
v -0.206544 0.209902 0.258879
v -0.206544 0.245925 0.258879
v -0.207174 0.245925 0.251748
v -0.207174 0.209902 0.251748
v -0.207174 0.209902 0.251748
v -0.207174 0.245925 0.251748
v -0.205938 0.245925 0.244696
v -0.205938 0.209902 0.244696
v -0.205938 0.209902 0.244696
v -0.205938 0.245925 0.244696
v -0.202918 0.245925 0.238204
v -0.202918 0.209902 0.238204
v -0.202918 0.209902 0.238204
v -0.202918 0.245925 0.238204
v -0.198321 0.245925 0.232716
v -0.198321 0.209902 0.232716
v -0.198321 0.209902 0.232716
v -0.198321 0.245925 0.232716
v -0.192460 0.209902 0.228604
v -0.192460 0.245925 0.228604
v -0.192460 0.245925 0.228604
v -0.192460 0.209902 0.228604
v -0.185734 0.209902 0.226149
v -0.185734 0.245925 0.226149
v -0.185734 0.245925 0.226149
v -0.185734 0.209902 0.226149
v -0.178602 0.209902 0.225518
v -0.178602 0.245925 0.225518
v -0.178602 0.245925 0.225518
v -0.178602 0.209902 0.225518
v -0.171551 0.209902 0.226755
v -0.171551 0.245925 0.226755
v -0.171551 0.245925 0.226755
v -0.171551 0.209902 0.226755
v -0.165059 0.209902 0.229775
v -0.165059 0.245925 0.229775
v -0.165059 0.245925 0.229775
v -0.165059 0.209902 0.229775
v -0.159570 0.209902 0.234372
v -0.159570 0.245925 0.234372
v -0.159570 0.245925 0.234372
v -0.159570 0.209902 0.234372
v -0.155458 0.245925 0.240233
v -0.155458 0.209902 0.240233
v -0.155458 0.245925 0.240233
v -0.155458 0.209902 0.240233
v -0.153003 0.245925 0.246959
v -0.153003 0.209902 0.246959
v -0.153003 0.245925 0.246959
v -0.153003 0.209902 0.246959
v -0.152373 0.245925 0.254090
v -0.152373 0.209902 0.254090
v -0.152373 0.245925 0.254090
v -0.152373 0.209902 0.254090
v -0.153610 0.245925 0.261142
v -0.153610 0.209902 0.261142
v -0.153610 0.245925 0.261142
v -0.153610 0.209902 0.261142
v -0.156630 0.245925 0.267634
v -0.156630 0.209902 0.267634
v -0.156630 0.245925 0.267634
v -0.156630 0.209902 0.267634
v -0.161227 0.245925 0.273123
v -0.161227 0.209902 0.273123
v -0.161227 0.245925 0.273123
v -0.161227 0.209902 0.273123
v -0.167088 0.209902 0.277234
v -0.167088 0.245925 0.277234
v -0.167088 0.245925 0.277234
v -0.167088 0.209902 0.277234
v -0.173813 0.209902 0.279689
v -0.173813 0.245925 0.279689
v -0.173813 0.245925 0.279689
v -0.173813 0.209902 0.279689
v -0.180945 0.209902 0.280320
v -0.180945 0.245925 0.280320
v -0.180945 0.245925 0.280320
v -0.180945 0.209902 0.280320
v -0.187997 0.209902 0.279083
v -0.187997 0.245925 0.279083
v -0.187997 0.245925 0.279083
v -0.187997 0.209902 0.279083
v -0.194489 0.209902 0.276063
v -0.194489 0.245925 0.276063
v -0.194489 0.245925 0.276063
v -0.194489 0.209902 0.276063
vn 0 -1 0
vn 0 1 0
vn -0.886590218468326 0 0.4625557096353755
vn -0.7366621993452362 0 0.6762608993989224
vn 0.886590218468326 0 -0.4625557096353755
vn 0.7366621993452362 0 -0.6762608993989224
vn -0.9760986097748613 0 0.21732810217637033
vn 0.9760986097748613 0 -0.21732810217637033
vn -0.9990875069174512 0 -0.04271011029571494
vn 0.9990875069174512 0 0.04271011029571494
vn -0.9539902247859401 0 -0.2998377077901841
vn 0.9539902247859401 0 0.2998377077901841
vn -0.8438801018619161 0 -0.5365318011837904
vn 0.8438801018619161 0 0.5365318011837904
vn -0.6762608993989224 0 -0.7366621993452362
vn 0.6762608993989224 0 0.7366621993452362
vn -0.4625557096353755 0 -0.886590218468326
vn 0.4625557096353755 0 0.886590218468326
vn -0.21732810217637033 0 -0.9760986097748613
vn 0.21732810217637033 0 0.9760986097748613
vn 0.04271011029571494 0 -0.9990875069174512
vn -0.04271011029571494 0 0.9990875069174512
vn 0.2998377077901841 0 -0.9539902247859401
vn -0.2998377077901841 0 0.9539902247859401
vn 0.5365318011837904 0 -0.8438801018619161
vn -0.5365318011837904 0 0.8438801018619161
usemtl material_0_0
f 1//1 2//1 3//1
f 2//1 1//1 4//1
f 4//1 1//1 5//1
f 5//1 1//1 6//1
f 5//1 6//1 7//1
f 7//1 6//1 8//1
f 7//1 8//1 9//1
f 9//1 8//1 10//1
f 10//1 8//1 11//1
f 10//1 11//1 12//1
f 12//1 11//1 13//1
f 12//1 13//1 14//1
f 14//1 13//1 15//1
f 14//1 15//1 16//1
f 16//1 15//1 17//1
f 17//1 15//1 18//1
f 17//1 18//1 19//1
f 19//1 18//1 20//1
f 19//1 20//1 21//1
f 21//1 20//1 22//1
f 21//1 22//1 23//1
f 23//1 22//1 24//1
f 23//1 24//1 25//1
f 25//1 24//1 26//1
f 4//1 27//1 28//1
f 27//1 4//1 5//1
f 28//1 27//1 29//1
f 28//1 29//1 30//1
f 28//1 30//1 31//1
f 31//1 30//1 32//1
f 31//1 32//1 33//1
f 33//1 32//1 34//1
f 33//1 34//1 35//1
f 35//1 34//1 36//1
f 35//1 36//1 37//1
f 37//1 36//1 38//1
f 37//1 38//1 39//1
f 37//1 39//1 40//1
f 40//1 39//1 41//1
f 40//1 41//1 42//1
f 42//1 41//1 43//1
f 42//1 43//1 44//1
f 44//1 43//1 45//1
f 44//1 45//1 26//1
f 44//1 26//1 46//1
f 46//1 26//1 24//1
f 46//1 24//1 47//1
f 46//1 47//1 48//1
f 49//2 50//2 51//2
f 50//2 52//2 51//2
f 52//2 53//2 51//2
f 51//2 53//2 54//2
f 53//2 55//2 54//2
f 55//2 56//2 54//2
f 54//2 56//2 57//2
f 56//2 58//2 57//2
f 57//2 58//2 59//2
f 58//2 60//2 59//2
f 59//2 60//2 61//2
f 60//2 62//2 61//2
f 62//2 63//2 61//2
f 61//2 63//2 64//2
f 63//2 65//2 64//2
f 64//2 65//2 66//2
f 65//2 67//2 66//2
f 66//2 67//2 68//2
f 67//2 69//2 68//2
f 68//2 69//2 70//2
f 69//2 71//2 70//2
f 71//2 72//2 70//2
f 73//2 74//2 72//2
f 70//2 72//2 74//2
f 53//2 52//2 75//2
f 75//2 52//2 76//2
f 52//2 77//2 76//2
f 76//2 77//2 78//2
f 77//2 79//2 78//2
f 78//2 79//2 80//2
f 79//2 81//2 80//2
f 80//2 81//2 82//2
f 81//2 83//2 82//2
f 82//2 83//2 84//2
f 84//2 83//2 85//2
f 83//2 86//2 85//2
f 85//2 86//2 87//2
f 86//2 88//2 87//2
f 87//2 88//2 89//2
f 88//2 90//2 89//2
f 89//2 90//2 91//2
f 91//2 90//2 92//2
f 90//2 93//2 92//2
f 92//2 93//2 73//2
f 93//2 94//2 73//2
f 73//2 94//2 74//2
f 74//2 94//2 95//2
f 96//2 95//2 94//2
f 97//3 98//4 99//4
f 98//4 97//3 100//3
f 101//5 102//5 103//6
f 104//6 103//6 102//5
f 105//7 100//3 97//3
f 100//3 105//7 106//7
f 107//8 108//8 101//5
f 102//5 101//5 108//8
f 109//9 106//7 105//7
f 106//7 109//9 110//9
f 111//10 112//10 107//8
f 108//8 107//8 112//10
f 113//11 110//9 109//9
f 110//9 113//11 114//11
f 115//12 116//12 111//10
f 112//10 111//10 116//12
f 117//13 114//11 113//11
f 114//11 117//13 118//13
f 119//14 120//14 115//12
f 116//12 115//12 120//14
f 121//15 118//13 117//13
f 118//13 121//15 122//15
f 123//16 124//16 119//14
f 120//14 119//14 124//16
f 121//15 125//17 122//15
f 125//17 121//15 126//17
f 127//18 124//16 128//18
f 123//16 128//18 124//16
f 126//17 129//19 125//17
f 129//19 126//17 130//19
f 131//20 127//18 132//20
f 128//18 132//20 127//18
f 130//19 133//21 129//19
f 133//21 130//19 134//21
f 135//22 131//20 136//22
f 132//20 136//22 131//20
f 134//21 137//23 133//21
f 137//23 134//21 138//23
f 139//24 135//22 140//24
f 136//22 140//24 135//22
f 138//23 141//25 137//23
f 141//25 138//23 142//25
f 143//26 139//24 144//26
f 140//24 144//26 139//24
f 142//25 145//6 141//25
f 145//6 142//25 146//6
f 147//4 143//26 148//4
f 144//26 148//4 143//26
f 145//6 149//5 150//5
f 149//5 145//6 146//6
f 147//4 148//4 151//3
f 152//3 151//3 148//4
f 150//5 153//8 154//8
f 153//8 150//5 149//5
f 151//3 152//3 155//7
f 156//7 155//7 152//3
f 154//8 157//10 158//10
f 157//10 154//8 153//8
f 155//7 156//7 159//9
f 160//9 159//9 156//7
f 158//10 161//12 162//12
f 161//12 158//10 157//10
f 159//9 160//9 163//11
f 164//11 163//11 160//9
f 162//12 165//14 166//14
f 165//14 162//12 161//12
f 163//11 164//11 167//13
f 168//13 167//13 164//11
f 166//14 169//16 170//16
f 169//16 166//14 165//14
f 167//13 168//13 171//15
f 172//15 171//15 168//13
f 169//16 173//18 170//16
f 173//18 169//16 174//18
f 175//17 171//15 176//17
f 172//15 176//17 171//15
f 174//18 177//20 173//18
f 177//20 174//18 178//20
f 179//19 175//17 180//19
f 176//17 180//19 175//17
f 178//20 181//22 177//20
f 181//22 178//20 182//22
f 183//21 179//19 184//21
f 180//19 184//21 179//19
f 182//22 185//24 181//22
f 185//24 182//22 186//24
f 187//23 183//21 188//23
f 184//21 188//23 183//21
f 186//24 189//26 185//24
f 189//26 186//24 190//26
f 191//25 187//23 192//25
f 188//23 192//25 187//23
f 190//26 98//4 189//26
f 98//4 190//26 99//4
f 104//6 191//25 103//6
f 192//25 103//6 191//25
