# SSTK version 0.8.0
# 27
mtllib original-27.mtl
o #ID935
v -0.178274 0.263581 0.285490
v -0.202369 0.264292 0.285490
v -0.203638 0.264028 0.285490
v -0.178274 0.274671 0.285490
v -0.201212 0.264875 0.285490
v -0.200246 0.265738 0.285490
v -0.199536 0.266821 0.285490
v -0.199130 0.268052 0.285490
v -0.199056 0.269345 0.285490
v -0.199320 0.270613 0.285490
v -0.199903 0.271770 0.285490
v -0.200766 0.272737 0.285490
v -0.201849 0.273447 0.285490
v -0.203079 0.273853 0.285490
v -0.204373 0.273926 0.285490
v -0.205511 0.278672 0.285490
v -0.213894 0.278669 0.285490
v -0.204227 0.278503 0.285490
v -0.206708 0.279168 0.285490
v -0.207736 0.279956 0.285490
v -0.208525 0.280984 0.285490
v -0.213894 0.288276 0.285490
v -0.209020 0.282181 0.285490
v -0.209189 0.283466 0.285490
v -0.209020 0.284750 0.285490
v -0.208525 0.285947 0.285490
v -0.207736 0.286975 0.285490
v -0.206708 0.287763 0.285490
v -0.205511 0.288259 0.285490
v -0.204227 0.288428 0.285490
v -0.253594 0.288276 0.285490
v -0.265125 0.279096 0.285490
v -0.302839 0.278927 0.285490
v -0.263841 0.278927 0.285490
v -0.301552 0.279078 0.285490
v -0.300348 0.279557 0.285490
v -0.266322 0.279592 0.285490
v -0.299309 0.280331 0.285490
v -0.267350 0.280380 0.285490
v -0.298506 0.281348 0.285490
v -0.268139 0.281408 0.285490
v -0.297994 0.282537 0.285490
v -0.268634 0.282605 0.285490
v -0.297807 0.283819 0.285490
v -0.268804 0.283889 0.285490
v -0.297957 0.285106 0.285490
v -0.268634 0.285174 0.285490
v -0.298436 0.286310 0.285490
v -0.268139 0.286370 0.285490
v -0.299210 0.287348 0.285490
v -0.267350 0.287398 0.285490
v -0.300227 0.288151 0.285490
v -0.266322 0.288187 0.285490
v -0.301417 0.288664 0.285490
v -0.265125 0.288683 0.285490
v -0.302698 0.288851 0.285490
v -0.263841 0.288852 0.285490
v -0.058630 0.069204 0.285490
v -0.129874 0.095810 0.285490
v -0.384290 0.069204 0.285490
v -0.058630 0.317169 0.285490
v -0.129874 0.245925 0.285490
v -0.167184 0.249835 0.285490
v -0.313046 0.245925 0.285490
v -0.167184 0.260925 0.285490
v -0.167184 0.263581 0.285490
v -0.178274 0.260925 0.285490
v -0.167184 0.274671 0.285490
v -0.167184 0.277229 0.285490
v -0.214228 0.274981 0.285490
v -0.253928 0.274981 0.285490
v -0.262557 0.275168 0.285490
v -0.263841 0.275337 0.285490
v -0.302769 0.275337 0.285490
v -0.167184 0.288319 0.285490
v -0.178274 0.288319 0.285490
v -0.262557 0.288683 0.285490
v -0.313046 0.095810 0.285490
v -0.384290 0.317169 0.285490
v -0.305250 0.266077 0.285490
v -0.304053 0.265581 0.285490
v -0.302769 0.265412 0.285490
v -0.178274 0.249835 0.285490
v -0.204931 0.264102 0.285490
v -0.206161 0.264508 0.285490
v -0.207245 0.265218 0.285490
v -0.253928 0.265374 0.285490
v -0.214228 0.265374 0.285490
v -0.263841 0.265412 0.285490
v -0.306278 0.266865 0.285490
v -0.307066 0.267893 0.285490
v -0.307562 0.269090 0.285490
v -0.307731 0.270375 0.285490
v -0.307562 0.271659 0.285490
v -0.307066 0.272856 0.285490
v -0.306278 0.273883 0.285490
v -0.305250 0.274672 0.285490
v -0.304053 0.275168 0.285490
v -0.305310 0.279627 0.285490
v -0.304121 0.279114 0.285490
v -0.178274 0.277229 0.285490
v -0.253594 0.278669 0.285490
v -0.306327 0.280430 0.285490
v -0.307101 0.281469 0.285490
v -0.307580 0.282673 0.285490
v -0.307731 0.283959 0.285490
v -0.307543 0.285241 0.285490
v -0.307031 0.286431 0.285490
v -0.306228 0.287448 0.285490
v -0.305189 0.288222 0.285490
v -0.303985 0.288700 0.285490
v -0.262557 0.279096 0.285490
v -0.261360 0.279592 0.285490
v -0.260332 0.280380 0.285490
v -0.259543 0.281408 0.285490
v -0.259048 0.282605 0.285490
v -0.258878 0.283889 0.285490
v -0.259048 0.285174 0.285490
v -0.259543 0.286370 0.285490
v -0.260332 0.287398 0.285490
v -0.261360 0.288187 0.285490
v -0.202942 0.278672 0.285490
v -0.201746 0.279168 0.285490
v -0.200718 0.279956 0.285490
v -0.199929 0.280984 0.285490
v -0.199434 0.282181 0.285490
v -0.199264 0.283466 0.285490
v -0.199434 0.284750 0.285490
v -0.199929 0.285947 0.285490
v -0.200718 0.286975 0.285490
v -0.201746 0.287763 0.285490
v -0.202942 0.288259 0.285490
v -0.265125 0.265581 0.285490
v -0.301484 0.265581 0.285490
v -0.266322 0.266077 0.285490
v -0.300287 0.266077 0.285490
v -0.267350 0.266865 0.285490
v -0.299260 0.266865 0.285490
v -0.268139 0.267893 0.285490
v -0.298471 0.267893 0.285490
v -0.268634 0.269090 0.285490
v -0.297975 0.269090 0.285490
v -0.268804 0.270375 0.285490
v -0.297806 0.270375 0.285490
v -0.268634 0.271659 0.285490
v -0.297975 0.271659 0.285490
v -0.268139 0.272856 0.285490
v -0.298471 0.272856 0.285490
v -0.267350 0.273883 0.285490
v -0.299260 0.273883 0.285490
v -0.266322 0.274672 0.285490
v -0.300287 0.274672 0.285490
v -0.265125 0.275168 0.285490
v -0.301484 0.275168 0.285490
v -0.262557 0.265581 0.285490
v -0.261360 0.266077 0.285490
v -0.260332 0.266865 0.285490
v -0.259543 0.267893 0.285490
v -0.259048 0.269090 0.285490
v -0.258878 0.270375 0.285490
v -0.259048 0.271659 0.285490
v -0.259543 0.272856 0.285490
v -0.260332 0.273883 0.285490
v -0.261360 0.274672 0.285490
v -0.208107 0.266185 0.285490
v -0.208690 0.267341 0.285490
v -0.208954 0.268610 0.285490
v -0.208881 0.269903 0.285490
v -0.208475 0.271133 0.285490
v -0.207764 0.272217 0.285490
v -0.206798 0.273079 0.285490
v -0.205641 0.273663 0.285490
vn 0 0 1
vn 0 0 -1
usemtl material_0_2
f 1//1 2//1 3//1
f 3//2 2//2 1//2
f 2//1 1//1 4//1
f 4//2 1//2 2//2
f 2//1 4//1 5//1
f 5//2 4//2 2//2
f 5//1 4//1 6//1
f 6//2 4//2 5//2
f 6//1 4//1 7//1
f 7//2 4//2 6//2
f 7//1 4//1 8//1
f 8//2 4//2 7//2
f 8//1 4//1 9//1
f 9//2 4//2 8//2
f 9//1 4//1 10//1
f 10//2 4//2 9//2
f 10//1 4//1 11//1
f 11//2 4//2 10//2
f 11//1 4//1 12//1
f 12//2 4//2 11//2
f 12//1 4//1 13//1
f 13//2 4//2 12//2
f 13//1 4//1 14//1
f 14//2 4//2 13//2
f 14//1 4//1 15//1
f 15//2 4//2 14//2
f 16//1 17//1 18//1
f 18//2 17//2 16//2
f 17//1 16//1 19//1
f 19//2 16//2 17//2
f 17//1 19//1 20//1
f 20//2 19//2 17//2
f 17//1 20//1 21//1
f 21//2 20//2 17//2
f 17//1 21//1 22//1
f 22//2 21//2 17//2
f 22//1 21//1 23//1
f 23//2 21//2 22//2
f 22//1 23//1 24//1
f 24//2 23//2 22//2
f 22//1 24//1 25//1
f 25//2 24//2 22//2
f 22//1 25//1 26//1
f 26//2 25//2 22//2
f 22//1 26//1 27//1
f 27//2 26//2 22//2
f 22//1 27//1 28//1
f 28//2 27//2 22//2
f 22//1 28//1 29//1
f 29//2 28//2 22//2
f 22//1 29//1 30//1
f 30//2 29//2 22//2
f 22//1 30//1 31//1
f 31//2 30//2 22//2
f 32//1 33//1 34//1
f 34//2 33//2 32//2
f 33//1 32//1 35//1
f 35//2 32//2 33//2
f 35//1 32//1 36//1
f 36//2 32//2 35//2
f 36//1 32//1 37//1
f 37//2 32//2 36//2
f 36//1 37//1 38//1
f 38//2 37//2 36//2
f 38//1 37//1 39//1
f 39//2 37//2 38//2
f 38//1 39//1 40//1
f 40//2 39//2 38//2
f 40//1 39//1 41//1
f 41//2 39//2 40//2
f 40//1 41//1 42//1
f 42//2 41//2 40//2
f 42//1 41//1 43//1
f 43//2 41//2 42//2
f 42//1 43//1 44//1
f 44//2 43//2 42//2
f 44//1 43//1 45//1
f 45//2 43//2 44//2
f 44//1 45//1 46//1
f 46//2 45//2 44//2
f 46//1 45//1 47//1
f 47//2 45//2 46//2
f 46//1 47//1 48//1
f 48//2 47//2 46//2
f 48//1 47//1 49//1
f 49//2 47//2 48//2
f 48//1 49//1 50//1
f 50//2 49//2 48//2
f 50//1 49//1 51//1
f 51//2 49//2 50//2
f 50//1 51//1 52//1
f 52//2 51//2 50//2
f 52//1 51//1 53//1
f 53//2 51//2 52//2
f 52//1 53//1 54//1
f 54//2 53//2 52//2
f 54//1 53//1 55//1
f 55//2 53//2 54//2
f 54//1 55//1 56//1
f 56//2 55//2 54//2
f 56//1 55//1 57//1
f 57//2 55//2 56//2
f 58//1 59//1 60//1
f 60//2 59//2 58//2
f 59//1 58//1 61//1
f 61//2 58//2 59//2
f 59//1 61//1 62//1
f 62//2 61//2 59//2
f 62//1 61//1 63//1
f 63//2 61//2 62//2
f 62//1 63//1 64//1
f 64//2 63//2 62//2
f 63//1 61//1 65//1
f 65//2 61//2 63//2
f 65//1 61//1 66//1
f 66//2 61//2 65//2
f 65//1 66//1 67//1
f 67//2 66//2 65//2
f 66//1 61//1 68//1
f 68//2 61//2 66//2
f 68//1 61//1 69//1
f 69//2 61//2 68//2
f 68//1 69//1 4//1
f 4//2 69//2 68//2
f 4//1 69//1 70//1
f 70//2 69//2 4//2
f 70//1 69//1 71//1
f 71//2 69//2 70//2
f 71//1 69//1 72//1
f 72//2 69//2 71//2
f 72//1 69//1 73//1
f 73//2 69//2 72//2
f 73//1 69//1 74//1
f 74//2 69//2 73//2
f 69//1 61//1 75//1
f 75//2 61//2 69//2
f 75//1 61//1 76//1
f 76//2 61//2 75//2
f 76//1 61//1 30//1
f 30//2 61//2 76//2
f 30//1 61//1 77//1
f 77//2 61//2 30//2
f 77//1 61//1 57//1
f 57//2 61//2 77//2
f 60//1 78//1 79//1
f 79//2 78//2 60//2
f 78//1 60//1 59//1
f 59//2 60//2 78//2
f 79//1 78//1 64//1
f 64//2 78//2 79//2
f 79//1 64//1 80//1
f 80//2 64//2 79//2
f 80//1 64//1 81//1
f 81//2 64//2 80//2
f 81//1 64//1 82//1
f 82//2 64//2 81//2
f 82//1 64//1 83//1
f 83//2 64//2 82//2
f 83//1 64//1 63//1
f 63//2 64//2 83//2
f 82//1 83//1 67//1
f 67//2 83//2 82//2
f 82//1 67//1 1//1
f 1//2 67//2 82//2
f 1//1 67//1 66//1
f 66//2 67//2 1//2
f 82//1 1//1 3//1
f 3//2 1//2 82//2
f 82//1 3//1 84//1
f 84//2 3//2 82//2
f 82//1 84//1 85//1
f 85//2 84//2 82//2
f 82//1 85//1 86//1
f 86//2 85//2 82//2
f 82//1 86//1 87//1
f 87//2 86//2 82//2
f 87//1 86//1 88//1
f 88//2 86//2 87//2
f 82//1 87//1 89//1
f 89//2 87//2 82//2
f 79//1 80//1 90//1
f 90//2 80//2 79//2
f 79//1 90//1 91//1
f 91//2 90//2 79//2
f 79//1 91//1 92//1
f 92//2 91//2 79//2
f 79//1 92//1 93//1
f 93//2 92//2 79//2
f 79//1 93//1 94//1
f 94//2 93//2 79//2
f 79//1 94//1 95//1
f 95//2 94//2 79//2
f 79//1 95//1 96//1
f 96//2 95//2 79//2
f 79//1 96//1 97//1
f 97//2 96//2 79//2
f 79//1 97//1 98//1
f 98//2 97//2 79//2
f 79//1 98//1 74//1
f 74//2 98//2 79//2
f 79//1 74//1 99//1
f 99//2 74//2 79//2
f 99//1 74//1 100//1
f 100//2 74//2 99//2
f 100//1 74//1 33//1
f 33//2 74//2 100//2
f 33//1 74//1 101//1
f 101//2 74//2 33//2
f 101//1 74//1 69//1
f 69//2 74//2 101//2
f 33//1 101//1 102//1
f 102//2 101//2 33//2
f 102//1 101//1 18//1
f 18//2 101//2 102//2
f 102//1 18//1 17//1
f 17//2 18//2 102//2
f 33//1 102//1 34//1
f 34//2 102//2 33//2
f 79//1 99//1 103//1
f 103//2 99//2 79//2
f 79//1 103//1 104//1
f 104//2 103//2 79//2
f 79//1 104//1 105//1
f 105//2 104//2 79//2
f 79//1 105//1 106//1
f 106//2 105//2 79//2
f 79//1 106//1 107//1
f 107//2 106//2 79//2
f 79//1 107//1 108//1
f 108//2 107//2 79//2
f 79//1 108//1 109//1
f 109//2 108//2 79//2
f 79//1 109//1 110//1
f 110//2 109//2 79//2
f 79//1 110//1 111//1
f 111//2 110//2 79//2
f 79//1 111//1 56//1
f 56//2 111//2 79//2
f 79//1 56//1 57//1
f 57//2 56//2 79//2
f 79//1 57//1 61//1
f 61//2 57//2 79//2
f 102//1 112//1 34//1
f 34//2 112//2 102//2
f 112//1 102//1 113//1
f 113//2 102//2 112//2
f 113//1 102//1 114//1
f 114//2 102//2 113//2
f 114//1 102//1 31//1
f 31//2 102//2 114//2
f 114//1 31//1 115//1
f 115//2 31//2 114//2
f 115//1 31//1 116//1
f 116//2 31//2 115//2
f 116//1 31//1 117//1
f 117//2 31//2 116//2
f 117//1 31//1 118//1
f 118//2 31//2 117//2
f 118//1 31//1 119//1
f 119//2 31//2 118//2
f 119//1 31//1 120//1
f 120//2 31//2 119//2
f 120//1 31//1 121//1
f 121//2 31//2 120//2
f 121//1 31//1 77//1
f 77//2 31//2 121//2
f 77//1 31//1 30//1
f 30//2 31//2 77//2
f 101//1 122//1 18//1
f 18//2 122//2 101//2
f 122//1 101//1 76//1
f 76//2 101//2 122//2
f 122//1 76//1 123//1
f 123//2 76//2 122//2
f 123//1 76//1 124//1
f 124//2 76//2 123//2
f 124//1 76//1 125//1
f 125//2 76//2 124//2
f 125//1 76//1 126//1
f 126//2 76//2 125//2
f 126//1 76//1 127//1
f 127//2 76//2 126//2
f 127//1 76//1 128//1
f 128//2 76//2 127//2
f 128//1 76//1 129//1
f 129//2 76//2 128//2
f 129//1 76//1 130//1
f 130//2 76//2 129//2
f 130//1 76//1 131//1
f 131//2 76//2 130//2
f 131//1 76//1 132//1
f 132//2 76//2 131//2
f 132//1 76//1 30//1
f 30//2 76//2 132//2
f 133//1 82//1 89//1
f 89//2 82//2 133//2
f 82//1 133//1 134//1
f 134//2 133//2 82//2
f 134//1 133//1 135//1
f 135//2 133//2 134//2
f 134//1 135//1 136//1
f 136//2 135//2 134//2
f 136//1 135//1 137//1
f 137//2 135//2 136//2
f 136//1 137//1 138//1
f 138//2 137//2 136//2
f 138//1 137//1 139//1
f 139//2 137//2 138//2
f 138//1 139//1 140//1
f 140//2 139//2 138//2
f 140//1 139//1 141//1
f 141//2 139//2 140//2
f 140//1 141//1 142//1
f 142//2 141//2 140//2
f 142//1 141//1 143//1
f 143//2 141//2 142//2
f 142//1 143//1 144//1
f 144//2 143//2 142//2
f 144//1 143//1 145//1
f 145//2 143//2 144//2
f 144//1 145//1 146//1
f 146//2 145//2 144//2
f 146//1 145//1 147//1
f 147//2 145//2 146//2
f 146//1 147//1 148//1
f 148//2 147//2 146//2
f 148//1 147//1 149//1
f 149//2 147//2 148//2
f 148//1 149//1 150//1
f 150//2 149//2 148//2
f 150//1 149//1 151//1
f 151//2 149//2 150//2
f 150//1 151//1 152//1
f 152//2 151//2 150//2
f 152//1 151//1 153//1
f 153//2 151//2 152//2
f 152//1 153//1 154//1
f 154//2 153//2 152//2
f 154//1 153//1 73//1
f 73//2 153//2 154//2
f 154//1 73//1 74//1
f 74//2 73//2 154//2
f 87//1 155//1 89//1
f 89//2 155//2 87//2
f 155//1 87//1 156//1
f 156//2 87//2 155//2
f 156//1 87//1 157//1
f 157//2 87//2 156//2
f 157//1 87//1 71//1
f 71//2 87//2 157//2
f 157//1 71//1 158//1
f 158//2 71//2 157//2
f 158//1 71//1 159//1
f 159//2 71//2 158//2
f 159//1 71//1 160//1
f 160//2 71//2 159//2
f 160//1 71//1 161//1
f 161//2 71//2 160//2
f 161//1 71//1 162//1
f 162//2 71//2 161//2
f 162//1 71//1 163//1
f 163//2 71//2 162//2
f 163//1 71//1 164//1
f 164//2 71//2 163//2
f 164//1 71//1 72//1
f 72//2 71//2 164//2
f 165//1 88//1 86//1
f 86//2 88//2 165//2
f 88//1 165//1 70//1
f 70//2 165//2 88//2
f 70//1 165//1 166//1
f 166//2 165//2 70//2
f 70//1 166//1 167//1
f 167//2 166//2 70//2
f 70//1 167//1 168//1
f 168//2 167//2 70//2
f 70//1 168//1 169//1
f 169//2 168//2 70//2
f 70//1 169//1 170//1
f 170//2 169//2 70//2
f 70//1 170//1 171//1
f 171//2 170//2 70//2
f 70//1 171//1 172//1
f 172//2 171//2 70//2
f 70//1 172//1 15//1
f 15//2 172//2 70//2
f 70//1 15//1 4//1
f 4//2 15//2 70//2
