# SSTK version 0.8.0
# 20
mtllib original-20.mtl
o #ID887
v -0.262557 0.279096 0.285490
v -0.265125 0.279096 0.285490
v -0.263841 0.278927 0.285490
v -0.261360 0.279592 0.285490
v -0.266322 0.279592 0.285490
v -0.260332 0.280380 0.285490
v -0.267350 0.280380 0.285490
v -0.259543 0.281408 0.285490
v -0.268139 0.281408 0.285490
v -0.259048 0.282605 0.285490
v -0.268634 0.282605 0.285490
v -0.258878 0.283889 0.285490
v -0.268804 0.283889 0.285490
v -0.259048 0.285174 0.285490
v -0.268634 0.285174 0.285490
v -0.259543 0.286370 0.285490
v -0.268139 0.286370 0.285490
v -0.260332 0.287398 0.285490
v -0.267350 0.287398 0.285490
v -0.261360 0.288187 0.285490
v -0.266322 0.288187 0.285490
v -0.262557 0.288683 0.285490
v -0.265125 0.288683 0.285490
v -0.263841 0.288852 0.285490
vn 0 0 1
vn 0 0 -1
usemtl material_0_2
f 1//1 2//1 3//1
f 3//2 2//2 1//2
f 2//1 1//1 4//1
f 4//2 1//2 2//2
f 2//1 4//1 5//1
f 5//2 4//2 2//2
f 5//1 4//1 6//1
f 6//2 4//2 5//2
f 5//1 6//1 7//1
f 7//2 6//2 5//2
f 7//1 6//1 8//1
f 8//2 6//2 7//2
f 7//1 8//1 9//1
f 9//2 8//2 7//2
f 9//1 8//1 10//1
f 10//2 8//2 9//2
f 9//1 10//1 11//1
f 11//2 10//2 9//2
f 11//1 10//1 12//1
f 12//2 10//2 11//2
f 11//1 12//1 13//1
f 13//2 12//2 11//2
f 13//1 12//1 14//1
f 14//2 12//2 13//2
f 13//1 14//1 15//1
f 15//2 14//2 13//2
f 15//1 14//1 16//1
f 16//2 14//2 15//2
f 15//1 16//1 17//1
f 17//2 16//2 15//2
f 17//1 16//1 18//1
f 18//2 16//2 17//2
f 17//1 18//1 19//1
f 19//2 18//2 17//2
f 19//1 18//1 20//1
f 20//2 18//2 19//2
f 19//1 20//1 21//1
f 21//2 20//2 19//2
f 21//1 20//1 22//1
f 22//2 20//2 21//2
f 21//1 22//1 23//1
f 23//2 22//2 21//2
f 23//1 22//1 24//1
f 24//2 22//2 23//2
