# SSTK version 0.8.0
# 5
mtllib original-5.mtl
o #ID770
v 0.419363 -0.787142 0.240489
v 0.421932 0.877707 0.240827
v 0.421932 -0.789711 0.240827
v 0.419363 0.875138 0.240489
v 0.015002 0.877707 0.240827
v 0.419363 0.875138 0.240489
v 0.017571 0.875138 0.240489
v 0.421932 0.877707 0.240827
v 0.017571 -0.787142 0.240489
v 0.421932 -0.789711 0.240827
v 0.015002 -0.789711 0.240827
v 0.419363 -0.787142 0.240489
v 0.416969 -0.784748 0.239498
v 0.416969 0.872744 0.239498
v 0.015002 0.877707 0.240827
v 0.017571 -0.787142 0.240489
v 0.015002 -0.789711 0.240827
v 0.017571 0.875138 0.240489
v 0.416969 0.872744 0.239498
v 0.019965 0.872744 0.239498
v 0.019965 -0.784748 0.239498
v 0.416969 -0.784748 0.239498
v 0.414914 -0.782693 0.237920
v 0.414914 0.870689 0.237920
v 0.019965 -0.784748 0.239498
v 0.019965 0.872744 0.239498
v 0.414914 0.870689 0.237920
v 0.022020 0.870689 0.237920
v 0.022020 -0.782693 0.237920
v 0.414914 -0.782693 0.237920
v 0.413336 -0.781116 0.235865
v 0.413336 0.869112 0.235865
v 0.022020 -0.782693 0.237920
v 0.022020 0.870689 0.237920
v 0.023598 0.869112 0.235865
v 0.413336 0.869112 0.235865
v 0.023598 -0.781116 0.235865
v 0.413336 -0.781116 0.235865
v 0.412345 -0.780124 0.233471
v 0.412345 0.868120 0.233471
v 0.023598 0.869112 0.235865
v 0.023598 -0.781116 0.235865
v 0.024589 0.868120 0.233471
v 0.412345 0.868120 0.233471
v 0.024589 -0.780124 0.233471
v 0.412345 -0.780124 0.233471
v 0.412006 -0.779786 0.230902
v 0.412006 0.867782 0.230902
v 0.024589 0.868120 0.233471
v 0.024589 -0.780124 0.233471
v 0.024927 0.867782 0.230902
v 0.412006 0.867782 0.230902
v 0.024927 -0.779786 0.230902
v 0.412006 -0.779786 0.230902
v 0.412345 -0.780124 0.228333
v 0.412345 0.868120 0.228333
v 0.024927 0.867782 0.230902
v 0.024927 -0.779786 0.230902
v 0.412345 0.868120 0.228333
v 0.024589 0.868120 0.228333
v 0.412345 -0.780124 0.228333
v 0.024589 -0.780124 0.228333
v 0.413336 -0.781116 0.225940
v 0.413336 0.869112 0.225940
v 0.024589 0.868120 0.228333
v 0.024589 -0.780124 0.228333
v 0.413336 0.869112 0.225940
v 0.023598 0.869112 0.225940
v 0.413336 -0.781116 0.225940
v 0.023598 -0.781116 0.225940
v 0.414914 -0.782693 0.223884
v 0.414914 0.870689 0.223884
v 0.023598 0.869112 0.225940
v 0.023598 -0.781116 0.225940
v 0.414914 0.870689 0.223884
v 0.022020 0.870689 0.223884
v 0.414914 -0.782693 0.223884
v 0.022020 -0.782693 0.223884
v 0.416969 0.872744 0.222307
v 0.416969 -0.784748 0.222307
v 0.022020 0.870689 0.223884
v 0.022020 -0.782693 0.223884
v 0.416969 0.872744 0.222307
v 0.019965 0.872744 0.222307
v 0.019965 -0.784748 0.222307
v 0.416969 -0.784748 0.222307
v 0.419363 0.875138 0.221315
v 0.419363 -0.787142 0.221315
v 0.019965 0.872744 0.222307
v 0.019965 -0.784748 0.222307
v 0.419363 0.875138 0.221315
v 0.017571 0.875138 0.221315
v 0.017571 -0.787142 0.221315
v 0.419363 -0.787142 0.221315
v 0.421932 0.877707 0.220977
v 0.421932 -0.789711 0.220977
v 0.017571 0.875138 0.221315
v 0.017571 -0.787142 0.221315
v 0.421932 0.877707 0.220977
v 0.015002 0.877707 0.220977
v 0.015002 -0.789711 0.220977
v 0.421932 -0.789711 0.220977
v 0.015002 0.877707 0.220977
v 0.015002 -0.789711 0.220977
v 0.421932 -0.789711 0.230902
v 0.015002 -0.789711 0.220977
v 0.015002 -0.789711 0.230902
v 0.421932 -0.789711 0.220977
v 0.015002 -0.789711 0.220977
v 0.015002 -0.849144 0.230902
v 0.015002 -0.789711 0.230902
v 0.015002 -0.849144 0.220977
v 0.421932 -0.849144 0.230902
v 0.412006 -0.839218 0.230902
v 0.015002 -0.849144 0.230902
v 0.421932 -0.789711 0.230902
v 0.412006 -0.799636 0.230902
v 0.024927 -0.799636 0.230902
v 0.024927 -0.839218 0.230902
v 0.015002 -0.789711 0.230902
v 0.421932 -0.849144 0.220977
v 0.421932 -0.789711 0.230902
v 0.421932 -0.849144 0.230902
v 0.421932 -0.789711 0.220977
vn 0.19730160721389936 0 -0.9803428358440798
vn 0.1305261948688555 0 -0.9914448610250887
vn -0.19730160721389936 0 0.9803428358440798
vn -0.1305261948688555 0 0.9914448610250887
vn 0 0.13052619486885572 -0.9914448610250887
vn 0 0.19730160721389958 -0.9803428358440798
vn 0 -0.13052619486885572 0.9914448610250887
vn 0 -0.19730160721389958 0.9803428358440798
vn 0 -0.19730160721389914 -0.9803428358440798
vn 0 -0.13052619486885528 -0.9914448610250887
vn 0 0.19730160721389914 0.9803428358440798
vn 0 0.13052619486885528 0.9914448610250887
vn 0.4490389831453581 0 -0.8935121664620931
vn -0.4490389831453581 0 0.8935121664620931
vn -0.1305261948688555 0 -0.9914448610250887
vn -0.19730160721389936 0 -0.9803428358440798
vn 0.1305261948688555 0 0.9914448610250887
vn 0.19730160721389936 0 0.9803428358440798
vn 0 0.44903898314535834 -0.893512166462093
vn 0 -0.44903898314535834 0.893512166462093
vn 0 -0.4490389831453579 -0.8935121664620932
vn 0 0.4490389831453579 0.8935121664620932
vn 0.6715887871571238 0 -0.7409240858312162
vn -0.6715887871571238 0 0.7409240858312162
vn -0.4490389831453581 0 -0.8935121664620931
vn 0.4490389831453581 0 0.8935121664620931
vn 0 0.6715887871571239 -0.740924085831216
vn 0 -0.6715887871571239 0.740924085831216
vn 0 -0.6715887871571237 -0.7409240858312163
vn 0 0.6715887871571237 0.7409240858312163
vn 0.8473991564175846 0 -0.5309563726924896
vn -0.8473991564175846 0 0.5309563726924896
vn -0.6715887871571238 0 -0.7409240858312162
vn 0.6715887871571238 0 0.7409240858312162
vn 0 0.8473991564175847 -0.5309563726924894
vn 0 -0.8473991564175847 0.5309563726924894
vn 0 -0.8473991564175845 -0.5309563726924899
vn 0 0.8473991564175845 0.5309563726924899
vn 0.9607497821353382 0 -0.27741639484158087
vn -0.9607497821353382 0 0.27741639484158087
vn -0.8473991564175846 0 -0.5309563726924896
vn 0.8473991564175846 0 0.5309563726924896
vn 0 0.9607497821353383 -0.27741639484158065
vn 0 -0.9607497821353383 0.27741639484158065
vn 0 -0.9607497821353383 -0.27741639484158115
vn 0 0.9607497821353383 0.27741639484158115
vn 1 0 0
vn -1 0 0
vn -0.9607497821353382 0 -0.27741639484158087
vn 0.9607497821353382 0 0.27741639484158087
vn 0 1 0
vn 0 -1 0
vn 0 0 1
vn 0 0 -1
usemtl material_0_2
f 1//1 2//2 3//2
f 3//4 2//4 1//3
f 2//2 1//1 4//1
f 4//3 1//3 2//4
f 5//5 6//6 7//6
f 7//8 6//8 5//7
f 6//6 5//5 8//5
f 8//7 5//7 6//8
f 9//9 10//10 11//10
f 11//12 10//12 9//11
f 10//10 9//9 12//9
f 12//11 9//11 10//12
f 13//13 4//1 1//1
f 1//3 4//3 13//14
f 4//1 13//13 14//13
f 14//14 13//14 4//3
f 15//15 16//16 17//15
f 17//17 16//18 15//17
f 16//16 15//15 18//16
f 18//18 15//17 16//18
f 7//6 19//19 20//19
f 20//20 19//20 7//8
f 19//19 7//6 6//6
f 6//8 7//8 19//20
f 21//21 12//9 9//9
f 9//11 12//11 21//22
f 12//9 21//21 22//21
f 22//22 21//22 12//11
f 23//23 14//13 13//13
f 13//14 14//14 23//24
f 14//13 23//23 24//23
f 24//24 23//24 14//14
f 18//16 25//25 16//16
f 16//18 25//26 18//18
f 25//25 18//16 26//25
f 26//26 18//18 25//26
f 20//19 27//27 28//27
f 28//28 27//28 20//20
f 27//27 20//19 19//19
f 19//20 20//20 27//28
f 29//29 22//21 21//21
f 21//22 22//22 29//30
f 22//21 29//29 30//29
f 30//30 29//30 22//22
f 31//31 24//23 23//23
f 23//24 24//24 31//32
f 24//23 31//31 32//31
f 32//32 31//32 24//24
f 26//25 33//33 25//25
f 25//26 33//34 26//26
f 33//33 26//25 34//33
f 34//34 26//26 33//34
f 27//27 35//35 28//27
f 28//28 35//36 27//28
f 35//35 27//27 36//35
f 36//36 27//28 35//36
f 37//37 30//29 29//29
f 29//30 30//30 37//38
f 30//29 37//37 38//37
f 38//38 37//38 30//30
f 39//39 32//31 31//31
f 31//32 32//32 39//40
f 32//31 39//39 40//39
f 40//40 39//40 32//32
f 41//41 33//33 34//33
f 34//34 33//34 41//42
f 33//33 41//41 42//41
f 42//42 41//42 33//34
f 36//35 43//43 35//35
f 35//36 43//44 36//36
f 43//43 36//35 44//43
f 44//44 36//36 43//44
f 45//45 38//37 37//37
f 37//38 38//38 45//46
f 38//37 45//45 46//45
f 46//46 45//46 38//38
f 47//47 40//39 39//39
f 39//40 40//40 47//48
f 40//39 47//47 48//47
f 48//48 47//48 40//40
f 49//49 42//41 41//41
f 41//42 42//42 49//50
f 42//41 49//49 50//49
f 50//50 49//50 42//42
f 44//43 51//51 43//43
f 43//44 51//52 44//44
f 51//51 44//43 52//51
f 52//52 44//44 51//52
f 53//52 46//45 45//45
f 45//46 46//46 53//51
f 46//45 53//52 54//52
f 54//51 53//51 46//46
f 55//50 48//47 47//47
f 47//48 48//48 55//49
f 48//47 55//50 56//50
f 56//49 55//49 48//48
f 57//48 50//49 49//49
f 49//50 50//50 57//47
f 50//49 57//48 58//48
f 58//47 57//47 50//50
f 51//51 59//46 60//46
f 60//45 59//45 51//52
f 59//46 51//51 52//51
f 52//52 51//52 59//45
f 61//44 53//52 62//44
f 62//43 53//51 61//43
f 53//52 61//44 54//52
f 54//51 61//43 53//51
f 63//42 56//50 55//50
f 55//49 56//49 63//41
f 56//50 63//42 64//42
f 64//41 63//41 56//49
f 65//40 58//48 57//48
f 57//47 58//47 65//39
f 58//48 65//40 66//40
f 66//39 65//39 58//47
f 60//46 67//38 68//38
f 68//37 67//37 60//45
f 67//38 60//46 59//46
f 59//45 60//45 67//37
f 69//36 62//44 70//36
f 70//35 62//43 69//35
f 62//44 69//36 61//44
f 61//43 69//35 62//43
f 71//34 64//42 63//42
f 63//41 64//41 71//33
f 64//42 71//34 72//34
f 72//33 71//33 64//41
f 73//32 66//40 65//40
f 65//39 66//39 73//31
f 66//40 73//32 74//32
f 74//31 73//31 66//39
f 68//38 75//30 76//30
f 76//29 75//29 68//37
f 75//30 68//38 67//38
f 67//37 68//37 75//29
f 77//28 70//36 78//28
f 78//27 70//35 77//27
f 70//36 77//28 69//36
f 69//35 77//27 70//35
f 79//26 71//34 80//26
f 80//25 71//33 79//25
f 71//34 79//26 72//34
f 72//33 79//25 71//33
f 81//24 74//32 73//32
f 73//31 74//31 81//23
f 74//32 81//24 82//24
f 82//23 81//23 74//31
f 83//22 76//30 75//30
f 75//29 76//29 83//21
f 76//30 83//22 84//22
f 84//21 83//21 76//29
f 77//28 85//20 86//20
f 86//19 85//19 77//27
f 85//20 77//28 78//28
f 78//27 77//27 85//19
f 87//18 80//26 88//18
f 88//16 80//25 87//16
f 80//26 87//18 79//26
f 79//25 87//16 80//25
f 82//24 89//14 90//14
f 90//13 89//13 82//23
f 89//14 82//24 81//24
f 81//23 82//23 89//13
f 91//11 84//22 83//22
f 83//21 84//21 91//9
f 84//22 91//11 92//11
f 92//9 91//9 84//21
f 86//20 93//8 94//8
f 94//6 93//6 86//19
f 93//8 86//20 85//20
f 85//19 86//19 93//6
f 95//17 88//18 96//17
f 96//15 88//16 95//15
f 88//18 95//17 87//18
f 87//16 95//15 88//16
f 90//14 97//3 98//3
f 98//1 97//1 90//13
f 97//3 90//14 89//14
f 89//13 90//13 97//1
f 99//12 92//11 91//11
f 91//9 92//9 99//10
f 92//11 99//12 100//12
f 100//10 99//10 92//9
f 94//8 101//7 102//7
f 102//5 101//5 94//6
f 101//7 94//8 93//8
f 93//6 94//6 101//5
f 98//3 103//4 104//4
f 104//2 103//2 98//1
f 103//4 98//3 97//3
f 97//1 98//1 103//2
f 105//51 106//51 107//51
f 107//52 106//52 105//52
f 106//51 105//51 108//51
f 108//52 105//52 106//52
f 109//48 110//48 111//48
f 111//47 110//47 109//47
f 110//48 109//48 112//48
f 112//47 109//47 110//47
f 113//53 114//53 115//53
f 115//54 114//54 113//54
f 114//53 113//53 116//53
f 116//54 113//54 114//54
f 114//53 116//53 117//53
f 117//54 116//54 114//54
f 117//53 116//53 118//53
f 118//54 116//54 117//54
f 115//53 119//53 120//53
f 120//54 119//54 115//54
f 119//53 115//53 114//53
f 114//54 115//54 119//54
f 120//53 119//53 118//53
f 118//54 119//54 120//54
f 120//53 118//53 116//53
f 116//54 118//54 120//54
f 121//47 122//47 123//47
f 123//48 122//48 121//48
f 122//47 121//47 124//47
f 124//48 121//48 122//48
