# SSTK version 0.8.0
# 16
mtllib original-16.mtl
o #ID857
v -0.202817 0.205128 0.220977
v -0.235105 0.144335 0.220977
v -0.202817 0.144335 0.220977
v -0.235105 0.203697 0.220977
v -0.282303 0.203697 0.220977
v -0.129874 0.095810 0.220977
v -0.156531 0.144335 0.220977
v -0.313046 0.095810 0.220977
v -0.129874 0.245925 0.220977
v -0.156531 0.205128 0.220977
v -0.282303 0.144335 0.220977
v -0.313046 0.245925 0.220977
v -0.313046 0.245925 0.220977
v -0.262501 0.245925 0.239540
v -0.313046 0.245925 0.285490
v -0.261473 0.245925 0.238751
v -0.260276 0.245925 0.238256
v -0.185734 0.245925 0.226149
v -0.129874 0.245925 0.220977
v -0.263289 0.245925 0.240568
v -0.263785 0.245925 0.241765
v -0.263954 0.245925 0.243049
v -0.258992 0.245925 0.238087
v -0.257707 0.245925 0.238256
v -0.256510 0.245925 0.238751
v -0.255483 0.245925 0.239540
v -0.254694 0.245925 0.240568
v -0.254198 0.245925 0.241765
v -0.254029 0.245925 0.243049
v -0.192460 0.245925 0.228604
v -0.198321 0.245925 0.232716
v -0.202918 0.245925 0.238204
v -0.205938 0.245925 0.244696
v -0.207174 0.245925 0.251748
v -0.178602 0.245925 0.225518
v -0.171551 0.245925 0.226755
v -0.165059 0.245925 0.229775
v -0.159570 0.245925 0.234372
v -0.155458 0.245925 0.240233
v -0.153003 0.245925 0.246959
v -0.152373 0.245925 0.254090
v -0.180945 0.245925 0.280320
v -0.129874 0.245925 0.285490
v -0.187997 0.245925 0.279083
v -0.261473 0.245925 0.247347
v -0.262501 0.245925 0.246558
v -0.263289 0.245925 0.245530
v -0.263785 0.245925 0.244334
v -0.260276 0.245925 0.247843
v -0.258992 0.245925 0.248012
v -0.257707 0.245925 0.247843
v -0.256510 0.245925 0.247347
v -0.194489 0.245925 0.276063
v -0.255483 0.245925 0.246558
v -0.254694 0.245925 0.245530
v -0.254198 0.245925 0.244334
v -0.199977 0.245925 0.271466
v -0.204089 0.245925 0.265605
v -0.206544 0.245925 0.258879
v -0.173813 0.245925 0.279689
v -0.167088 0.245925 0.277234
v -0.161227 0.245925 0.273123
v -0.156630 0.245925 0.267634
v -0.153610 0.245925 0.261142
v -0.313046 0.095810 0.220977
v -0.313046 0.245925 0.285490
v -0.313046 0.095810 0.285490
v -0.313046 0.245925 0.220977
v -0.129874 0.095810 0.285490
v -0.313046 0.095810 0.220977
v -0.313046 0.095810 0.285490
v -0.129874 0.095810 0.220977
v -0.129874 0.245925 0.220977
v -0.129874 0.095810 0.285490
v -0.129874 0.245925 0.285490
v -0.129874 0.095810 0.220977
vn 0 0 1
vn 0 0 -1
vn 0 -1 0
vn 0 1 0
vn 1 0 0
vn -1 0 0
usemtl material_0_2
f 1//1 2//1 3//1
f 3//2 2//2 1//2
f 2//1 1//1 4//1
f 4//2 1//2 2//2
f 4//1 1//1 5//1
f 5//2 1//2 4//2
f 6//1 7//1 8//1
f 8//2 7//2 6//2
f 7//1 6//1 9//1
f 9//2 6//2 7//2
f 7//1 9//1 10//1
f 10//2 9//2 7//2
f 10//1 9//1 1//1
f 1//2 9//2 10//2
f 8//1 11//1 12//1
f 12//2 11//2 8//2
f 11//1 8//1 7//1
f 7//2 8//2 11//2
f 11//1 7//1 3//1
f 3//2 7//2 11//2
f 11//1 3//1 2//1
f 2//2 3//2 11//2
f 12//1 11//1 5//1
f 5//2 11//2 12//2
f 12//1 5//1 1//1
f 1//2 5//2 12//2
f 12//1 1//1 9//1
f 9//2 1//2 12//2
f 13//3 14//3 15//3
f 15//4 14//4 13//4
f 14//3 13//3 16//3
f 16//4 13//4 14//4
f 16//3 13//3 17//3
f 17//4 13//4 16//4
f 17//3 13//3 18//3
f 18//4 13//4 17//4
f 18//3 13//3 19//3
f 19//4 13//4 18//4
f 15//3 14//3 20//3
f 20//4 14//4 15//4
f 15//3 20//3 21//3
f 21//4 20//4 15//4
f 15//3 21//3 22//3
f 22//4 21//4 15//4
f 17//3 18//3 23//3
f 23//4 18//4 17//4
f 23//3 18//3 24//3
f 24//4 18//4 23//4
f 24//3 18//3 25//3
f 25//4 18//4 24//4
f 25//3 18//3 26//3
f 26//4 18//4 25//4
f 26//3 18//3 27//3
f 27//4 18//4 26//4
f 27//3 18//3 28//3
f 28//4 18//4 27//4
f 28//3 18//3 29//3
f 29//4 18//4 28//4
f 29//3 18//3 30//3
f 30//4 18//4 29//4
f 29//3 30//3 31//3
f 31//4 30//4 29//4
f 29//3 31//3 32//3
f 32//4 31//4 29//4
f 29//3 32//3 33//3
f 33//4 32//4 29//4
f 29//3 33//3 34//3
f 34//4 33//4 29//4
f 18//3 19//3 35//3
f 35//4 19//4 18//4
f 35//3 19//3 36//3
f 36//4 19//4 35//4
f 36//3 19//3 37//3
f 37//4 19//4 36//4
f 37//3 19//3 38//3
f 38//4 19//4 37//4
f 38//3 19//3 39//3
f 39//4 19//4 38//4
f 39//3 19//3 40//3
f 40//4 19//4 39//4
f 40//3 19//3 41//3
f 41//4 19//4 40//4
f 15//3 42//3 43//3
f 43//4 42//4 15//4
f 42//3 15//3 44//3
f 44//4 15//4 42//4
f 44//3 15//3 45//3
f 45//4 15//4 44//4
f 45//3 15//3 46//3
f 46//4 15//4 45//4
f 46//3 15//3 47//3
f 47//4 15//4 46//4
f 47//3 15//3 48//3
f 48//4 15//4 47//4
f 48//3 15//3 22//3
f 22//4 15//4 48//4
f 44//3 45//3 49//3
f 49//4 45//4 44//4
f 44//3 49//3 50//3
f 50//4 49//4 44//4
f 44//3 50//3 51//3
f 51//4 50//4 44//4
f 44//3 51//3 52//3
f 52//4 51//4 44//4
f 44//3 52//3 53//3
f 53//4 52//4 44//4
f 53//3 52//3 54//3
f 54//4 52//4 53//4
f 53//3 54//3 55//3
f 55//4 54//4 53//4
f 53//3 55//3 56//3
f 56//4 55//4 53//4
f 53//3 56//3 29//3
f 29//4 56//4 53//4
f 53//3 29//3 57//3
f 57//4 29//4 53//4
f 57//3 29//3 58//3
f 58//4 29//4 57//4
f 58//3 29//3 59//3
f 59//4 29//4 58//4
f 59//3 29//3 34//3
f 34//4 29//4 59//4
f 43//3 42//3 60//3
f 60//4 42//4 43//4
f 43//3 60//3 61//3
f 61//4 60//4 43//4
f 43//3 61//3 62//3
f 62//4 61//4 43//4
f 43//3 62//3 63//3
f 63//4 62//4 43//4
f 43//3 63//3 64//3
f 64//4 63//4 43//4
f 43//3 64//3 41//3
f 41//4 64//4 43//4
f 43//3 41//3 19//3
f 19//4 41//4 43//4
f 65//5 66//5 67//5
f 67//6 66//6 65//6
f 66//5 65//5 68//5
f 68//6 65//6 66//6
f 69//4 70//4 71//4
f 71//3 70//3 69//3
f 70//4 69//4 72//4
f 72//3 69//3 70//3
f 73//6 74//6 75//6
f 75//5 74//5 73//5
f 74//6 73//6 76//6
f 76//5 73//5 74//5
