# Blender v2.93.5 OBJ File: ''
# www.blender.org
mtllib index_1.mtl
o index_1
v 0.008900 -0.005600 -0.008000
v 0.006000 -0.010000 -0.008000
v 0.008900 0.005600 -0.008000
v 0.006000 0.010000 -0.008000
v 0.029858 0.005600 -0.008000
v 0.032758 0.010000 -0.008000
v 0.029858 -0.005600 -0.008000
v 0.032758 -0.010000 -0.008000
v 0.041000 -0.005000 0.005250
v 0.041000 -0.010000 0.005250
v 0.039553 -0.005000 0.005047
v 0.039553 -0.010000 0.005047
v 0.038218 -0.005000 0.004452
v 0.038218 -0.010000 0.004452
v 0.037098 -0.005000 0.003513
v 0.037098 -0.010000 0.003513
v 0.036281 -0.005000 0.002301
v 0.036281 -0.010000 0.002301
v 0.035830 -0.005000 0.000912
v 0.035830 -0.010000 0.000912
v 0.035830 0.005000 0.000912
v 0.035830 0.010000 0.000912
v 0.036281 0.005000 0.002301
v 0.036281 0.010000 0.002301
v 0.037098 0.005000 0.003513
v 0.037098 0.010000 0.003513
v 0.038218 0.005000 0.004452
v 0.038218 0.010000 0.004452
v 0.039553 0.005000 0.005047
v 0.039553 0.010000 0.005047
v 0.041000 0.005000 0.005250
v 0.041000 0.010000 0.005250
v 0.041000 0.005000 0.004500
v 0.041000 -0.005000 0.004500
v 0.042486 -0.005000 0.004247
v 0.042486 0.005000 0.004247
v 0.043806 -0.005000 0.003518
v 0.043806 0.005000 0.003518
v 0.044810 -0.005000 0.002394
v 0.044810 0.005000 0.002394
v 0.045387 -0.005000 0.001001
v 0.045387 0.005000 0.001001
v 0.045472 -0.005000 -0.000504
v 0.045472 0.005000 -0.000504
v 0.045054 -0.005000 -0.001952
v 0.045054 0.005000 -0.001952
v 0.044182 -0.005000 -0.003182
v 0.044182 0.005000 -0.003182
v 0.042952 -0.005000 -0.004054
v 0.042952 0.005000 -0.004054
v 0.041504 -0.005000 -0.004472
v 0.041504 0.005000 -0.004472
v 0.039999 -0.005000 -0.004387
v 0.039999 0.005000 -0.004387
v 0.038606 -0.005000 -0.003810
v 0.038606 0.005000 -0.003810
v 0.037482 -0.005000 -0.002806
v 0.037482 0.005000 -0.002806
v 0.036753 -0.005000 -0.001486
v 0.036753 0.005000 -0.001486
v 0.036500 -0.005000 -0.000000
v 0.036500 0.005000 -0.000000
v 0.035669 0.005000 -0.000000
v 0.004500 0.007900 -0.006500
v 0.004500 0.007900 -0.000000
v -0.001584 0.007900 -0.004212
v 0.004280 0.007900 0.001391
v -0.002608 0.007900 0.003667
v -0.003600 0.007900 0.002700
v 0.002645 0.007900 0.003641
v -0.004251 0.007900 0.001477
v -0.004499 0.007900 0.000114
v 0.003641 0.007900 0.002645
v -0.002790 0.007900 -0.003531
v 0.001391 0.007900 0.004280
v -0.000000 0.007900 0.004500
v -0.001369 0.007900 0.004287
v -0.004320 0.007900 -0.001260
v -0.003732 0.007900 -0.002514
v -0.001584 0.010000 -0.004212
v -0.002790 0.010000 -0.003531
v -0.003732 0.010000 -0.002514
v -0.004320 0.010000 -0.001260
v -0.004499 0.010000 0.000114
v -0.004251 0.010000 0.001477
v -0.003600 0.010000 0.002700
v -0.002608 0.010000 0.003667
v -0.001369 0.010000 0.004287
v -0.000000 0.010000 0.004500
v -0.001584 -0.007900 -0.004212
v -0.001584 -0.010000 -0.004212
v -0.002790 -0.010000 -0.003531
v -0.002790 -0.007900 -0.003531
v -0.003732 -0.010000 -0.002514
v -0.003732 -0.007900 -0.002514
v -0.004320 -0.010000 -0.001260
v -0.004320 -0.007900 -0.001260
v -0.004499 -0.010000 0.000114
v -0.004499 -0.007900 0.000114
v -0.004251 -0.010000 0.001477
v -0.004251 -0.007900 0.001477
v -0.003600 -0.010000 0.002700
v -0.003600 -0.007900 0.002700
v -0.002608 -0.010000 0.003667
v -0.002608 -0.007900 0.003667
v -0.001369 -0.010000 0.004287
v -0.001369 -0.007900 0.004287
v -0.000000 -0.010000 0.004500
v -0.000000 -0.007900 0.004500
v -0.000000 -0.010000 0.008000
v -0.000000 0.010000 0.008000
v 0.041000 0.010000 0.008000
v 0.041000 -0.010000 0.008000
v 0.035669 -0.005000 -0.000000
v 0.034580 -0.010000 -0.006179
v 0.035669 0.005000 -0.000000
v 0.034580 0.010000 -0.006179
v 0.004500 0.010000 -0.006500
v 0.004500 -0.010000 -0.006500
v 0.004500 -0.007900 -0.006500
v 0.004500 -0.007900 -0.000000
v 0.003641 -0.007900 0.002645
v 0.004280 -0.007900 0.001391
v 0.002645 -0.007900 0.003641
v 0.001391 -0.007900 0.004280
v 0.029858 0.005600 -0.010500
v 0.008900 0.005600 -0.010500
v 0.029858 -0.005600 -0.010500
v 0.008900 -0.005600 -0.010500
vn 0.0000 0.0000 -1.0000
vn 0.1392 0.0000 -0.9903
vn 0.4067 0.0000 -0.9135
vn 0.6428 0.0000 -0.7660
vn 0.8290 0.0000 -0.5592
vn 0.9511 0.0000 -0.3090
vn 0.1675 0.0000 0.9859
vn 0.4837 0.0000 0.8752
vn 0.7456 0.0000 0.6663
vn 0.9239 0.0000 0.3827
vn 0.9984 0.0000 0.0561
vn 0.9609 0.0000 -0.2768
vn 0.8156 0.0000 -0.5787
vn 0.5787 0.0000 -0.8156
vn 0.2768 0.0000 -0.9609
vn -0.0561 0.0000 -0.9984
vn -0.3827 0.0000 -0.9239
vn -0.6663 0.0000 -0.7456
vn -0.8752 0.0000 -0.4837
vn -0.9859 0.0000 -0.1675
vn 0.0000 1.0000 0.0000
vn 0.0000 -1.0000 0.0000
vn -0.4919 0.0000 -0.8707
vn -0.7334 0.0000 -0.6798
vn -0.9055 0.0000 -0.4244
vn -0.9917 0.0000 -0.1289
vn -0.9839 0.0000 0.1789
vn -0.8828 0.0000 0.4697
vn -0.6981 0.0000 0.7160
vn -0.4472 0.0000 0.8944
vn -0.1539 0.0000 0.9881
vn -1.0000 0.0000 0.0000
vn 1.0000 0.0000 0.0000
vn 0.9848 0.0000 -0.1736
vn 0.0000 0.0000 1.0000
vn -0.7071 0.0000 -0.7071
vn 0.7071 0.0000 -0.7071
vn -0.1564 0.0000 -0.9877
vn -0.4540 0.0000 -0.8910
vn -0.8910 0.0000 -0.4540
vn -0.9877 0.0000 -0.1564
vn -0.3520 0.0000 -0.9360
usemtl None
s off
f 1//1 2//1 3//1
f 3//1 2//1 4//1
f 3//1 4//1 5//1
f 5//1 4//1 6//1
f 5//1 6//1 7//1
f 7//1 6//1 8//1
f 7//1 8//1 1//1
f 1//1 8//1 2//1
f 9//2 10//2 11//2
f 11//2 10//2 12//2
f 11//3 12//3 13//3
f 13//3 12//3 14//3
f 13//4 14//4 15//4
f 15//4 14//4 16//4
f 15//5 16//5 17//5
f 17//5 16//5 18//5
f 17//6 18//6 19//6
f 19//6 18//6 20//6
f 21//6 22//6 23//6
f 23//6 22//6 24//6
f 23//5 24//5 25//5
f 25//5 24//5 26//5
f 25//4 26//4 27//4
f 27//4 26//4 28//4
f 27//3 28//3 29//3
f 29//3 28//3 30//3
f 29//2 30//2 31//2
f 31//2 30//2 32//2
f 33//7 34//7 35//7
f 33//7 35//7 36//7
f 36//8 35//8 37//8
f 36//8 37//8 38//8
f 38//9 37//9 39//9
f 38//9 39//9 40//9
f 40//10 39//10 41//10
f 40//10 41//10 42//10
f 42//11 41//11 43//11
f 42//11 43//11 44//11
f 44//12 43//12 45//12
f 44//12 45//12 46//12
f 46//13 45//13 47//13
f 46//13 47//13 48//13
f 48//14 47//14 49//14
f 48//14 49//14 50//14
f 50//15 49//15 51//15
f 50//15 51//15 52//15
f 52//16 51//16 53//16
f 52//16 53//16 54//16
f 54//17 53//17 55//17
f 54//17 55//17 56//17
f 56//18 55//18 57//18
f 56//18 57//18 58//18
f 58//19 57//19 59//19
f 58//19 59//19 60//19
f 60//20 59//20 61//20
f 60//20 61//20 62//20
f 29//21 31//21 33//21
f 63//21 21//21 33//21
f 33//21 21//21 23//21
f 23//21 25//21 33//21
f 33//21 25//21 27//21
f 33//21 27//21 29//21
f 60//21 40//21 58//21
f 58//21 40//21 42//21
f 38//21 40//21 36//21
f 36//21 40//21 60//21
f 36//21 60//21 33//21
f 33//21 60//21 62//21
f 33//21 62//21 63//21
f 48//21 50//21 46//21
f 46//21 50//21 52//21
f 46//21 52//21 54//21
f 42//21 44//21 58//21
f 58//21 44//21 46//21
f 58//21 46//21 56//21
f 56//21 46//21 54//21
f 64//22 65//22 66//22
f 66//22 65//22 67//22
f 68//22 69//22 70//22
f 70//22 69//22 71//22
f 70//22 71//22 72//22
f 67//22 73//22 66//22
f 66//22 73//22 70//22
f 66//22 70//22 74//22
f 75//22 76//22 70//22
f 70//22 76//22 77//22
f 70//22 77//22 68//22
f 72//22 78//22 70//22
f 70//22 78//22 79//22
f 70//22 79//22 74//22
f 80//23 66//23 74//23
f 80//23 74//23 81//23
f 81//24 74//24 79//24
f 81//24 79//24 82//24
f 82//25 79//25 78//25
f 82//25 78//25 83//25
f 83//26 78//26 72//26
f 83//26 72//26 84//26
f 84//27 72//27 71//27
f 84//27 71//27 85//27
f 85//28 71//28 69//28
f 85//28 69//28 86//28
f 86//29 69//29 68//29
f 86//29 68//29 87//29
f 87//30 68//30 77//30
f 87//30 77//30 88//30
f 88//31 77//31 76//31
f 88//31 76//31 89//31
f 90//23 91//23 92//23
f 90//23 92//23 93//23
f 93//24 92//24 94//24
f 93//24 94//24 95//24
f 95//25 94//25 96//25
f 95//25 96//25 97//25
f 97//26 96//26 98//26
f 97//26 98//26 99//26
f 99//27 98//27 100//27
f 99//27 100//27 101//27
f 101//28 100//28 102//28
f 101//28 102//28 103//28
f 103//29 102//29 104//29
f 103//29 104//29 105//29
f 105//30 104//30 106//30
f 105//30 106//30 107//30
f 107//31 106//31 108//31
f 107//31 108//31 109//31
f 109//32 108//32 110//32
f 109//32 110//32 76//32
f 76//32 110//32 111//32
f 76//32 111//32 89//32
f 112//33 113//33 9//33
f 9//33 113//33 10//33
f 32//33 112//33 31//33
f 31//33 112//33 9//33
f 31//33 9//33 33//33
f 33//33 9//33 34//33
f 19//34 20//34 114//34
f 114//34 20//34 115//34
f 114//34 115//34 116//34
f 116//34 115//34 117//34
f 116//34 117//34 21//34
f 21//34 117//34 22//34
f 113//35 112//35 110//35
f 110//35 112//35 111//35
f 112//21 32//21 30//21
f 111//21 26//21 24//21
f 112//21 30//21 111//21
f 111//21 30//21 28//21
f 111//21 28//21 26//21
f 83//21 84//21 82//21
f 82//21 84//21 85//21
f 82//21 85//21 81//21
f 81//21 85//21 80//21
f 80//21 85//21 86//21
f 80//21 86//21 87//21
f 4//21 118//21 89//21
f 89//21 118//21 80//21
f 89//21 80//21 88//21
f 88//21 80//21 87//21
f 24//21 22//21 111//21
f 111//21 22//21 117//21
f 111//21 117//21 89//21
f 89//21 117//21 6//21
f 89//21 6//21 4//21
f 20//22 18//22 110//22
f 20//22 110//22 115//22
f 115//22 110//22 108//22
f 115//22 108//22 8//22
f 18//22 16//22 110//22
f 110//22 16//22 14//22
f 110//22 14//22 113//22
f 113//22 14//22 12//22
f 113//22 12//22 10//22
f 2//22 8//22 119//22
f 119//22 8//22 108//22
f 119//22 108//22 91//22
f 91//22 108//22 106//22
f 91//22 106//22 104//22
f 96//22 94//22 98//22
f 98//22 94//22 100//22
f 104//22 102//22 91//22
f 91//22 102//22 100//22
f 91//22 100//22 92//22
f 92//22 100//22 94//22
f 59//22 57//22 39//22
f 13//22 34//22 11//22
f 11//22 34//22 9//22
f 13//22 15//22 34//22
f 34//22 15//22 17//22
f 34//22 17//22 19//22
f 41//22 39//22 43//22
f 43//22 39//22 57//22
f 43//22 57//22 45//22
f 45//22 57//22 55//22
f 19//22 114//22 34//22
f 34//22 114//22 61//22
f 34//22 61//22 35//22
f 35//22 61//22 59//22
f 35//22 59//22 37//22
f 37//22 59//22 39//22
f 49//22 47//22 51//22
f 51//22 47//22 45//22
f 51//22 45//22 53//22
f 53//22 45//22 55//22
f 63//1 62//1 114//1
f 114//1 62//1 61//1
f 64//32 120//32 65//32
f 65//32 120//32 121//32
f 122//21 123//21 90//21
f 90//21 123//21 121//21
f 90//21 121//21 120//21
f 122//21 90//21 124//21
f 124//21 90//21 93//21
f 124//21 93//21 95//21
f 105//21 124//21 103//21
f 103//21 124//21 101//21
f 95//21 97//21 124//21
f 124//21 97//21 99//21
f 124//21 99//21 101//21
f 105//21 107//21 124//21
f 124//21 107//21 109//21
f 124//21 109//21 125//21
f 2//36 119//36 120//36
f 2//36 120//36 4//36
f 4//36 120//36 64//36
f 4//36 64//36 118//36
f 8//37 6//37 115//37
f 115//37 6//37 117//37
f 109//38 76//38 125//38
f 125//38 76//38 75//38
f 125//39 75//39 124//39
f 124//39 75//39 70//39
f 124//36 70//36 122//36
f 122//36 70//36 73//36
f 122//40 73//40 123//40
f 123//40 73//40 67//40
f 123//41 67//41 121//41
f 121//41 67//41 65//41
f 5//21 126//21 3//21
f 3//21 126//21 127//21
f 7//33 128//33 5//33
f 5//33 128//33 126//33
f 1//22 129//22 7//22
f 7//22 129//22 128//22
f 3//32 127//32 1//32
f 1//32 127//32 129//32
f 128//1 129//1 126//1
f 126//1 129//1 127//1
f 120//42 119//42 90//42
f 90//42 119//42 91//42
f 66//42 80//42 64//42
f 64//42 80//42 118//42
