# SSTK version 0.8.0
# 53
mtllib original-53.mtl
o Group33/mesh30/mesh30-geometry#mesh30-geometry
v 0.643756 0.213867 0.004438
v -0.660372 0.304252 0.004438
v -0.660372 0.213867 0.004438
v 0.643756 0.304252 0.004438
v -0.660372 0.213867 -0.034298
v 0.643756 0.304252 -0.034298
v -0.660372 0.304252 -0.034298
v 0.643756 0.213867 -0.034298
vt 0.466667 -0.072917
vt 0.020833 0
vt 0.020833 -0.072917
vt 0.466667 0
vt 0.366667 0
vt 0.354167 -0.072917
vt 0.366667 -0.072917
vt -0.354167 0.052083
vt -0.366667 1.166667
vt -0.366667 0.052083
vt -0.366667 -0.072917
vt -0.354167 0
vt -0.366667 0
vt 0.354167 1.166667
vt 0.366667 0.052083
vt 0.366667 1.166667
vt 0.354167 0
vt -0.354167 1.166667
vt -0.354167 -0.072917
vt 0.354167 0.052083
vt -0.466667 0
vt -0.020833 -0.072917
vt -0.020833 0
vt -0.466667 -0.072917
vn 0 0 1
vn -1 0 0
vn 0 -1 0
vn 1 0 0
vn 0 1 0
vn 0 0 -1
usemtl material_0_0
f 1/1/1 2/2/1 3/3/1
f 2/2/1 1/1/1 4/4/1
f 2/5/2 5/6/2 3/7/2
f 5/8/3 1/9/3 3/10/3
f 1/11/4 6/12/4 4/13/4
f 6/14/5 2/15/5 4/16/5
f 5/6/2 2/5/2 7/17/2
f 1/9/3 5/8/3 8/18/3
f 6/12/4 1/11/4 8/19/4
f 2/15/5 6/14/5 7/20/5
f 6/21/6 5/22/6 7/23/6
f 5/22/6 6/21/6 8/24/6
usemtl material_1_0
f 3//6 2//6 1//6
f 4//6 1//6 2//6
f 3//4 5//4 2//4
f 3//5 1//5 5//5
f 4//2 6//2 1//2
f 4//3 2//3 6//3
f 7//4 2//4 5//4
f 8//5 5//5 1//5
f 8//2 1//2 6//2
f 7//3 6//3 2//3
f 7//1 5//1 6//1
f 8//1 6//1 5//1
