# SSTK version 0.8.0
# 27
mtllib original-27.mtl
o Group18/mesh12/mesh12-geometry#mesh12-geometry
v 0.586259 -0.561129 -0.457690
v 0.586259 -0.541228 -0.457690
v 0.586259 -0.551179 -0.459266
v 0.586259 -0.532252 -0.453116
v 0.586259 -0.528410 -0.458404
v 0.586259 -0.573947 -0.458404
v 0.586259 -0.570105 -0.453116
v 0.586259 -0.519840 -0.449835
v 0.586259 -0.563149 -0.463907
v 0.586259 -0.582517 -0.449835
v 0.586259 -0.525128 -0.445993
v 0.586259 -0.539208 -0.463907
v 0.616925 -0.519840 -0.449835
v 0.616925 -0.573947 -0.458404
v 0.586259 -0.577229 -0.445993
v 0.586259 -0.514338 -0.439036
v 0.586259 -0.551179 -0.465802
v 0.616925 -0.539208 -0.463907
v 0.616925 -0.528410 -0.458404
v 0.616925 -0.514338 -0.439036
v 0.616925 -0.563149 -0.463907
v 0.616925 -0.582517 -0.449835
v 0.586259 -0.588019 -0.439036
v 0.586259 -0.520555 -0.437016
v 0.616925 -0.551179 -0.465802
v 0.616925 -0.541228 -0.457690
v 0.616925 -0.525128 -0.445993
v 0.616925 -0.551179 -0.459266
v 0.616925 -0.561129 -0.457690
v 0.586259 -0.581803 -0.437016
v 0.586259 -0.512442 -0.427066
v 0.616925 -0.512442 -0.427066
v 0.616925 -0.532252 -0.453116
v 0.616925 -0.520555 -0.437016
v 0.616925 -0.570105 -0.453116
v 0.616925 -0.588019 -0.439036
v 0.586259 -0.589915 -0.427066
v 0.586259 -0.518979 -0.427066
v 0.616925 -0.577229 -0.445993
v 0.586259 -0.583378 -0.427066
v 0.586259 -0.520555 -0.417116
v 0.616925 -0.514338 -0.415096
v 0.616925 -0.518979 -0.427066
v 0.616925 -0.581803 -0.437016
v 0.616925 -0.589915 -0.427066
v 0.586259 -0.588019 -0.415096
v 0.586259 -0.514338 -0.415096
v 0.616925 -0.520555 -0.417116
v 0.586259 -0.581803 -0.417116
v 0.586259 -0.525128 -0.408139
v 0.616925 -0.519840 -0.404297
v 0.616925 -0.525128 -0.408139
v 0.616925 -0.583378 -0.427066
v 0.616925 -0.588019 -0.415096
v 0.586259 -0.577229 -0.408139
v 0.586259 -0.519840 -0.404297
v 0.616925 -0.581803 -0.417116
v 0.586259 -0.582517 -0.404297
v 0.586259 -0.532252 -0.401016
v 0.616925 -0.528410 -0.395728
v 0.616925 -0.532252 -0.401016
v 0.616925 -0.577229 -0.408139
v 0.616925 -0.582517 -0.404297
v 0.586259 -0.570105 -0.401016
v 0.586259 -0.528410 -0.395728
v 0.586259 -0.573947 -0.395728
v 0.586259 -0.541228 -0.396442
v 0.586259 -0.539208 -0.390225
v 0.616925 -0.541228 -0.396442
v 0.616925 -0.570105 -0.401016
v 0.616925 -0.573947 -0.395728
v 0.586259 -0.561129 -0.396442
v 0.586259 -0.551179 -0.394866
v 0.616925 -0.539208 -0.390225
v 0.616925 -0.551179 -0.394866
v 0.616925 -0.563149 -0.390225
v 0.586259 -0.551179 -0.388330
v 0.586259 -0.563149 -0.390225
v 0.616925 -0.561129 -0.396442
v 0.616925 -0.551179 -0.388330
vn -1 0 0
vn 1 0 0
vn 0 -0.8090171162905557 0.5877850844899974
vn 0 -0.5877850844899974 0.8090171162905557
vn 0 0.5877850844899974 0.8090171162905557
vn 0 0.3090168573056278 0.9510565608316645
vn 0 0.8090171162905557 0.5877850844899974
vn 0 -0.3090168573056278 0.9510565608316645
vn 0 -0.9510565608316645 0.3090168573056278
vn 0 0 1
vn 0 0.9510565608316645 0.3090168573056278
vn 0 -1 0
vn 0 1 0
vn 0 -0.9510565608316645 -0.3090168573056278
vn 0 0.9510565608316645 -0.3090168573056278
vn 0 -0.8090171162905557 -0.5877850844899974
vn 0 0.8090171162905557 -0.5877850844899974
vn 0 -0.5877850844899974 -0.8090171162905557
vn 0 0.5877850844899974 -0.8090171162905557
vn 0 -0.3090168573056278 -0.9510565608316645
vn 0 0.3090168573056278 -0.9510565608316645
vn 0 0 -1
usemtl material_0_0
f 1//1 2//1 3//1
f 2//1 1//1 4//1
f 4//1 1//1 7//1
f 4//1 7//1 11//1
f 11//1 7//1 15//1
f 11//1 15//1 24//1
f 24//1 15//1 30//1
f 24//1 30//1 38//1
f 26//2 29//2 28//2
f 29//2 26//2 33//2
f 35//2 33//2 27//2
f 39//2 27//2 34//2
f 29//2 33//2 35//2
f 38//1 30//1 40//1
f 35//2 27//2 39//2
f 39//2 34//2 44//2
f 38//1 40//1 41//1
f 44//2 34//2 43//2
f 41//1 40//1 49//1
f 53//2 43//2 48//2
f 44//2 43//2 53//2
f 41//1 49//1 50//1
f 57//2 48//2 52//2
f 53//2 48//2 57//2
f 50//1 49//1 55//1
f 57//2 52//2 62//2
f 50//1 55//1 59//1
f 62//2 52//2 61//2
f 59//1 55//1 64//1
f 62//2 61//2 70//2
f 59//1 64//1 67//1
f 70//2 61//2 69//2
f 67//1 64//1 72//1
f 67//1 72//1 73//1
f 79//2 69//2 75//2
f 70//2 69//2 79//2
usemtl material_1_0
f 3//2 2//2 1//2
f 4//2 1//2 2//2
f 2//2 3//2 5//2
f 1//2 6//2 3//2
f 7//2 1//2 4//2
f 4//2 2//2 8//2
f 3//2 9//2 5//2
f 8//2 2//2 5//2
f 9//2 3//2 6//2
f 10//2 6//2 1//2
f 7//2 10//2 1//2
f 11//2 7//2 4//2
f 11//2 4//2 8//2
f 5//2 9//2 12//2
f 8//3 5//4 13//3
f 6//5 14//5 9//6
f 6//5 10//7 14//5
f 15//2 10//2 7//2
f 15//2 7//2 11//2
f 16//2 11//2 8//2
f 17//2 12//2 9//2
f 12//8 18//8 5//4
f 19//4 13//3 5//4
f 13//3 20//9 8//3
f 21//6 9//6 14//5
f 22//7 14//5 10//7
f 23//2 10//2 15//2
f 24//2 15//2 11//2
f 24//2 11//2 16//2
f 16//9 8//3 20//9
f 17//10 25//10 12//8
f 9//6 21//6 17//10
f 19//4 5//4 18//8
f 18//8 12//8 25//10
f 13//1 19//1 26//1
f 20//1 13//1 27//1
f 21//1 14//1 28//1
f 22//1 29//1 14//1
f 10//7 23//11 22//7
f 30//2 23//2 15//2
f 30//2 15//2 24//2
f 31//2 24//2 16//2
f 20//9 32//12 16//9
f 25//10 17//10 21//6
f 19//1 18//1 21//1
f 25//1 21//1 18//1
f 26//1 19//1 28//1
f 33//1 13//1 26//1
f 27//1 13//1 33//1
f 34//1 20//1 27//1
f 29//1 28//1 14//1
f 28//1 19//1 21//1
f 35//1 29//1 22//1
f 36//11 22//7 23//11
f 37//2 23//2 30//2
f 38//2 30//2 24//2
f 38//2 24//2 31//2
f 31//12 16//9 32//12
f 32//1 20//1 34//1
f 28//1 29//1 26//1
f 33//1 26//1 29//1
f 27//1 33//1 35//1
f 34//1 27//1 39//1
f 35//1 33//1 29//1
f 39//1 35//1 22//1
f 36//1 39//1 22//1
f 23//11 37//13 36//11
f 40//2 37//2 30//2
f 40//2 30//2 38//2
f 41//2 38//2 31//2
f 32//12 42//14 31//12
f 43//1 32//1 34//1
f 39//1 27//1 35//1
f 44//1 34//1 39//1
f 44//1 39//1 36//1
f 45//13 36//11 37//13
f 46//2 37//2 40//2
f 41//2 40//2 38//2
f 47//2 41//2 31//2
f 47//14 31//12 42//14
f 42//1 32//1 48//1
f 48//1 32//1 43//1
f 43//1 34//1 44//1
f 45//1 44//1 36//1
f 37//13 46//15 45//13
f 49//2 46//2 40//2
f 49//2 40//2 41//2
f 50//2 41//2 47//2
f 42//14 51//16 47//14
f 52//1 42//1 48//1
f 48//1 43//1 53//1
f 53//1 43//1 44//1
f 53//1 44//1 45//1
f 54//15 45//13 46//15
f 55//2 46//2 49//2
f 50//2 49//2 41//2
f 56//2 50//2 47//2
f 56//16 47//14 51//16
f 51//1 42//1 52//1
f 52//1 48//1 57//1
f 57//1 48//1 53//1
f 57//1 53//1 45//1
f 54//1 57//1 45//1
f 46//15 58//17 54//15
f 58//2 46//2 55//2
f 55//2 49//2 50//2
f 59//2 50//2 56//2
f 51//16 60//18 56//16
f 61//1 51//1 52//1
f 62//1 52//1 57//1
f 62//1 57//1 54//1
f 63//17 54//15 58//17
f 64//2 58//2 55//2
f 59//2 55//2 50//2
f 65//2 59//2 56//2
f 65//18 56//16 60//18
f 60//1 51//1 61//1
f 61//1 52//1 62//1
f 63//1 62//1 54//1
f 58//17 66//19 63//17
f 66//2 58//2 64//2
f 64//2 55//2 59//2
f 67//2 59//2 65//2
f 65//18 60//18 68//20
f 69//1 60//1 61//1
f 70//1 61//1 62//1
f 70//1 62//1 63//1
f 71//19 63//17 66//19
f 72//2 66//2 64//2
f 67//2 64//2 59//2
f 73//2 67//2 65//2
f 74//20 68//20 60//18
f 68//2 73//2 65//2
f 75//1 60//1 69//1
f 69//1 61//1 70//1
f 71//1 70//1 63//1
f 71//19 66//19 76//21
f 73//2 66//2 72//2
f 72//2 64//2 67//2
f 73//2 72//2 67//2
f 68//20 74//20 77//22
f 74//1 60//1 75//1
f 68//2 78//2 73//2
f 75//1 69//1 79//1
f 79//1 69//1 70//1
f 79//1 70//1 71//1
f 78//21 76//21 66//19
f 76//1 75//1 71//1
f 78//2 66//2 73//2
f 80//22 77//22 74//20
f 77//2 78//2 68//2
f 74//1 75//1 76//1
f 75//1 79//1 71//1
f 76//21 78//21 80//22
f 77//22 80//22 78//21
f 80//1 74//1 76//1
usemtl material_2_0
f 5//1 3//1 2//1
f 3//1 6//1 1//1
f 8//1 2//1 4//1
f 5//1 9//1 3//1
f 5//1 2//1 8//1
f 6//1 3//1 9//1
f 1//1 6//1 10//1
f 1//1 10//1 7//1
f 8//1 4//1 11//1
f 12//1 9//1 5//1
f 13//17 5//19 8//17
f 9//20 14//18 6//18
f 14//18 10//16 6//18
f 7//1 10//1 15//1
f 8//1 11//1 16//1
f 9//1 12//1 17//1
f 5//19 18//21 12//21
f 5//19 13//17 19//19
f 8//17 20//15 13//17
f 14//18 9//20 21//20
f 10//16 14//18 22//16
f 15//1 10//1 23//1
f 16//1 11//1 24//1
f 20//15 8//17 16//15
f 12//21 25//22 17//22
f 17//22 21//20 9//20
f 18//21 5//19 19//19
f 25//22 12//21 18//21
f 26//2 19//2 13//2
f 27//2 13//2 20//2
f 28//2 14//2 21//2
f 14//2 29//2 22//2
f 22//16 23//14 10//16
f 15//1 23//1 30//1
f 16//1 24//1 31//1
f 16//15 32//13 20//15
f 21//20 17//22 25//22
f 21//2 18//2 19//2
f 18//2 21//2 25//2
f 28//2 19//2 26//2
f 26//2 13//2 33//2
f 33//2 13//2 27//2
f 27//2 20//2 34//2
f 14//2 28//2 29//2
f 21//2 19//2 28//2
f 22//2 29//2 35//2
f 23//14 22//16 36//14
f 30//1 23//1 37//1
f 31//1 24//1 38//1
f 32//13 16//15 31//13
f 34//2 20//2 32//2
f 22//2 35//2 39//2
f 22//2 39//2 36//2
f 36//14 37//12 23//14
f 30//1 37//1 40//1
f 31//1 38//1 41//1
f 31//13 42//11 32//13
f 34//2 32//2 43//2
f 36//2 39//2 44//2
f 37//12 36//14 45//12
f 40//1 37//1 46//1
f 31//1 41//1 47//1
f 42//11 31//13 47//11
f 48//2 32//2 42//2
f 43//2 32//2 48//2
f 36//2 44//2 45//2
f 45//12 46//9 37//12
f 40//1 46//1 49//1
f 47//1 41//1 50//1
f 47//11 51//7 42//11
f 48//2 42//2 52//2
f 45//2 44//2 53//2
f 46//9 45//12 54//9
f 49//1 46//1 55//1
f 47//1 50//1 56//1
f 51//7 47//11 56//7
f 52//2 42//2 51//2
f 45//2 53//2 57//2
f 45//2 57//2 54//2
f 54//9 58//3 46//9
f 55//1 46//1 58//1
f 56//1 50//1 59//1
f 56//7 60//5 51//7
f 52//2 51//2 61//2
f 54//2 57//2 62//2
f 58//3 54//9 63//3
f 55//1 58//1 64//1
f 56//1 59//1 65//1
f 60//5 56//7 65//5
f 61//2 51//2 60//2
f 54//2 62//2 63//2
f 63//3 66//4 58//3
f 64//1 58//1 66//1
f 65//1 59//1 67//1
f 68//6 60//5 65//5
f 61//2 60//2 69//2
f 63//2 62//2 70//2
f 66//4 63//3 71//4
f 64//1 66//1 72//1
f 65//1 67//1 73//1
f 60//5 68//6 74//6
f 65//1 73//1 68//1
f 69//2 60//2 75//2
f 63//2 70//2 71//2
f 76//8 66//4 71//4
f 72//1 66//1 73//1
f 77//10 74//6 68//6
f 75//2 60//2 74//2
f 73//1 78//1 68//1
f 71//2 70//2 79//2
f 66//4 76//8 78//8
f 71//2 75//2 76//2
f 73//1 66//1 78//1
f 74//6 77//10 80//10
f 68//1 78//1 77//1
f 76//2 75//2 74//2
f 71//2 79//2 75//2
f 80//10 78//8 76//8
f 78//8 80//10 77//10
f 76//2 74//2 80//2
