# SSTK version 0.8.0
# 21
mtllib original-21.mtl
o Group21/mesh16/mesh16-geometry#mesh16-geometry
v 0.563676 -0.498442 0.427376
v 0.568039 -0.489846 0.421929
v 0.568039 -0.498442 0.421929
v 0.563676 -0.489846 0.427376
v 0.573774 -0.498442 0.417713
v 0.564133 -0.498442 0.453354
v 0.560985 -0.498442 0.433684
v 0.564133 -0.489846 0.453354
v 0.573774 -0.489846 0.417713
v 0.568684 -0.498442 0.458667
v 0.561221 -0.498442 0.447131
v 0.560985 -0.489846 0.433684
v 0.568684 -0.489846 0.458667
v 0.561221 -0.489846 0.447131
v 0.580493 -0.498442 0.415016
v 0.574565 -0.498442 0.462708
v 0.560147 -0.498442 0.440422
v 0.574565 -0.489846 0.462708
v 0.580493 -0.489846 0.415016
v 0.560147 -0.489846 0.440422
v 0.587736 -0.498442 0.414021
v 0.581374 -0.498442 0.465201
v 0.581374 -0.489846 0.465201
v 0.587736 -0.489846 0.414021
v 0.595010 -0.498442 0.414797
v 0.588649 -0.498442 0.465977
v 0.588649 -0.489846 0.465977
v 0.595010 -0.489846 0.414797
v 0.601819 -0.498442 0.417290
v 0.595892 -0.498442 0.464982
v 0.595892 -0.489846 0.464982
v 0.601819 -0.489846 0.417290
v 0.607700 -0.498442 0.421331
v 0.602610 -0.498442 0.462285
v 0.602610 -0.489846 0.462285
v 0.607700 -0.489846 0.421331
v 0.612252 -0.489846 0.426644
v 0.608345 -0.498442 0.458071
v 0.608345 -0.489846 0.458071
v 0.612252 -0.498442 0.426644
v 0.615163 -0.489846 0.432867
v 0.612710 -0.489846 0.452620
v 0.612710 -0.498442 0.452620
v 0.615163 -0.498442 0.432867
v 0.616237 -0.489846 0.439576
v 0.615400 -0.489846 0.446314
v 0.615400 -0.498442 0.446314
v 0.616237 -0.498442 0.439576
vn -0.858075169812664 0 -0.5135241016261728
vn -0.6923213281735414 0 -0.7215893420471392
vn 0.6923213281735414 0 0.7215893420471392
vn 0.858075169812664 0 0.5135241016261728
vn -0.486261262802402 0 -0.8738134722569877
vn 0.486261262802402 0 0.8738134722569877
vn 0 -1 0
vn 0 1 0
vn -0.9654854180195536 0 -0.26045711276831707
vn 0.9654854180195536 0 0.26045711276831707
vn -0.2562259759448662 0 -0.9666169092515922
vn 0.2562259759448662 0 0.9666169092515922
vn -0.6685337906553614 0 0.7436817671235281
vn -0.8402818058848418 0 0.5421498747568878
vn 0.8402818058848418 0 -0.5421498747568878
vn 0.6685337906553614 0 -0.7436817671235281
vn -0.9558761241319932 0 0.29377003814956737
vn 0.9558761241319932 0 -0.29377003814956737
vn -0.9998465306871464 0 0.017518991776850196
vn 0.9998465306871464 0 -0.017518991776850196
vn -0.45867185624767587 0 0.8886057215021246
vn 0.45867185624767587 0 -0.8886057215021246
vn -0.01511099731540334 0 -0.9998858223618002
vn 0.01511099731540334 0 0.9998858223618002
vn -0.22662407096733872 0 0.9739823050026066
vn 0.22662407096733872 0 -0.9739823050026066
vn 0.4861791040613005 0 0.8738591870399665
vn -0.4861791040613005 0 -0.8738591870399665
vn 0.6922667315898953 0 0.7216417202004358
vn -0.6922667315898953 0 -0.7216417202004358
vn 0.8581361954062156 0 0.5134221169113634
vn -0.8581361954062156 0 -0.5134221169113634
vn 0.9655113179226537 0 0.26036108573145184
vn -0.9655113179226537 0 -0.26036108573145184
usemtl material_0_0
f 1//1 2//2 3//2
f 2//2 1//1 4//1
f 3//3 2//3 1//4
f 4//4 1//4 2//3
f 2//2 5//5 3//2
f 3//3 5//6 2//3
f 3//7 6//7 1//7
f 1//8 6//8 3//8
f 7//9 4//1 1//1
f 1//4 4//4 7//10
f 8//8 2//8 4//8
f 4//7 2//7 8//7
f 5//5 2//2 9//5
f 9//6 2//3 5//6
f 5//7 10//7 3//7
f 3//8 10//8 5//8
f 3//7 10//7 6//7
f 6//8 10//8 3//8
f 1//7 6//7 11//7
f 11//8 6//8 1//8
f 4//1 7//9 12//9
f 12//10 7//10 4//4
f 1//7 11//7 7//7
f 7//8 11//8 1//8
f 13//8 2//8 8//8
f 8//7 2//7 13//7
f 8//8 4//8 14//8
f 14//7 4//7 8//7
f 13//8 9//8 2//8
f 2//7 9//7 13//7
f 9//5 15//11 5//5
f 5//6 15//12 9//6
f 5//7 16//7 10//7
f 10//8 16//8 5//8
f 10//13 8//14 6//14
f 6//15 8//15 10//16
f 6//14 14//17 11//17
f 11//18 14//18 6//15
f 17//19 12//9 7//9
f 7//10 12//10 17//20
f 14//8 4//8 12//8
f 12//7 4//7 14//7
f 7//7 11//7 17//7
f 17//8 11//8 7//8
f 8//14 10//13 13//13
f 13//16 10//16 8//15
f 14//17 6//14 8//14
f 8//15 6//15 14//18
f 18//8 9//8 13//8
f 13//7 9//7 18//7
f 15//11 9//5 19//11
f 19//12 9//6 15//12
f 15//7 16//7 5//7
f 5//8 16//8 15//8
f 18//21 10//13 16//21
f 16//22 10//16 18//22
f 20//19 11//17 14//17
f 14//18 11//18 20//20
f 12//9 17//19 20//19
f 20//20 17//20 12//10
f 14//8 12//8 20//8
f 20//7 12//7 14//7
f 11//17 20//19 17//19
f 17//20 20//20 11//18
f 10//13 18//21 13//13
f 13//16 18//22 10//16
f 18//8 19//8 9//8
f 9//7 19//7 18//7
f 19//11 21//23 15//11
f 15//12 21//24 19//12
f 15//7 22//7 16//7
f 16//8 22//8 15//8
f 16//21 23//25 18//21
f 18//22 23//26 16//22
f 23//8 19//8 18//8
f 18//7 19//7 23//7
f 21//23 19//11 24//23
f 24//24 19//12 21//24
f 21//7 22//7 15//7
f 15//8 22//8 21//8
f 23//25 16//21 22//25
f 22//26 16//22 23//26
f 23//8 24//8 19//8
f 19//7 24//7 23//7
f 24//23 25//26 21//23
f 21//24 25//25 24//24
f 21//7 26//7 22//7
f 22//8 26//8 21//8
f 22//25 27//24 23//25
f 23//26 27//23 22//26
f 27//8 24//8 23//8
f 23//7 24//7 27//7
f 25//26 24//23 28//26
f 28//25 24//24 25//25
f 25//7 26//7 21//7
f 21//8 26//8 25//8
f 27//24 22//25 26//24
f 26//23 22//26 27//23
f 27//8 28//8 24//8
f 24//7 28//7 27//7
f 28//26 29//22 25//26
f 25//25 29//21 28//25
f 25//7 30//7 26//7
f 26//8 30//8 25//8
f 26//24 31//12 27//24
f 27//23 31//11 26//23
f 31//8 28//8 27//8
f 27//7 28//7 31//7
f 29//22 28//26 32//22
f 32//21 28//25 29//21
f 29//7 30//7 25//7
f 25//8 30//8 29//8
f 31//12 26//24 30//12
f 30//11 26//23 31//11
f 31//8 32//8 28//8
f 28//7 32//7 31//7
f 32//22 33//16 29//22
f 29//21 33//13 32//21
f 29//7 34//7 30//7
f 30//8 34//8 29//8
f 30//12 35//27 31//12
f 31//11 35//28 30//11
f 35//8 32//8 31//8
f 31//7 32//7 35//7
f 33//16 32//22 36//16
f 36//13 32//21 33//13
f 33//7 34//7 29//7
f 29//8 34//8 33//8
f 35//27 30//12 34//27
f 34//28 30//11 35//28
f 35//8 36//8 32//8
f 32//7 36//7 35//7
f 37//15 33//16 36//16
f 36//13 33//13 37//14
f 33//7 38//7 34//7
f 34//8 38//8 33//8
f 34//27 39//29 35//27
f 35//28 39//30 34//28
f 39//8 36//8 35//8
f 35//7 36//7 39//7
f 33//16 37//15 40//15
f 40//14 37//14 33//13
f 39//8 37//8 36//8
f 36//7 37//7 39//7
f 40//7 38//7 33//7
f 33//8 38//8 40//8
f 39//29 34//27 38//29
f 38//30 34//28 39//30
f 41//18 40//15 37//15
f 37//14 40//14 41//17
f 42//8 37//8 39//8
f 39//7 37//7 42//7
f 40//7 43//7 38//7
f 38//8 43//8 40//8
f 43//31 39//29 38//29
f 38//30 39//30 43//32
f 40//15 41//18 44//18
f 44//17 41//17 40//14
f 42//8 41//8 37//8
f 37//7 41//7 42//7
f 39//29 43//31 42//31
f 42//32 43//32 39//30
f 44//7 43//7 40//7
f 40//8 43//8 44//8
f 45//20 44//18 41//18
f 41//17 44//17 45//19
f 46//8 41//8 42//8
f 42//7 41//7 46//7
f 47//33 42//31 43//31
f 43//32 42//32 47//34
f 44//7 47//7 43//7
f 43//8 47//8 44//8
f 44//18 45//20 48//20
f 48//19 45//19 44//17
f 41//8 46//8 45//8
f 45//7 46//7 41//7
f 42//31 47//33 46//33
f 46//34 47//34 42//32
f 47//7 44//7 48//7
f 48//8 44//8 47//8
f 46//33 48//20 45//20
f 45//19 48//19 46//34
f 48//20 46//33 47//33
f 47//34 46//34 48//19
