# SSTK version 0.8.0
# 45
mtllib original-45.mtl
o Group20/mesh13/mesh13-geometry#mesh13-geometry
v -0.643163 -0.529315 0.434340
v -0.644161 -0.498442 0.427115
v -0.644161 -0.537933 0.427115
v -0.643163 -0.498442 0.434340
v -0.643397 -0.498442 0.419856
v -0.640468 -0.521317 0.441046
v -0.618183 -0.498442 0.426625
v -0.643397 -0.546590 0.419856
v -0.640468 -0.498442 0.441046
v -0.640922 -0.499763 0.413054
v -0.636255 -0.514481 0.446778
v -0.636255 -0.498442 0.446778
v -0.640922 -0.554704 0.413054
v -0.640922 -0.498442 0.413054
v -0.630804 -0.498442 0.451143
v -0.640922 -0.547424 0.383118
v -0.640922 -0.500491 0.383057
v -0.630804 -0.509275 0.451143
v -0.624483 -0.498442 0.453837
v -0.640922 -0.555828 0.413054
v -0.640922 -0.528861 0.383085
v -0.640922 -0.500881 0.383057
v -0.636898 -0.498442 0.407167
v -0.617726 -0.498442 0.454670
v -0.624483 -0.506061 0.453837
v -0.640922 -0.555828 0.383118
v -0.640405 -0.547424 0.383118
v -0.631593 -0.498442 0.402600
v -0.617726 -0.500277 0.454670
v -0.611001 -0.498442 0.453581
v -0.618300 -0.500372 0.454599
v -0.640922 -0.558755 0.412544
v -0.640405 -0.528861 0.383085
v -0.625365 -0.498442 0.399668
v -0.617289 -0.500372 0.454599
v -0.604773 -0.498442 0.450650
v -0.611001 -0.506366 0.453581
v -0.640922 -0.558755 0.383628
v -0.640405 -0.555828 0.413054
v -0.640405 -0.500863 0.412871
v -0.640405 -0.500881 0.383057
v -0.640406 -0.500455 0.383417
v -0.604773 -0.509863 0.450650
v -0.599468 -0.498442 0.446082
v -0.640922 -0.561483 0.411048
v -0.640406 -0.555828 0.383118
v -0.640405 -0.558755 0.412544
v -0.640405 -0.554704 0.413054
v -0.640405 -0.500491 0.383057
v -0.618639 -0.498442 0.398580
v -0.599468 -0.515310 0.446082
v -0.595444 -0.498442 0.440196
v -0.640922 -0.561483 0.385123
v -0.640405 -0.558755 0.383628
v -0.640405 -0.499763 0.413054
v -0.596011 -0.500863 0.412871
v -0.596011 -0.500491 0.383057
v -0.596011 -0.500456 0.383404
v -0.592969 -0.498442 0.433393
v -0.640922 -0.563825 0.408670
v -0.640405 -0.561483 0.411048
v -0.640405 -0.500473 0.412871
v -0.596011 -0.500881 0.383057
v -0.596010 -0.500436 0.383571
v -0.595444 -0.522331 0.440196
v -0.592205 -0.498442 0.426135
v -0.640922 -0.563825 0.387502
v -0.640405 -0.561483 0.385123
v -0.596012 -0.528861 0.383085
v -0.595495 -0.528861 0.383085
v -0.596011 -0.500473 0.412871
v -0.615260 -0.498442 0.398996
v -0.596011 -0.498521 0.412049
v -0.592969 -0.530445 0.433393
v -0.640922 -0.565622 0.405570
v -0.640405 -0.563825 0.387502
v -0.640405 -0.563825 0.408670
v -0.640405 -0.498442 0.413054
v -0.596012 -0.547424 0.383118
v -0.595495 -0.506287 0.383063
v -0.611883 -0.498442 0.399412
v -0.592205 -0.539102 0.426135
v -0.640922 -0.565622 0.390602
v -0.640405 -0.565622 0.390602
v -0.596012 -0.555828 0.413054
v -0.595495 -0.547424 0.383118
v -0.595495 -0.500881 0.383057
v -0.595495 -0.498442 0.413206
v -0.596011 -0.498442 0.413206
v -0.605562 -0.498442 0.402107
v -0.593203 -0.498442 0.418909
v -0.640922 -0.566752 0.401960
v -0.640405 -0.565622 0.405570
v -0.596012 -0.555828 0.383118
v -0.595495 -0.500491 0.383057
v -0.596011 -0.498442 0.413054
v -0.593203 -0.547720 0.418909
v -0.640922 -0.566752 0.394212
v -0.640405 -0.566752 0.394212
v -0.640405 -0.566752 0.401960
v -0.596012 -0.558755 0.383628
v -0.595495 -0.555828 0.413054
v -0.600111 -0.498442 0.406471
v -0.595797 -0.541399 0.412454
v -0.640922 -0.567138 0.398086
v -0.596012 -0.558755 0.412544
v -0.595495 -0.555828 0.383118
v -0.595495 -0.498442 0.413054
v -0.595898 -0.498442 0.412203
v -0.595847 -0.548559 0.412329
v -0.595747 -0.534240 0.412579
v -0.640405 -0.567138 0.398086
v -0.596011 -0.561483 0.411048
v -0.595495 -0.558755 0.383628
v -0.595495 -0.558755 0.412544
v -0.595898 -0.555718 0.412203
v -0.595696 -0.527080 0.412705
v -0.596012 -0.561483 0.385123
v -0.595646 -0.519921 0.412830
v -0.596011 -0.563825 0.408670
v -0.595495 -0.561483 0.411048
v -0.595495 -0.561483 0.385123
v -0.595596 -0.512761 0.412955
v -0.596012 -0.563825 0.387502
v -0.595495 -0.563825 0.387502
v -0.595545 -0.505602 0.413081
v -0.596011 -0.565622 0.390602
v -0.595495 -0.563825 0.408670
v -0.596011 -0.565622 0.405570
v -0.595495 -0.565622 0.390602
v -0.595495 -0.565622 0.405570
v -0.596011 -0.566752 0.394212
v -0.595495 -0.566752 0.394212
v -0.596011 -0.566752 0.401960
v -0.595495 -0.566752 0.401960
v -0.596011 -0.567138 0.398086
v -0.595495 -0.567138 0.398086
vn -0.966473313128706 0 0.25676708319023756
vn -0.9998683334796415 0 0.016227005412088536
vn -0.9743670721104739 0 -0.2249640166490251
vn -0.8737357682429289 0 0.48640087098291573
vn -0.9397188902102991 0 -0.34194796004936723
vn -0.7215712223734928 0 0.6923402133650937
vn 1 -9.999999999914998e-7 -0.000003999999999965999
vn -0.5133339601455228 0 0.858188933371501
vn -0.05508899924762199 0.9949849864109925 -0.08348699885977633
vn -0.09918799418282269 0.9927559417768512 -0.06780399602343136
vn -0.08144102054667623 0.9941542508142135 -0.07088501788351255
vn -0.259761916931659 0 0.9656726911909593
vn -0.000002000000090071006 -0.0013820000622390652 -0.999999045035458
vn -0.0000040000017129031 -0.0017730007592442992 -0.9999984282249187
vn 0 -0.0009909995133792228 -0.9999995089598617
vn -0.05189400356166722 0.9954760683230092 -0.07958900546247219
vn 0.018905005377850934 0 0.9998212844162018
vn -0.1223160251397987 0 0.9924912039882269
vn -0.02869000399443781 0.9949661385266577 -0.09601701336820967
vn 0.15974699832481312 0 0.9871579896481678
vn 0.29569089826209366 0 0.9552836713170366
vn 0.000004000000382348055 -0.33065103160594167 0.943753090210531
vn 0.0000049999980409061525 -0.17165793274117366 0.9851566139969964
vn 1 0 -0.000005999999999892
vn -0.008611995725157093 0.9928605071615416 -0.11896994094541795
vn 0.544163235892093 0 0.8389793636934382
vn -0.000026999997471328852 -0.17166198392308346 -0.9851559077357203
vn -0.000016000006046651426 -0.33065312495896465 -0.9437523566587113
vn 0.00002599999084917483 0.658746768150822 -0.7523647352015161
vn -0.0011749995927011494 0.9932046557180808 -0.11637495966008192
vn 0.7453190115431283 0 0.6667080103256404
vn 0.000003999998356345013 -0.6030337522050396 0.7977156722075296
vn 0 -0.999999819399549 0.0006009998914591289
vn 0.006869001365677815 0.9926101973482976 -0.12115202408714494
vn 0.8896085618425373 0 0.45672377505057954
vn -0.000003999998356345013 -0.6030337522050396 -0.7977156722075296
vn 0.02550699440278402 0.9947217817197681 -0.09938797819045353
vn 0.9743670721104739 0 0.2249640166490251
vn 0.0000029999990601694414 -0.7951507508975972 0.606411810025157
vn -1 0.0000049999999998975 -0.000003999999999917999
vn 0.013697995484018196 0.9937076723925211 -0.11116396335124827
vn 0.9998683334796415 0 -0.016227005412088536
vn -0.0000029999990601694414 -0.7951507508975972 -0.606411810025157
vn 0.0000020000002389670424 -0.9153751093722283 0.40260204810430467
vn -0.0000020000002389670424 -0.9153751093722283 -0.40260204810430467
vn -0.000005000002141106375 -0.0017730007592363204 -0.9999984282204185
vn 0.04877398700883081 0.9954867348476638 -0.08140797831662153
vn 0.966473313128706 0 -0.25676708319023756
vn 0.0833540046763265 0.9937120557492355 -0.07475600419396147
vn 0.00000100000021583707 -0.9798222114819096 0.19987104313957102
vn -0.00000100000021583707 -0.9798222114819096 -0.19987104313957102
vn -0.00000300000019839152 -0.08747100578450154 0.9961670658770284
vn -0.000010000004807378468 -0.002653001275397507 0.9999964807359237
vn 0.07674400649649554 0.9944560841822028 -0.07188500608517386
vn 0.9278940354585433 0 -0.37284401424786145
vn -0.0000049999980409061525 -0.17165793274117366 -0.9851566139969964
vn -0.00000500000047791257 -0.3306510316044538 -0.9437530902062842
vn 0.07871297428235026 0.9958616746251558 -0.04542898515712639
vn 0 -1 0
vn 0.07140703074005497 0.9968734291446333 -0.033829014563072524
vn 0 1 0
vn 0.8737357682429289 0 -0.48640087098291573
vn 0.9397188902102991 0 0.34194796004936723
vn 0.7215712223734928 0 -0.6923402133650937
vn -1 9.999999999914998e-7 0.000003999999999965999
vn 0.5133339601455228 0 -0.858188933371501
vn 0.08144102054667623 -0.9941542508142135 0.07088501788351255
vn 0.09918799418282269 -0.9927559417768512 0.06780399602343136
vn 0.05508899924762199 -0.9949849864109925 0.08348699885977633
vn 0.259761916931659 0 -0.9656726911909593
vn 0.0000040000017129031 0.0017730007592442992 0.9999984282249187
vn 0.000002000000090071006 0.0013820000622390652 0.999999045035458
vn 0 0.0009909995133792228 0.9999995089598617
vn 0.05189400356166722 -0.9954760683230092 0.07958900546247219
vn -0.018905005377850934 0 -0.9998212844162018
vn 0.1223160251397987 0 -0.9924912039882269
vn 0.02869000399443781 -0.9949661385266577 0.09601701336820967
vn -0.15974699832481312 0 -0.9871579896481678
vn -0.29569089826209366 0 -0.9552836713170366
vn -0.0000049999980409061525 0.17165793274117366 -0.9851566139969964
vn -0.000004000000382348055 0.33065103160594167 -0.943753090210531
vn -1 0 0.000005999999999892
vn 0.008611995725157093 -0.9928605071615416 0.11896994094541795
vn -0.544163235892093 0 -0.8389793636934382
vn 0.000026999997471328852 0.17166198392308346 0.9851559077357203
vn 0.000016000006046651426 0.33065312495896465 0.9437523566587113
vn -0.00002599999084917483 -0.658746768150822 0.7523647352015161
vn 0.0011749995927011494 -0.9932046557180808 0.11637495966008192
vn -0.7453190115431283 0 -0.6667080103256404
vn -0.000003999998356345013 0.6030337522050396 -0.7977156722075296
vn 0 0.999999819399549 -0.0006009998914591289
vn -0.006869001365677815 -0.9926101973482976 0.12115202408714494
vn -0.8896085618425373 0 -0.45672377505057954
vn 0.000003999998356345013 0.6030337522050396 0.7977156722075296
vn -0.02550699440278402 -0.9947217817197681 0.09938797819045353
vn -0.0000029999990601694414 0.7951507508975972 -0.606411810025157
vn 1 -0.0000049999999998975 0.000003999999999917999
vn -0.013697995484018196 -0.9937076723925211 0.11116396335124827
vn 0.0000029999990601694414 0.7951507508975972 0.606411810025157
vn -0.0000020000002389670424 0.9153751093722283 -0.40260204810430467
vn 0.0000020000002389670424 0.9153751093722283 0.40260204810430467
vn 0.000005000002141106375 0.0017730007592363204 0.9999984282204185
vn -0.04877398700883081 -0.9954867348476638 0.08140797831662153
vn -0.0833540046763265 -0.9937120557492355 0.07475600419396147
vn -0.00000100000021583707 0.9798222114819096 -0.19987104313957102
vn 0.00000100000021583707 0.9798222114819096 0.19987104313957102
vn 0.00000300000019839152 0.08747100578450154 -0.9961670658770284
vn 0.000010000004807378468 0.002653001275397507 -0.9999964807359237
vn -0.07674400649649554 -0.9944560841822028 0.07188500608517386
vn -0.9278940354585433 0 0.37284401424786145
vn 0.0000049999980409061525 0.17165793274117366 0.9851566139969964
vn 0.00000500000047791257 0.3306510316044538 0.9437530902062842
vn -0.07871297428235026 -0.9958616746251558 0.04542898515712639
vn -0.07140703074005497 -0.9968734291446333 0.033829014563072524
usemtl material_0_0
f 1//1 2//2 3//2
f 2//2 1//1 4//1
f 5//3 3//2 2//2
f 6//4 4//1 1//1
f 3//2 5//3 8//3
f 4//1 6//4 9//4
f 10//5 8//3 5//3
f 11//6 9//4 6//4
f 8//3 10//5 13//5
f 10//5 5//3 14//5
f 9//4 11//6 12//6
f 13//7 16//7 10//7
f 10//7 17//7 14//7
f 18//8 12//6 11//6
f 12//6 18//8 15//8
f 20//7 16//7 13//7
f 10//7 16//7 21//7
f 10//7 22//7 17//7
f 17//9 14//10 23//11
f 15//8 25//12 19//12
f 25//12 15//8 18//8
f 20//7 26//7 16//7
f 21//13 27//14 16//14
f 10//7 21//7 22//7
f 17//15 21//13 22//15
f 17//9 23//11 28//16
f 19//12 29//17 24//17
f 31//18 19//12 25//12
f 32//7 26//7 20//7
f 27//14 21//13 33//13
f 17//15 33//13 21//13
f 17//9 28//16 34//19
f 29//17 19//12 31//18
f 35//20 24//17 29//17
f 24//17 37//21 30//21
f 32//7 38//7 26//7
f 32//22 39//23 20//23
f 40//24 27//24 33//24
f 17//15 41//15 33//13
f 34//19 42//25 17//9
f 37//21 24//17 35//20
f 30//21 43//26 36//26
f 43//26 30//21 37//21
f 45//7 38//7 32//7
f 46//27 38//28 26//27
f 39//23 32//22 47//22
f 48//24 27//24 40//24
f 40//24 33//24 41//24
f 49//29 41//15 17//15
f 42//25 34//19 50//30
f 51//31 36//26 43//26
f 36//26 51//31 44//31
f 45//7 53//7 38//7
f 45//32 47//22 32//22
f 38//28 46//27 54//28
f 47//24 46//24 39//24
f 39//24 27//24 48//24
f 48//24 40//24 55//24
f 41//33 56//33 40//33
f 57//29 41//15 49//29
f 58//34 42//25 50//30
f 51//31 52//35 44//31
f 60//7 53//7 45//7
f 54//28 53//36 38//28
f 47//22 45//32 61//32
f 47//24 54//24 46//24
f 39//24 46//24 27//24
f 55//24 40//24 62//24
f 56//33 41//33 63//33
f 57//29 63//15 41//15
f 49//29 58//34 57//29
f 42//25 58//34 49//29
f 50//30 64//37 58//34
f 52//35 51//31 65//35
f 65//35 59//38 52//35
f 60//7 67//7 53//7
f 60//39 61//32 45//32
f 53//36 54//28 68//36
f 61//24 54//24 47//24
f 55//24 62//24 42//24
f 69//40 56//40 63//40
f 57//29 70//13 63//15
f 58//40 57//40 71//40
f 42//24 62//24 49//24
f 72//41 64//37 50//30
f 58//40 73//40 64//40
f 59//38 65//35 74//38
f 74//38 66//42 59//38
f 75//7 67//7 60//7
f 53//36 76//43 67//43
f 61//32 60//39 77//39
f 61//24 68//24 54//24
f 76//43 53//36 68//36
f 55//24 42//24 78//24
f 79//40 56//40 69//40
f 69//13 63//15 70//13
f 57//29 80//15 70//13
f 71//40 73//40 58//40
f 64//37 72//41 81//37
f 66//42 74//38 82//42
f 75//7 83//7 67//7
f 75//44 77//39 60//39
f 84//45 67//43 76//43
f 77//24 68//24 61//24
f 77//24 76//24 68//24
f 79//40 85//40 56//40
f 69//13 86//46 79//46
f 86//46 69//13 70//13
f 57//29 87//15 80//15
f 88//7 70//7 80//7
f 71//40 89//40 73//40
f 90//47 64//37 81//37
f 82//42 91//48 66//42
f 92//7 83//7 75//7
f 67//43 84//45 83//45
f 77//39 75//44 93//44
f 93//24 84//24 76//24
f 93//24 76//24 77//24
f 94//40 85//40 79//40
f 56//40 85//40 89//40
f 88//7 86//7 70//7
f 87//15 57//29 95//15
f 88//7 80//7 87//7
f 56//40 89//40 71//40
f 73//40 89//40 96//40
f 64//37 90//47 95//49
f 91//48 82//42 97//48
f 92//7 98//7 83//7
f 92//50 93//44 75//44
f 99//51 83//45 84//45
f 100//24 84//24 93//24
f 101//40 85//40 94//40
f 102//52 89//53 85//52
f 102//7 86//7 88//7
f 88//7 87//7 95//7
f 95//49 90//47 103//54
f 97//48 104//55 91//48
f 98//7 92//7 105//7
f 83//45 99//51 98//51
f 93//44 92//50 100//50
f 100//24 99//24 84//24
f 101//40 106//40 85//40
f 107//56 101//57 94//56
f 89//53 102//52 88//53
f 106//22 102//52 85//52
f 102//7 107//7 86//7
f 88//7 95//7 108//7
f 95//49 103//54 109//58
f 97//48 110//55 104//55
f 91//48 104//55 111//55
f 105//59 100//50 92//50
f 98//51 112//59 105//59
f 112//59 98//51 99//51
f 99//24 100//24 112//24
f 101//40 113//40 106//40
f 101//57 107//56 114//57
f 102//52 106//22 115//22
f 115//7 107//7 102//7
f 95//49 109//58 108//60
f 109//58 88//61 108//60
f 110//55 97//48 116//55
f 91//48 111//55 117//55
f 100//50 105//59 112//59
f 118//40 113//40 101//40
f 113//32 115//22 106//22
f 115//7 114//7 107//7
f 114//57 118//36 101//57
f 91//48 117//55 119//55
f 118//40 120//40 113//40
f 115//22 113//32 121//32
f 121//7 114//7 115//7
f 118//36 114//57 122//36
f 91//48 119//55 123//55
f 124//40 120//40 118//40
f 120//39 121//32 113//32
f 121//7 122//7 114//7
f 125//43 118//36 122//36
f 91//48 123//55 126//55
f 127//40 120//40 124//40
f 118//36 125//43 124//43
f 121//32 120//39 128//39
f 128//7 122//7 121//7
f 128//7 125//7 122//7
f 91//48 126//55 88//55
f 127//40 129//40 120//40
f 124//43 130//45 127//45
f 130//45 124//43 125//43
f 129//44 128//39 120//39
f 131//7 125//7 128//7
f 132//40 129//40 127//40
f 133//51 127//45 130//45
f 131//7 130//7 125//7
f 128//39 129//44 131//44
f 132//40 134//40 129//40
f 127//45 133//51 132//51
f 135//7 133//7 130//7
f 135//7 130//7 131//7
f 134//50 131//44 129//44
f 134//40 132//40 136//40
f 137//59 132//51 133//51
f 133//7 135//7 137//7
f 131//44 134//50 135//50
f 132//51 137//59 136//59
f 136//59 135//50 134//50
f 135//50 136//59 137//59
usemtl material_1_0
f 3//42 2//42 1//48
f 4//48 1//48 2//42
f 2//42 3//42 5//38
f 1//48 4//48 6//62
f 8//38 5//38 3//42
f 9//62 6//62 4//48
f 5//38 8//38 10//63
f 6//62 9//62 11//64
f 13//63 10//63 8//38
f 14//63 5//38 10//63
f 12//64 11//64 9//62
f 10//65 16//65 13//65
f 14//65 17//65 10//65
f 11//64 12//64 18//66
f 15//66 18//66 12//64
f 13//65 16//65 20//65
f 21//65 16//65 10//65
f 17//65 22//65 10//65
f 23//67 14//68 17//69
f 19//70 25//70 15//66
f 18//66 15//66 25//70
f 16//65 26//65 20//65
f 16//71 27//71 21//72
f 22//65 21//65 10//65
f 22//73 21//72 17//73
f 28//74 23//67 17//69
f 24//75 29//75 19//70
f 25//70 19//70 31//76
f 20//65 26//65 32//65
f 33//72 21//72 27//71
f 21//72 33//72 17//73
f 34//77 28//74 17//69
f 31//76 19//70 29//75
f 29//75 24//75 35//78
f 30//79 37//79 24//75
f 26//65 38//65 32//65
f 20//80 39//80 32//81
f 33//82 27//82 40//82
f 33//72 41//73 17//73
f 17//69 42//83 34//77
f 35//78 24//75 37//79
f 36//84 43//84 30//79
f 37//79 30//79 43//84
f 32//65 38//65 45//65
f 26//85 38//86 46//85
f 47//81 32//81 39//80
f 40//82 27//82 48//82
f 41//82 33//82 40//82
f 17//73 41//73 49//87
f 50//88 34//77 42//83
f 43//84 36//84 51//89
f 44//89 51//89 36//84
f 38//65 53//65 45//65
f 32//81 47//81 45//90
f 54//86 46//85 38//86
f 39//82 46//82 47//82
f 48//82 27//82 39//82
f 55//82 40//82 48//82
f 40//91 56//91 41//91
f 49//87 41//73 57//87
f 50//88 42//83 58//92
f 44//89 52//93 51//89
f 45//65 53//65 60//65
f 38//86 53//94 54//86
f 61//90 45//90 47//81
f 46//82 54//82 47//82
f 27//82 46//82 39//82
f 62//82 40//82 55//82
f 63//91 41//91 56//91
f 41//73 63//73 57//87
f 57//87 58//92 49//87
f 49//87 58//92 42//83
f 58//92 64//95 50//88
f 65//93 51//89 52//93
f 52//93 59//3 65//93
f 53//65 67//65 60//65
f 45//90 61//90 60//96
f 68//94 54//86 53//94
f 47//82 54//82 61//82
f 42//82 62//82 55//82
f 63//97 56//97 69//97
f 63//73 70//72 57//87
f 71//97 57//97 58//97
f 49//82 62//82 42//82
f 50//88 64//95 72//98
f 64//97 73//97 58//97
f 74//3 65//93 59//3
f 59//3 66//2 74//3
f 60//65 67//65 75//65
f 67//99 76//99 53//94
f 77//96 60//96 61//90
f 54//82 68//82 61//82
f 68//94 53//94 76//99
f 78//82 42//82 55//82
f 69//97 56//97 79//97
f 70//72 63//73 69//72
f 70//72 80//73 57//87
f 58//97 73//97 71//97
f 81//95 72//98 64//95
f 82//2 74//3 66//2
f 67//65 83//65 75//65
f 60//96 77//96 75//100
f 76//99 67//99 84//101
f 61//82 68//82 77//82
f 68//82 76//82 77//82
f 56//97 85//97 79//97
f 79//102 86//102 69//72
f 70//72 69//72 86//102
f 80//73 87//73 57//87
f 80//65 70//65 88//65
f 73//97 89//97 71//97
f 81//95 64//95 90//103
f 66//2 91//1 82//2
f 75//65 83//65 92//65
f 83//101 84//101 67//99
f 93//100 75//100 77//96
f 76//82 84//82 93//82
f 77//82 76//82 93//82
f 79//97 85//97 94//97
f 89//97 85//97 56//97
f 70//65 86//65 88//65
f 95//73 57//87 87//73
f 87//65 80//65 88//65
f 71//97 89//97 56//97
f 96//97 89//97 73//97
f 95//104 90//103 64//95
f 97//1 82//2 91//1
f 83//65 98//65 92//65
f 75//100 93//100 92//105
f 84//101 83//101 99//106
f 93//82 84//82 100//82
f 94//97 85//97 101//97
f 85//107 89//108 102//107
f 88//65 86//65 102//65
f 95//65 87//65 88//65
f 103//109 90//103 95//104
f 91//1 104//110 97//1
f 105//65 92//65 98//65
f 98//106 99//106 83//101
f 100//105 92//105 93//100
f 84//82 99//82 100//82
f 85//97 106//97 101//97
f 94//111 101//112 107//111
f 88//108 102//107 89//108
f 85//107 102//107 106//81
f 86//65 107//65 102//65
f 108//65 95//65 88//65
f 109//113 103//109 95//104
f 104//110 110//110 97//1
f 111//110 104//110 91//1
f 92//105 100//105 105//61
f 105//61 112//61 98//106
f 99//106 98//106 112//61
f 112//82 100//82 99//82
f 106//97 113//97 101//97
f 114//112 107//111 101//112
f 115//81 106//81 102//107
f 102//65 107//65 115//65
f 108//114 109//113 95//104
f 108//114 88//59 109//113
f 116//110 97//1 110//110
f 117//110 111//110 91//1
f 112//61 105//61 100//105
f 101//97 113//97 118//97
f 106//81 115//81 113//90
f 107//65 114//65 115//65
f 101//112 118//94 114//112
f 119//110 117//110 91//1
f 113//97 120//97 118//97
f 121//90 113//90 115//81
f 115//65 114//65 121//65
f 122//94 114//112 118//94
f 123//110 119//110 91//1
f 118//97 120//97 124//97
f 113//90 121//90 120//96
f 114//65 122//65 121//65
f 122//94 118//94 125//99
f 126//110 123//110 91//1
f 124//97 120//97 127//97
f 124//99 125//99 118//94
f 128//96 120//96 121//90
f 121//65 122//65 128//65
f 122//65 125//65 128//65
f 88//110 126//110 91//1
f 120//97 129//97 127//97
f 127//101 130//101 124//99
f 125//99 124//99 130//101
f 120//96 128//96 129//100
f 128//65 125//65 131//65
f 127//97 129//97 132//97
f 130//101 127//101 133//106
f 125//65 130//65 131//65
f 131//100 129//100 128//96
f 129//97 134//97 132//97
f 132//106 133//106 127//101
f 130//65 133//65 135//65
f 131//65 130//65 135//65
f 129//100 131//100 134//105
f 136//97 132//97 134//97
f 133//106 132//106 137//61
f 137//65 135//65 133//65
f 135//105 134//105 131//100
f 136//61 137//61 132//106
f 134//105 135//105 136//61
f 137//61 136//61 135//105
usemtl material_2_0
f 4//61 7//61 2//61
f 2//59 7//59 4//59
f 9//61 7//61 4//61
f 4//59 7//59 9//59
f 12//61 7//61 9//61
f 9//59 7//59 12//59
f 15//61 7//61 12//61
f 12//59 7//59 15//59
f 19//61 7//61 15//61
f 15//59 7//59 19//59
f 7//61 19//61 24//61
f 24//59 19//59 7//59
f 30//61 7//61 24//61
f 24//59 7//59 30//59
f 7//61 30//61 36//61
f 36//59 30//59 7//59
f 7//61 36//61 44//61
f 44//59 36//59 7//59
f 7//61 44//61 52//61
f 52//59 44//59 7//59
f 7//61 52//61 59//61
f 59//59 52//59 7//59
f 7//61 59//61 66//61
f 66//59 59//59 7//59
