# Blender v2.93.5 OBJ File: ''
# www.blender.org
mtllib secondFingerLink.mtl
o secondFingerLink
v -0.005700 -0.026163 -0.013891
v 0.005900 -0.026163 -0.013891
v -0.009700 -0.059000 0.005977
v 0.009900 -0.059000 0.005977
v 0.009900 -0.059000 -0.008479
v -0.009700 -0.059000 -0.008479
v -0.005700 -0.055171 -0.012647
v 0.005900 -0.055171 -0.012647
v -0.005700 -0.055171 0.010145
v 0.005900 -0.055171 0.010145
v 0.009900 -0.016000 0.007650
v 0.009900 -0.016000 -0.006436
v -0.009700 -0.016000 -0.006436
v -0.009700 -0.016000 0.007650
v 0.005900 -0.020171 0.011646
v -0.005700 -0.020171 0.011646
v -0.004560 -0.020171 0.011646
v -0.005700 -0.020171 0.011646
v -0.005700 -0.055171 0.010145
v -0.005700 -0.055171 -0.012647
v -0.005700 -0.026163 -0.013891
v 0.005900 -0.026163 -0.013891
v 0.005900 -0.055171 -0.012647
v -0.009700 -0.059000 -0.008479
v -0.005700 -0.055171 -0.012647
v -0.004550 -0.058769 -0.009991
v 0.005900 -0.055171 -0.012647
v 0.002950 -0.058769 -0.009991
v 0.009900 -0.059000 -0.008479
v -0.004560 -0.016000 -0.006436
v -0.009700 -0.016000 0.007650
v -0.004560 -0.016000 0.007650
v -0.009700 -0.016000 -0.006436
v -0.002950 -0.016000 -0.011825
v -0.002950 -0.016000 0.007650
v -0.004550 -0.016000 -0.011825
v 0.009900 -0.016000 0.007650
v 0.002960 -0.016000 -0.006436
v 0.002960 -0.016000 0.007650
v 0.009900 -0.016000 -0.006436
v 0.002960 -0.059000 0.006149
v 0.002960 -0.059000 -0.008479
v 0.009900 -0.059000 -0.008479
v 0.009900 -0.059000 0.005977
v -0.009700 -0.059000 -0.008479
v -0.004560 -0.059000 -0.008479
v -0.004560 -0.059000 0.006149
v -0.009700 -0.059000 0.005977
v -0.004550 -0.058769 -0.009991
v 0.002950 -0.058769 -0.009991
v -0.005700 -0.055171 0.010145
v -0.004560 -0.055171 0.010145
v 0.005900 -0.055171 0.010145
v 0.002960 -0.055171 0.010145
v 0.002950 -0.020966 -0.011612
v 0.005900 -0.026163 -0.013891
v -0.005700 -0.026163 -0.013891
v -0.004550 -0.020966 -0.011612
v -0.004560 -0.020171 0.011646
v -0.005700 -0.020171 0.011646
v -0.002950 -0.020171 0.011646
v 0.002960 -0.020171 0.011646
v 0.005900 -0.020171 0.011646
v 0.002960 -0.016000 -0.006436
v 0.002950 -0.020966 -0.011612
v 0.002950 -0.000536 -0.012489
v 0.002950 -0.000536 0.012489
v 0.002960 -0.016000 0.007650
v 0.002960 -0.020171 0.011646
v 0.002950 0.002802 -0.012182
v 0.002950 0.002802 0.012182
v 0.002950 0.005938 -0.011000
v 0.002950 0.005938 0.011000
v 0.002950 0.008647 -0.009026
v 0.002950 0.008647 0.009026
v 0.002950 0.010735 -0.006404
v 0.002950 0.010735 0.006404
v 0.002950 0.012051 -0.003321
v 0.002950 0.012500 0.000000
v 0.002950 0.012051 0.003321
v 0.002960 -0.059000 0.006149
v 0.002960 -0.055171 0.010145
v 0.002950 -0.070407 0.009491
v 0.002960 -0.059000 -0.008479
v 0.002950 -0.073244 0.008929
v 0.002950 -0.075780 0.007540
v 0.002950 -0.073244 -0.008929
v 0.002950 -0.077780 0.005451
v 0.002950 -0.075780 -0.007540
v 0.002950 -0.079060 0.002858
v 0.002950 -0.077780 -0.005451
v 0.002950 -0.079500 0.000000
v 0.002950 -0.079060 -0.002858
v 0.002950 -0.070407 -0.009491
v 0.002950 -0.058769 -0.009991
v -0.004560 -0.059000 -0.008479
v -0.004550 -0.058769 -0.009991
v -0.004550 -0.070407 -0.009491
v -0.004550 -0.073244 -0.008929
v -0.004550 -0.075780 0.007540
v -0.004550 -0.073244 0.008929
v -0.004560 -0.059000 0.006149
v -0.004550 -0.077780 0.005451
v -0.004550 -0.075780 -0.007540
v -0.004550 -0.079060 0.002858
v -0.004550 -0.077780 -0.005451
v -0.004550 -0.079500 0.000000
v -0.004550 -0.079060 -0.002858
v -0.004550 -0.070407 0.009491
v -0.004560 -0.055171 0.010145
v -0.002950 -0.016000 0.007650
v -0.002950 -0.020171 0.011646
v -0.002950 -0.000536 0.012489
v -0.002950 -0.016000 -0.011825
v -0.002950 -0.000536 -0.012489
v -0.002950 0.002802 0.012182
v -0.002950 0.002802 -0.012182
v -0.002950 0.005938 -0.011000
v -0.002950 0.005938 0.011000
v -0.002950 0.008647 -0.009026
v -0.002950 0.008647 0.009026
v -0.002950 0.010735 0.006404
v -0.002950 0.010735 -0.006404
v -0.002950 0.012051 0.003321
v -0.002950 0.012051 -0.003321
v -0.002950 0.012500 0.000000
v 0.002950 -0.020966 -0.011612
v -0.004550 -0.020966 -0.011612
v -0.004550 -0.016000 -0.011825
v 0.002950 -0.000536 -0.012489
v -0.002950 -0.016000 -0.011825
v -0.002950 -0.000536 -0.012489
v -0.002950 -0.020171 0.011646
v 0.002960 -0.020171 0.011646
v 0.002950 -0.000536 0.012489
v -0.002950 -0.000536 0.012489
v -0.002950 0.002802 0.012182
v 0.002950 0.002802 0.012182
v -0.002950 0.008647 0.009026
v 0.002950 0.005938 0.011000
v 0.002950 0.008647 0.009026
v -0.002950 0.005938 0.011000
v -0.002950 0.010735 0.006404
v -0.002950 0.008647 -0.009026
v -0.002950 0.010735 -0.006404
v 0.002950 0.010735 -0.006404
v 0.002950 0.008647 -0.009026
v 0.002950 0.010735 0.006404
v -0.002950 0.005938 -0.011000
v 0.002950 0.005938 -0.011000
v -0.002950 0.002802 -0.012182
v 0.002950 0.002802 -0.012182
v -0.002950 0.012051 0.003321
v 0.002950 0.012051 0.003321
v -0.002950 0.012500 0.000000
v 0.002950 0.012500 0.000000
v -0.002950 0.012051 -0.003321
v 0.002950 0.012051 -0.003321
v -0.004550 -0.058769 -0.009991
v 0.002950 -0.058769 -0.009991
v 0.002950 -0.070407 -0.009491
v -0.004550 -0.070407 -0.009491
v 0.002950 -0.073244 -0.008929
v -0.004550 -0.073244 -0.008929
v 0.002950 -0.075780 -0.007540
v 0.002950 -0.077780 -0.005451
v -0.004550 -0.075780 -0.007540
v 0.002950 -0.079060 -0.002858
v -0.004550 -0.077780 -0.005451
v -0.004550 -0.079060 -0.002858
v 0.002950 -0.079500 0.000000
v -0.004550 -0.079500 0.000000
v 0.002950 -0.079060 0.002858
v -0.004550 -0.079060 0.002858
v 0.002950 -0.077780 0.005451
v -0.004550 -0.077780 0.005451
v 0.002950 -0.075780 0.007540
v -0.004550 -0.075780 0.007540
v 0.002950 -0.073244 0.008929
v -0.004550 -0.073244 0.008929
v 0.002950 -0.070407 0.009491
v -0.004550 -0.070407 0.009491
v -0.004560 -0.055171 0.010145
v 0.002960 -0.055171 0.010145
v 0.005900 -0.055171 0.010145
v 0.005900 -0.020171 0.011646
v -0.005700 -0.055171 0.010145
v -0.004560 -0.020171 0.011646
v -0.004560 -0.016000 -0.006436
v -0.004550 -0.016000 -0.011825
v -0.004550 -0.020966 -0.011612
vt 0.718742 0.583840
vt 0.718742 0.596996
vt 0.314811 0.596996
vt 0.209184 0.979416
vt 0.209184 1.026573
vt 0.801020 1.026573
vt 0.801020 0.979416
vt 0.349490 0.210008
vt 0.267347 0.210008
vt 0.267347 0.058529
vt 0.247851 0.866993
vt 0.201688 0.915129
vt 0.188531 0.866993
vt 0.188531 0.915129
vt 0.349490 0.058529
vt 0.655896 0.495800
vt 0.655896 0.543937
vt 0.621966 0.543937
vt 0.575802 0.495800
vt 0.651020 0.743973
vt 0.650510 0.940182
vt 0.650510 0.973427
vt 0.650510 0.026573
vt 0.651020 0.210008
vt 0.651020 0.058529
vt 0.650510 0.961789
vt 0.650510 0.038211
vt 0.650510 0.916983
vt 0.650510 0.083017
vt 0.650510 0.842153
vt 0.650510 0.157847
vt 0.650510 0.742760
vt 0.650510 0.257240
vt 0.650510 0.625891
vt 0.650510 0.500000
vt 0.650510 0.374109
vt 0.651020 0.266907
vt 0.651020 0.115428
vt 0.650510 0.140220
vt 0.651020 0.821418
vt 0.650510 0.161524
vt 0.650510 0.214177
vt 0.650510 0.838476
vt 0.650510 0.293366
vt 0.650510 0.785823
vt 0.650510 0.391660
vt 0.650510 0.706634
vt 0.650510 0.500000
vt 0.650510 0.608340
vt 0.650510 0.859780
vt 0.650510 0.878734
vt 0.250078 0.712238
vt 0.253394 0.729576
vt 0.118960 0.728827
vt 0.085999 0.723569
vt 0.049651 0.534729
vt 0.078300 0.517616
vt 0.243772 0.543536
vt 0.027486 0.559683
vt 0.056153 0.708643
vt 0.013842 0.590139
vt 0.032186 0.685413
vt 0.010000 0.623290
vt 0.016307 0.656061
vt 0.110776 0.509912
vt 0.286208 0.495800
vt 0.860062 0.249239
vt 0.906354 0.297208
vt 0.679541 0.298046
vt 0.868873 0.024654
vt 0.690843 0.010000
vt 0.641186 0.292996
vt 0.652210 0.012030
vt 0.615511 0.024242
vt 0.605557 0.277946
vt 0.583377 0.045780
vt 0.575210 0.253956
vt 0.552317 0.222774
vt 0.558112 0.075073
vt 0.538536 0.186626
vt 0.541541 0.110030
vt 0.534861 0.148125
vt 0.650510 0.940182
vt 0.267857 0.940182
vt 0.267857 0.948256
vt 0.349490 0.948256
vt 0.247846 0.367253
vt 0.247846 0.333323
vt 0.651776 0.333323
vt 0.651776 0.367253
vt 0.247846 0.454040
vt 0.651776 0.435459
vt 0.247846 0.467197
vt 0.651776 0.454040
vt 0.927806 0.010000
vt 0.990000 0.010000
vt 0.987542 0.067312
vt 1.005102 0.273427
vt 1.005102 0.821418
vt 1.005102 0.743973
vt 1.005102 0.210008
vt 0.801020 0.058529
vt 0.801020 0.115428
vt 0.801020 0.979416
vt 0.801020 1.026573
vt 0.010000 0.075425
vt 0.506257 0.218682
vt 0.010000 0.242260
vt 0.506257 0.056117
vt 0.054190 0.027323
vt 0.458120 0.010000
vt 0.388967 0.304719
vt 0.054190 0.290362
vt 0.005102 0.821418
vt 0.209184 0.979416
vt 0.267857 0.878734
vt 0.801020 0.979416
vt 0.650510 0.878734
vt 1.005102 0.821418
vt 0.267347 0.743973
vt 0.005102 0.210008
vt 0.005102 0.743973
vt 0.349490 0.948256
vt 0.267857 0.948256
vt 1.005102 0.210008
vt 0.651020 0.743973
vt 0.651020 0.210008
vt 1.005102 0.743973
vt 0.196270 0.838274
vt 0.027450 0.838274
vt 0.027450 0.758180
vt 0.194285 0.758180
vt 0.332261 0.555236
vt 0.332261 0.495916
vt 0.501081 0.495916
vt 0.499096 0.555236
vt 0.314811 0.495800
vt 0.010000 0.838389
vt 0.547198 0.509072
vt 0.547198 0.495916
vt 0.242387 0.804343
vt 0.242387 0.838274
vt 0.650510 0.940182
vt 0.801020 1.026573
vt 0.209184 1.026573
vt 0.267857 0.940182
vt 0.650510 0.973427
vt 0.349490 0.973427
vt 0.878381 0.367368
vt 0.878381 0.435459
vt 0.916904 0.435459
vt 0.916904 0.367368
vt 0.984361 0.435459
vt 0.953096 0.367368
vt 0.984361 0.367368
vt 0.953096 0.435459
vt 0.349490 0.257240
vt 0.349490 0.157847
vt 0.650510 0.157847
vt 0.349490 0.842153
vt 0.349490 0.742760
vt 0.650510 0.742760
vt 0.650510 0.842153
vt 0.382903 0.625600
vt 0.314811 0.655860
vt 0.314811 0.625600
vt 0.349490 0.916983
vt 0.650510 0.916983
vt 0.349490 0.961789
vt 0.650510 0.961789
vt 0.349490 0.374109
vt 0.650510 0.257240
vt 0.650510 0.374109
vt 0.349490 0.500000
vt 0.650510 0.500000
vt 0.349490 0.625891
vt 0.650510 0.625891
vt 0.267857 0.878734
vt 0.650510 0.878734
vt 0.650510 0.859780
vt 0.267857 0.859780
vt 0.650510 0.838476
vt 0.267857 0.838476
vt 0.650510 0.785823
vt 0.650510 0.706634
vt 0.267857 0.785823
vt 0.010000 0.866993
vt 0.039925 0.866993
vt 0.010000 0.953549
vt 0.267857 0.706634
vt 0.039925 0.953549
vt 0.072909 0.866993
vt 0.072909 0.953549
vt 0.105893 0.866993
vt 0.105893 0.953549
vt 0.135818 0.866993
vt 0.135818 0.953549
vt 0.159927 0.866993
vt 0.159927 0.953549
vt 0.010000 0.367368
vt 0.039268 0.367368
vt 0.010000 0.453925
vt 0.039268 0.453925
vt 0.072009 0.367368
vt 0.072009 0.453925
vn 0.0000 -0.0428 0.9991
vn 0.0000 -0.0428 -0.9991
vn 0.0000 0.6918 0.7221
vn 1.0000 -0.0001 -0.0019
vn 1.0000 0.0006 0.0000
vn 1.0000 0.0005 0.0005
vn 1.0000 0.0000 0.0000
vn 1.0000 -0.0007 0.0007
vn 1.0000 -0.0007 0.0000
vn 1.0000 -0.0002 0.0004
vn 1.0000 -0.0007 -0.0001
vn 1.0000 -0.0004 0.0018
vn 1.0000 -0.0003 -0.0067
vn 1.0000 -0.0006 -0.0031
vn -1.0000 -0.0003 -0.0067
vn -1.0000 -0.0006 -0.0031
vn -1.0000 -0.0007 -0.0001
vn -1.0000 -0.0007 0.0000
vn -1.0000 -0.0002 0.0004
vn -1.0000 0.0000 0.0000
vn -1.0000 -0.0007 0.0007
vn -1.0000 -0.0004 0.0018
vn 0.0000 -0.0429 -0.9991
vn -1.0000 -0.0001 -0.0019
vn 0.9590 -0.0110 0.2830
vn 0.9591 -0.0076 -0.2829
vn 0.9891 0.0070 -0.1470
vn 0.9577 -0.0121 0.2875
vn 0.7217 -0.0296 0.6915
vn 0.7094 -0.0276 0.7042
vn 0.7071 -0.0303 -0.7064
vn 0.8579 0.0199 -0.5134
vn -0.9590 -0.0110 0.2830
vn -0.9891 0.0070 -0.1470
vn -0.9591 -0.0076 -0.2829
vn -0.9577 -0.0121 0.2875
vn -0.7094 -0.0276 0.7042
vn -0.7217 -0.0296 0.6915
vn -0.8579 0.0199 -0.5134
vn -0.7071 -0.0303 -0.7064
vn -0.1947 -0.6221 -0.7584
vn -0.0786 -0.6082 -0.7898
vn -0.0892 -0.6098 -0.7875
vn 0.0768 -0.6321 -0.7711
vn 0.0484 -0.6186 -0.7842
vn 0.1388 -0.6593 -0.7389
vn 0.0000 0.9831 -0.1831
vn 0.0000 0.9548 0.2973
vn 0.0000 0.9197 0.3925
vn -0.0526 0.9303 -0.3630
vn 0.0000 1.0000 0.0000
vn 0.0000 0.9277 -0.3732
vn 0.0475 0.9278 -0.3699
vn 0.0064 -0.9270 0.3749
vn 0.0000 -0.9971 -0.0759
vn 0.0000 -0.9998 -0.0183
vn 0.0067 -0.9624 0.2713
vn 0.0000 -0.9997 -0.0235
vn -0.0110 -0.9259 0.3776
vn -0.0090 -0.9626 0.2706
vn 0.0000 -0.9885 -0.1510
vn -0.0086 -0.7232 0.6905
vn 0.0000 -0.7220 0.6919
vn 0.0085 -0.7252 0.6885
vn 0.1018 0.5040 -0.8577
vn 0.1093 0.4506 -0.8860
vn -0.1133 0.4199 -0.9004
vn -0.1930 0.4765 -0.8577
vn 0.0000 0.0244 -0.9997
vn 0.0000 0.0244 0.9997
vn 0.0000 0.2242 0.9745
vn 0.0000 0.4751 0.8799
vn 0.0000 0.8587 0.5124
vn 0.0000 0.6918 -0.7221
vn 0.0000 0.8587 -0.5124
vn 0.0000 0.4751 -0.8799
vn 0.0000 0.2242 -0.9745
vn 0.0000 0.9640 0.2657
vn 0.0000 0.9640 -0.2657
vn 0.0000 -0.1190 -0.9929
vn 0.0000 -0.3413 -0.9399
vn 0.0000 -0.6084 -0.7936
vn 0.0000 -0.8190 -0.5737
vn 0.0000 -0.9536 -0.3009
vn 0.0000 -1.0000 0.0000
vn 0.0000 -0.9536 0.3009
vn 0.0000 -0.8190 0.5737
vn 0.0000 -0.6084 0.7936
vn 0.0000 -0.3413 0.9399
vn 0.0000 -0.1189 0.9929
usemtl baseM.001
s off
f 17/1/1 18/2/1 19/3/1
f 20/4/2 21/5/2 22/6/2
f 22/6/2 23/7/2 20/4/2
f 35/8/3 32/9/3 59/10/3
f 31/11/3 60/12/3 32/13/3
f 32/13/3 60/12/3 59/14/3
f 59/10/3 61/15/3 35/8/3
f 39/16/3 62/17/3 63/18/3
f 63/18/3 37/19/3 39/16/3
f 64/20/4 65/21/4 66/22/4
f 66/22/5 67/23/5 64/20/5
f 67/23/5 68/24/5 64/20/5
f 67/23/6 69/25/6 68/24/6
f 67/23/7 66/22/7 70/26/7
f 70/26/7 71/27/7 67/23/7
f 71/27/7 70/26/7 72/28/7
f 72/28/7 73/29/7 71/27/7
f 73/29/7 72/28/7 74/30/7
f 74/30/7 75/31/7 73/29/7
f 75/31/7 74/30/7 76/32/7
f 76/32/7 77/33/7 75/31/7
f 78/34/7 79/35/7 80/36/7
f 80/36/7 77/33/7 78/34/7
f 76/32/7 78/34/7 77/33/7
f 81/37/8 82/38/8 83/39/8
f 84/40/9 81/37/9 85/41/9
f 84/40/10 85/41/10 86/42/10
f 87/43/11 84/40/11 86/42/11
f 87/43/7 86/42/7 88/44/7
f 89/45/7 87/43/7 88/44/7
f 89/45/7 88/44/7 90/46/7
f 81/37/12 83/39/12 85/41/12
f 91/47/7 89/45/7 90/46/7
f 91/47/7 90/46/7 92/48/7
f 92/48/7 93/49/7 91/47/7
f 94/50/13 95/51/13 84/40/13
f 87/43/14 94/50/14 84/40/14
f 96/52/15 97/53/15 98/54/15
f 98/54/16 99/55/16 96/52/16
f 99/55/17 100/56/17 96/52/17
f 101/57/18 102/58/18 96/52/18
f 100/56/19 101/57/19 96/52/19
f 99/55/20 103/59/20 100/56/20
f 99/55/20 104/60/20 103/59/20
f 104/60/20 105/61/20 103/59/20
f 104/60/20 106/62/20 105/61/20
f 106/62/20 107/63/20 105/61/20
f 106/62/20 108/64/20 107/63/20
f 109/65/21 110/66/21 102/58/21
f 101/57/22 109/65/22 102/58/22
f 111/67/20 112/68/20 113/69/20
f 114/70/20 111/67/20 113/69/20
f 113/69/20 115/71/20 114/70/20
f 115/71/20 113/69/20 116/72/20
f 116/72/20 117/73/20 115/71/20
f 118/74/20 117/73/20 119/75/20
f 117/73/20 116/72/20 119/75/20
f 120/76/20 118/74/20 121/77/20
f 118/74/20 119/75/20 121/77/20
f 120/76/20 121/77/20 122/78/20
f 123/79/20 120/76/20 122/78/20
f 123/79/20 122/78/20 124/80/20
f 125/81/20 123/79/20 124/80/20
f 124/80/20 126/82/20 125/81/20
f 127/83/23 128/84/23 129/85/23
f 127/83/23 129/85/23 131/86/23
f 184/87/1 185/88/1 186/89/1
f 184/87/1 186/89/1 134/90/1
f 184/87/1 134/90/1 183/91/1
f 134/90/1 133/92/1 183/91/1
f 187/93/1 183/91/1 133/92/1
f 133/92/1 188/94/1 187/93/1
f 189/95/24 190/96/24 191/97/24
s 1
f 4/98/25 5/99/26 12/100/27
f 4/98/25 12/100/27 11/101/28
f 11/101/28 15/102/29 10/103/30
f 11/101/28 10/103/30 4/98/25
f 5/99/26 8/104/31 2/105/32
f 2/105/32 12/100/27 5/99/26
f 3/106/33 13/107/34 6/108/35
f 13/107/34 3/106/33 14/109/36
f 9/110/37 16/111/38 14/109/36
f 14/109/36 3/106/33 9/110/37
f 1/112/39 7/113/40 6/108/35
f 6/108/35 13/107/34 1/112/39
f 24/114/41 25/115/42 26/116/43
f 25/115/42 27/117/44 26/116/43
f 27/117/44 28/118/45 26/116/43
f 27/117/44 29/119/46 28/118/45
f 30/120/47 31/121/48 32/9/49
f 30/120/47 33/122/50 31/121/48
f 34/123/51 30/120/47 35/8/49
f 34/123/51 36/124/51 30/120/47
f 30/120/47 32/9/49 35/8/49
f 37/125/48 38/126/52 39/127/49
f 37/125/48 40/128/53 38/126/52
f 41/129/54 42/130/55 43/131/56
f 43/131/56 44/132/57 41/129/54
f 45/133/58 46/134/55 47/135/59
f 48/136/60 45/133/58 47/135/59
f 49/137/61 46/134/55 45/133/58
f 43/131/56 42/130/55 50/138/61
f 51/139/62 48/136/60 47/135/59
f 47/135/59 52/140/63 51/139/62
f 53/141/64 54/142/63 41/129/54
f 44/132/57 53/141/64 41/129/54
f 55/143/65 38/126/52 40/128/53
f 40/128/53 56/144/66 55/143/65
f 57/145/67 58/146/68 55/143/65
f 55/143/65 56/144/66 57/145/67
f 58/146/68 57/145/67 33/122/50
f 33/122/50 30/120/47 58/146/68
f 130/147/69 127/83/2 131/86/2
f 131/86/2 132/148/69 130/147/69
f 133/92/1 134/90/1 135/149/70
f 135/149/70 136/150/70 133/92/1
f 137/151/71 135/149/70 138/152/71
f 139/153/3 140/154/72 141/155/3
f 139/153/3 142/156/72 140/154/72
f 142/156/72 138/152/71 140/154/72
f 142/156/72 137/151/71 138/152/71
f 143/157/73 139/158/3 141/159/3
f 144/160/74 145/161/75 146/162/75
f 146/162/75 147/163/74 144/160/74
f 143/164/73 141/165/3 148/166/73
f 149/167/76 147/163/74 150/168/76
f 149/167/76 144/160/74 147/163/74
f 151/169/77 150/168/76 152/170/77
f 151/169/77 149/167/76 150/168/76
f 152/170/77 132/148/69 151/169/77
f 152/170/77 130/147/69 132/148/69
f 137/151/71 136/150/70 135/149/70
f 153/171/78 148/172/73 154/173/78
f 153/171/78 143/157/73 148/172/73
f 155/174/51 153/171/78 154/173/78
f 154/173/78 156/175/51 155/174/51
f 157/176/79 155/174/51 156/175/51
f 145/161/75 157/176/79 158/177/79
f 157/176/79 156/175/51 158/177/79
f 145/161/75 158/177/79 146/162/75
f 159/178/23 160/179/23 161/180/80
f 162/181/80 161/180/80 163/182/81
f 164/183/81 162/181/80 163/182/81
f 162/181/80 159/178/23 161/180/80
f 163/182/81 165/184/82 164/183/81
f 165/184/82 166/185/83 167/186/82
f 165/184/82 167/186/82 164/183/81
f 166/187/83 168/188/84 169/189/83
f 166/185/83 169/190/83 167/186/82
f 168/188/84 170/191/84 169/189/83
f 168/188/84 171/192/85 170/191/84
f 171/192/85 172/193/85 170/191/84
f 173/194/86 174/195/86 172/193/85
f 175/196/87 176/197/87 174/195/86
f 175/196/87 177/198/88 176/197/87
f 177/198/88 178/199/88 176/197/87
f 177/200/88 179/201/89 178/202/88
f 179/201/89 180/203/89 178/202/88
f 179/201/89 181/204/90 180/203/89
f 181/204/90 182/205/90 180/203/89
f 183/91/1 182/205/90 181/204/90
f 183/91/1 181/204/90 184/87/1
f 171/192/85 173/194/86 172/193/85
f 173/194/86 175/196/87 174/195/86
