# SSTK version 0.8.0
# 17
mtllib original-17.mtl
o #ID126
v -0.264465 -0.044895 -0.006219
v -0.265283 -0.047307 -0.007062
v -0.265240 -0.047307 -0.006181
v -0.264508 -0.044895 -0.007099
v -0.265283 -0.047307 -0.007062
v -0.264444 -0.049444 -0.006220
v -0.265240 -0.047307 -0.006181
v -0.264487 -0.049444 -0.007100
v -0.264508 -0.044895 -0.007099
v -0.266908 -0.044895 -0.006100
v -0.266951 -0.044895 -0.006981
v -0.264465 -0.044895 -0.006219
v -0.264444 -0.049444 -0.006220
v -0.264552 -0.050833 -0.007097
v -0.264509 -0.050833 -0.006217
v -0.264487 -0.049444 -0.007100
v -0.266753 -0.047307 -0.006108
v -0.266951 -0.044895 -0.006981
v -0.266908 -0.044895 -0.006100
v -0.266795 -0.047307 -0.006988
v -0.264509 -0.050833 -0.006217
v -0.265348 -0.052630 -0.007059
v -0.265305 -0.052630 -0.006178
v -0.264552 -0.050833 -0.007097
v -0.265913 -0.049324 -0.006149
v -0.266795 -0.047307 -0.006988
v -0.266753 -0.047307 -0.006108
v -0.265955 -0.049324 -0.007029
v -0.265305 -0.052630 -0.006178
v -0.265455 -0.054358 -0.007053
v -0.265412 -0.054358 -0.006173
v -0.265348 -0.052630 -0.007059
v -0.265979 -0.050833 -0.007028
v -0.265913 -0.049324 -0.006149
v -0.265936 -0.050833 -0.006148
v -0.265955 -0.049324 -0.007029
v -0.266281 -0.054358 -0.006131
v -0.265455 -0.054358 -0.007053
v -0.266324 -0.054358 -0.007011
v -0.265412 -0.054358 -0.006173
v -0.266561 -0.052630 -0.007000
v -0.265936 -0.050833 -0.006148
v -0.266518 -0.052630 -0.006119
v -0.265979 -0.050833 -0.007028
v -0.266281 -0.054358 -0.006131
v -0.266561 -0.052630 -0.007000
v -0.266518 -0.052630 -0.006119
v -0.266324 -0.054358 -0.007011
vn -0.9508290644463145 0.30626100179186266 0.04613338255093221
vn 0.9508290644463145 -0.30626100179186266 -0.04613338255093221
vn -0.93587163420207 -0.3494080057084097 0.04536882016119352
vn 0.93587163420207 0.3494080057084097 -0.04536882016119352
vn 0 -1 0
vn 0 1 0
vn -0.9977332190168369 0.04680030172148318 0.04835447682561574
vn 0.9977332190168369 -0.04680030172148318 -0.04835447682561574
vn 0.9967616625813908 0.06427413650351148 -0.048322079681134014
vn -0.9967616625813908 -0.06427413650351148 0.048322079681134014
vn -0.9130525225211761 0.405428997253776 0.04429920206408705
vn 0.9130525225211761 -0.405428997253776 -0.04429920206408705
vn 0.9218382260476806 0.3849898893868511 -0.044688589899050064
vn -0.9218382260476806 -0.3849898893868511 0.044688589899050064
vn -0.9969110505566591 0.06188197246870338 0.04836298958295737
vn 0.9969110505566591 -0.06188197246870338 -0.04836298958295737
vn 0.9987062930001683 -0.015547860877098271 -0.048414918609954734
vn -0.9987062930001683 0.015547860877098271 0.048414918609954734
vn 0.9501054100863066 -0.3085083898231969 -0.04606824430591416
vn -0.9501054100863066 0.3085083898231969 0.04606824430591416
vn 0.9895490495296303 0.1359752038741967 -0.04799398406441823
vn -0.9895490495296303 -0.1359752038741967 0.04799398406441823
usemtl material_0_2
f 1//1 2//1 3//1
f 3//2 2//2 1//2
f 2//1 1//1 4//1
f 4//2 1//2 2//2
f 5//3 6//3 7//3
f 7//4 6//4 5//4
f 6//3 5//3 8//3
f 8//4 5//4 6//4
f 9//5 10//5 11//5
f 11//6 10//6 9//6
f 10//5 9//5 12//5
f 12//6 9//6 10//6
f 13//7 14//7 15//7
f 15//8 14//8 13//8
f 14//7 13//7 16//7
f 16//8 13//8 14//8
f 17//9 18//9 19//9
f 19//10 18//10 17//10
f 18//9 17//9 20//9
f 20//10 17//10 18//10
f 21//11 22//11 23//11
f 23//12 22//12 21//12
f 22//11 21//11 24//11
f 24//12 21//12 22//12
f 25//13 26//13 27//13
f 27//14 26//14 25//14
f 26//13 25//13 28//13
f 28//14 25//14 26//14
f 29//15 30//15 31//15
f 31//16 30//16 29//16
f 30//15 29//15 32//15
f 32//16 29//16 30//16
f 33//17 34//17 35//17
f 35//18 34//18 33//18
f 34//17 33//17 36//17
f 36//18 33//18 34//18
f 37//6 38//6 39//6
f 39//5 38//5 37//5
f 38//6 37//6 40//6
f 40//5 37//5 38//5
f 41//19 42//19 43//19
f 43//20 42//20 41//20
f 42//19 41//19 44//19
f 44//20 41//20 42//20
f 45//21 46//21 47//21
f 47//22 46//22 45//22
f 46//21 45//21 48//21
f 48//22 45//22 46//22
