# SSTK version 0.8.0
# 42
mtllib original-42.mtl
o #ID262
v 0.314544 0.601472 0.003648
v 0.327570 0.600902 0.002941
v 0.314540 0.600902 0.003573
v 0.327573 0.601472 0.003016
v 0.314540 0.600902 0.003573
v 0.327573 0.600331 0.003016
v 0.314544 0.600331 0.003648
v 0.327570 0.600902 0.002941
v 0.314750 0.601472 0.007900
v 0.314750 0.600331 0.007900
v 0.314753 0.600902 0.007975
v 0.314739 0.602003 0.007680
v 0.314739 0.599800 0.007680
v 0.314722 0.602460 0.007330
v 0.314722 0.599344 0.007330
v 0.314700 0.602810 0.006875
v 0.314700 0.598993 0.006875
v 0.314674 0.603030 0.006344
v 0.314674 0.598773 0.006344
v 0.314646 0.603105 0.005774
v 0.314646 0.598698 0.005774
v 0.314619 0.603030 0.005204
v 0.314619 0.598773 0.005204
v 0.314593 0.602810 0.004674
v 0.314593 0.598993 0.004674
v 0.314571 0.602460 0.004218
v 0.314571 0.599344 0.004218
v 0.314554 0.602003 0.003868
v 0.314554 0.599800 0.003868
v 0.314544 0.601472 0.003648
v 0.314544 0.600331 0.003648
v 0.314540 0.600902 0.003573
v 0.314554 0.602003 0.003868
v 0.327573 0.601472 0.003016
v 0.314544 0.601472 0.003648
v 0.327584 0.602003 0.003236
v 0.327779 0.600331 0.007268
v 0.327779 0.601472 0.007268
v 0.327783 0.600902 0.007343
v 0.327769 0.599800 0.007048
v 0.327769 0.602003 0.007048
v 0.327752 0.599344 0.006699
v 0.327752 0.602460 0.006699
v 0.327730 0.598993 0.006243
v 0.327730 0.602810 0.006243
v 0.327704 0.598773 0.005712
v 0.327704 0.603030 0.005712
v 0.327676 0.598698 0.005142
v 0.327676 0.603105 0.005142
v 0.327649 0.598773 0.004573
v 0.327649 0.603030 0.004573
v 0.327623 0.598993 0.004042
v 0.327623 0.602810 0.004042
v 0.327601 0.599344 0.003586
v 0.327601 0.602460 0.003586
v 0.327584 0.599800 0.003236
v 0.327584 0.602003 0.003236
v 0.327573 0.600331 0.003016
v 0.327573 0.601472 0.003016
v 0.327570 0.600902 0.002941
v 0.314544 0.600331 0.003648
v 0.327584 0.599800 0.003236
v 0.314554 0.599800 0.003868
v 0.327573 0.600331 0.003016
v 0.314722 0.602460 0.007330
v 0.327730 0.602810 0.006243
v 0.314700 0.602810 0.006875
v 0.327752 0.602460 0.006699
v 0.314700 0.602810 0.006875
v 0.327704 0.603030 0.005712
v 0.314674 0.603030 0.006344
v 0.327730 0.602810 0.006243
v 0.314674 0.603030 0.006344
v 0.327676 0.603105 0.005142
v 0.314646 0.603105 0.005774
v 0.327704 0.603030 0.005712
v 0.314646 0.603105 0.005774
v 0.327649 0.603030 0.004573
v 0.314619 0.603030 0.005204
v 0.327676 0.603105 0.005142
v 0.314619 0.603030 0.005204
v 0.327623 0.602810 0.004042
v 0.314593 0.602810 0.004674
v 0.327649 0.603030 0.004573
v 0.314593 0.602810 0.004674
v 0.327601 0.602460 0.003586
v 0.314571 0.602460 0.004218
v 0.327623 0.602810 0.004042
v 0.314571 0.602460 0.004218
v 0.327584 0.602003 0.003236
v 0.314554 0.602003 0.003868
v 0.327601 0.602460 0.003586
v 0.314554 0.599800 0.003868
v 0.327601 0.599344 0.003586
v 0.314571 0.599344 0.004218
v 0.327584 0.599800 0.003236
v 0.327601 0.599344 0.003586
v 0.314593 0.598993 0.004674
v 0.314571 0.599344 0.004218
v 0.327623 0.598993 0.004042
v 0.327623 0.598993 0.004042
v 0.314619 0.598773 0.005204
v 0.314593 0.598993 0.004674
v 0.327649 0.598773 0.004573
v 0.327649 0.598773 0.004573
v 0.314646 0.598698 0.005774
v 0.314619 0.598773 0.005204
v 0.327676 0.598698 0.005142
v 0.327676 0.598698 0.005142
v 0.314674 0.598773 0.006344
v 0.314646 0.598698 0.005774
v 0.327704 0.598773 0.005712
v 0.327704 0.598773 0.005712
v 0.314700 0.598993 0.006875
v 0.314674 0.598773 0.006344
v 0.327730 0.598993 0.006243
v 0.327730 0.598993 0.006243
v 0.314722 0.599344 0.007330
v 0.314700 0.598993 0.006875
v 0.327752 0.599344 0.006699
v 0.327769 0.599800 0.007048
v 0.314722 0.599344 0.007330
v 0.327752 0.599344 0.006699
v 0.314739 0.599800 0.007680
v 0.327779 0.600331 0.007268
v 0.314739 0.599800 0.007680
v 0.327769 0.599800 0.007048
v 0.314750 0.600331 0.007900
v 0.327783 0.600902 0.007343
v 0.314750 0.600331 0.007900
v 0.327779 0.600331 0.007268
v 0.314753 0.600902 0.007975
v 0.327779 0.601472 0.007268
v 0.314753 0.600902 0.007975
v 0.327783 0.600902 0.007343
v 0.314750 0.601472 0.007900
v 0.327769 0.602003 0.007048
v 0.314750 0.601472 0.007900
v 0.327779 0.601472 0.007268
v 0.314739 0.602003 0.007680
v 0.327752 0.602460 0.006699
v 0.314739 0.602003 0.007680
v 0.327769 0.602003 0.007048
v 0.314722 0.602460 0.007330
vn -0.04801177384445782 0.1305109943395047 -0.9902836714441082
vn 0.04801177384445782 -0.1305109943395047 0.9902836714441082
vn -0.0480116053678556 -0.13053389841154148 -0.9902806607803095
vn 0.0480116053678556 0.13053389841154148 0.9902806607803095
vn -0.9988269444526967 0 0.048422464159616846
vn 0.9988269444526967 0 -0.048422464159616846
vn -0.04473885271753108 0.3827467075693636 -0.9227694148065003
vn 0.04473885271753108 -0.3827467075693636 0.9227694148065003
vn 0.9988267600632385 0 -0.04842626747514086
vn -0.9988267600632385 0 0.04842626747514086
vn -0.044740074666994666 -0.38268420162305944 -0.922795279326305
vn 0.044740074666994666 0.38268420162305944 0.922795279326305
vn 0.029481718448297972 0.7933482645654418 0.6080537471213685
vn -0.029481718448297972 -0.7933482645654418 -0.6080537471213685
vn 0.018535576012427876 0.9238465911708905 0.38231388727564275
vn -0.018535576012427876 -0.9238465911708905 -0.38231388727564275
vn 0.006315570416369248 0.9914586799379274 0.13026818316864133
vn -0.006315570416369248 -0.9914586799379274 -0.13026818316864133
vn -0.006316342357053126 0.9914575463230886 -0.13027677328760018
vn 0.006316342357053126 -0.9914575463230886 0.13027677328760018
vn -0.018537857304652253 0.9238465971318351 -0.3823137622614194
vn 0.018537857304652253 -0.9238465971318351 0.3823137622614194
vn -0.029481936362886076 0.7933728556344802 -0.6080216504127837
vn 0.029481936362886076 -0.7933728556344802 0.6080216504127837
vn -0.03842259769427523 0.6087193974447725 -0.7924546669437292
vn 0.03842259769427523 -0.6087193974447725 0.7924546669437292
vn -0.0384225976942752 -0.6087193974447725 -0.7924546669437292
vn 0.0384225976942752 0.6087193974447725 0.7924546669437292
vn -0.029481936362886034 -0.7933728556344802 -0.6080216504127837
vn 0.029481936362886034 0.7933728556344802 0.6080216504127837
vn -0.018537857304652204 -0.9238465971318351 -0.3823137622614194
vn 0.018537857304652204 0.9238465971318351 0.3823137622614194
vn -0.006316342357053074 -0.9914575463230886 -0.13027677328760018
vn 0.006316342357053074 0.9914575463230886 0.13027677328760018
vn 0.0063155704163693005 -0.9914586799379274 0.13026818316864133
vn -0.0063155704163693005 0.9914586799379274 -0.13026818316864133
vn 0.018535576012427925 -0.9238465911708905 0.38231388727564275
vn -0.018535576012427925 0.9238465911708905 -0.38231388727564275
vn 0.029481718448298017 -0.7933482645654418 0.6080537471213685
vn -0.029481718448298017 0.7933482645654418 -0.6080537471213685
vn 0.038423385721427714 -0.6087644030555439 0.7924200559060389
vn -0.038423385721427714 0.6087644030555439 -0.7924200559060389
vn 0.04474567908465549 -0.3826755085424138 0.9227986125721352
vn -0.04474567908465549 0.3826755085424138 -0.9227986125721352
vn 0.0480171687766002 -0.1305389018329816 0.9902797314955603
vn -0.0480171687766002 0.1305389018329816 -0.9902797314955603
vn 0.04801733725862523 0.13051599777538814 0.9902827422747941
vn -0.04801733725862523 -0.13051599777538814 -0.9902827422747941
vn 0.044744457163733584 0.3827380147332993 0.9227727486391955
vn -0.044744457163733584 -0.3827380147332993 -0.9227727486391955
vn 0.038423385721427686 0.6087644030555439 0.7924200559060389
vn -0.038423385721427686 -0.6087644030555439 -0.7924200559060389
usemtl material_0_2
f 1//1 2//1 3//1
f 3//2 2//2 1//2
f 2//1 1//1 4//1
f 4//2 1//2 2//2
f 5//3 6//3 7//3
f 7//4 6//4 5//4
f 6//3 5//3 8//3
f 8//4 5//4 6//4
f 9//5 10//5 11//5
f 11//6 10//6 9//6
f 10//5 9//5 12//5
f 12//6 9//6 10//6
f 10//5 12//5 13//5
f 13//6 12//6 10//6
f 13//5 12//5 14//5
f 14//6 12//6 13//6
f 13//5 14//5 15//5
f 15//6 14//6 13//6
f 15//5 14//5 16//5
f 16//6 14//6 15//6
f 15//5 16//5 17//5
f 17//6 16//6 15//6
f 17//5 16//5 18//5
f 18//6 16//6 17//6
f 17//5 18//5 19//5
f 19//6 18//6 17//6
f 19//5 18//5 20//5
f 20//6 18//6 19//6
f 19//5 20//5 21//5
f 21//6 20//6 19//6
f 21//5 20//5 22//5
f 22//6 20//6 21//6
f 21//5 22//5 23//5
f 23//6 22//6 21//6
f 23//5 22//5 24//5
f 24//6 22//6 23//6
f 23//5 24//5 25//5
f 25//6 24//6 23//6
f 25//5 24//5 26//5
f 26//6 24//6 25//6
f 25//5 26//5 27//5
f 27//6 26//6 25//6
f 27//5 26//5 28//5
f 28//6 26//6 27//6
f 27//5 28//5 29//5
f 29//6 28//6 27//6
f 29//5 28//5 30//5
f 30//6 28//6 29//6
f 29//5 30//5 31//5
f 31//6 30//6 29//6
f 31//5 30//5 32//5
f 32//6 30//6 31//6
f 33//7 34//7 35//7
f 35//8 34//8 33//8
f 34//7 33//7 36//7
f 36//8 33//8 34//8
f 37//9 38//9 39//9
f 39//10 38//10 37//10
f 38//9 37//9 40//9
f 40//10 37//10 38//10
f 38//9 40//9 41//9
f 41//10 40//10 38//10
f 41//9 40//9 42//9
f 42//10 40//10 41//10
f 41//9 42//9 43//9
f 43//10 42//10 41//10
f 43//9 42//9 44//9
f 44//10 42//10 43//10
f 43//9 44//9 45//9
f 45//10 44//10 43//10
f 45//9 44//9 46//9
f 46//10 44//10 45//10
f 45//9 46//9 47//9
f 47//10 46//10 45//10
f 47//9 46//9 48//9
f 48//10 46//10 47//10
f 47//9 48//9 49//9
f 49//10 48//10 47//10
f 49//9 48//9 50//9
f 50//10 48//10 49//10
f 49//9 50//9 51//9
f 51//10 50//10 49//10
f 51//9 50//9 52//9
f 52//10 50//10 51//10
f 51//9 52//9 53//9
f 53//10 52//10 51//10
f 53//9 52//9 54//9
f 54//10 52//10 53//10
f 53//9 54//9 55//9
f 55//10 54//10 53//10
f 55//9 54//9 56//9
f 56//10 54//10 55//10
f 55//9 56//9 57//9
f 57//10 56//10 55//10
f 57//9 56//9 58//9
f 58//10 56//10 57//10
f 57//9 58//9 59//9
f 59//10 58//10 57//10
f 59//9 58//9 60//9
f 60//10 58//10 59//10
f 61//11 62//11 63//11
f 63//12 62//12 61//12
f 62//11 61//11 64//11
f 64//12 61//12 62//12
f 65//13 66//13 67//13
f 67//14 66//14 65//14
f 66//13 65//13 68//13
f 68//14 65//14 66//14
f 69//15 70//15 71//15
f 71//16 70//16 69//16
f 70//15 69//15 72//15
f 72//16 69//16 70//16
f 73//17 74//17 75//17
f 75//18 74//18 73//18
f 74//17 73//17 76//17
f 76//18 73//18 74//18
f 77//19 78//19 79//19
f 79//20 78//20 77//20
f 78//19 77//19 80//19
f 80//20 77//20 78//20
f 81//21 82//21 83//21
f 83//22 82//22 81//22
f 82//21 81//21 84//21
f 84//22 81//22 82//22
f 85//23 86//23 87//23
f 87//24 86//24 85//24
f 86//23 85//23 88//23
f 88//24 85//24 86//24
f 89//25 90//25 91//25
f 91//26 90//26 89//26
f 90//25 89//25 92//25
f 92//26 89//26 90//26
f 93//27 94//27 95//27
f 95//28 94//28 93//28
f 94//27 93//27 96//27
f 96//28 93//28 94//28
f 97//29 98//29 99//29
f 99//30 98//30 97//30
f 98//29 97//29 100//29
f 100//30 97//30 98//30
f 101//31 102//31 103//31
f 103//32 102//32 101//32
f 102//31 101//31 104//31
f 104//32 101//32 102//32
f 105//33 106//33 107//33
f 107//34 106//34 105//34
f 106//33 105//33 108//33
f 108//34 105//34 106//34
f 109//35 110//35 111//35
f 111//36 110//36 109//36
f 110//35 109//35 112//35
f 112//36 109//36 110//36
f 113//37 114//37 115//37
f 115//38 114//38 113//38
f 114//37 113//37 116//37
f 116//38 113//38 114//38
f 117//39 118//39 119//39
f 119//40 118//40 117//40
f 118//39 117//39 120//39
f 120//40 117//40 118//40
f 121//41 122//41 123//41
f 123//42 122//42 121//42
f 122//41 121//41 124//41
f 124//42 121//42 122//42
f 125//43 126//43 127//43
f 127//44 126//44 125//44
f 126//43 125//43 128//43
f 128//44 125//44 126//44
f 129//45 130//45 131//45
f 131//46 130//46 129//46
f 130//45 129//45 132//45
f 132//46 129//46 130//46
f 133//47 134//47 135//47
f 135//48 134//48 133//48
f 134//47 133//47 136//47
f 136//48 133//48 134//48
f 137//49 138//49 139//49
f 139//50 138//50 137//50
f 138//49 137//49 140//49
f 140//50 137//50 138//50
f 141//51 142//51 143//51
f 143//52 142//52 141//52
f 142//51 141//51 144//51
f 144//52 141//52 142//52
