# SSTK version 0.8.0
# 13
mtllib original-13.mtl
o #ID102
v -0.262157 -0.044895 0.041379
v -0.262975 -0.047307 0.040536
v -0.262932 -0.047307 0.041416
v -0.262200 -0.044895 0.040498
v -0.262975 -0.047307 0.040536
v -0.262136 -0.049444 0.041378
v -0.262932 -0.047307 0.041416
v -0.262179 -0.049444 0.040497
v -0.262200 -0.044895 0.040498
v -0.264600 -0.044895 0.041497
v -0.264643 -0.044895 0.040617
v -0.262157 -0.044895 0.041379
v -0.262136 -0.049444 0.041378
v -0.262244 -0.050833 0.040500
v -0.262201 -0.050833 0.041381
v -0.262179 -0.049444 0.040497
v -0.264445 -0.047307 0.041490
v -0.264643 -0.044895 0.040617
v -0.264600 -0.044895 0.041497
v -0.264488 -0.047307 0.040609
v -0.262201 -0.050833 0.041381
v -0.263040 -0.052630 0.040539
v -0.262997 -0.052630 0.041419
v -0.262244 -0.050833 0.040500
v -0.263605 -0.049324 0.041449
v -0.264488 -0.047307 0.040609
v -0.264445 -0.047307 0.041490
v -0.263647 -0.049324 0.040568
v -0.262997 -0.052630 0.041419
v -0.263147 -0.054358 0.040544
v -0.263104 -0.054358 0.041425
v -0.263040 -0.052630 0.040539
v -0.263671 -0.050833 0.040570
v -0.263605 -0.049324 0.041449
v -0.263628 -0.050833 0.041450
v -0.263647 -0.049324 0.040568
v -0.263973 -0.054358 0.041467
v -0.263147 -0.054358 0.040544
v -0.264016 -0.054358 0.040586
v -0.263104 -0.054358 0.041425
v -0.264253 -0.052630 0.040598
v -0.263628 -0.050833 0.041450
v -0.264210 -0.052630 0.041478
v -0.263671 -0.050833 0.040570
v -0.263973 -0.054358 0.041467
v -0.264253 -0.052630 0.040598
v -0.264210 -0.052630 0.041478
v -0.264016 -0.054358 0.040586
vn -0.950827791440803 0.3062778071480141 0.04604797359720377
vn 0.950827791440803 -0.3062778071480141 -0.04604797359720377
vn -0.9358719625328713 -0.349412986532939 0.045323664756995105
vn 0.9358719625328713 0.349412986532939 -0.045323664756995105
vn 0 -1 0
vn 0 1 0
vn -0.9977338865963482 0.04676355067362753 0.048376253118039746
vn 0.9977338865963482 -0.04676355067362753 -0.048376253118039746
vn 0.99676304247238 0.06427741851182137 -0.0482892392843443
vn -0.99676304247238 -0.06427741851182137 0.0482892392843443
vn -0.9130553422606099 0.4054241067500155 0.04428584012201496
vn 0.9130553422606099 -0.4054241067500155 -0.04428584012201496
vn 0.9218403763710459 0.38498239649510113 -0.04470877856727217
vn -0.9218403763710459 -0.38498239649510113 0.04470877856727217
vn -0.9969098520463107 0.061898636953062934 0.0483663688564268
vn 0.9969098520463107 -0.061898636953062934 -0.0483663688564268
vn 0.9987046390404011 -0.01552535941258177 -0.048456239786971236
vn -0.9987046390404011 0.01552535941258177 0.048456239786971236
vn 0.9501065696255132 -0.30850271544152846 -0.04608232762831281
vn -0.9501065696255132 0.30850271544152846 0.04608232762831281
vn 0.9895516112299529 0.13595820387375654 -0.04798932705952564
vn -0.9895516112299529 -0.13595820387375654 0.04798932705952564
usemtl material_0_2
f 1//1 2//1 3//1
f 3//2 2//2 1//2
f 2//1 1//1 4//1
f 4//2 1//2 2//2
f 5//3 6//3 7//3
f 7//4 6//4 5//4
f 6//3 5//3 8//3
f 8//4 5//4 6//4
f 9//5 10//5 11//5
f 11//6 10//6 9//6
f 10//5 9//5 12//5
f 12//6 9//6 10//6
f 13//7 14//7 15//7
f 15//8 14//8 13//8
f 14//7 13//7 16//7
f 16//8 13//8 14//8
f 17//9 18//9 19//9
f 19//10 18//10 17//10
f 18//9 17//9 20//9
f 20//10 17//10 18//10
f 21//11 22//11 23//11
f 23//12 22//12 21//12
f 22//11 21//11 24//11
f 24//12 21//12 22//12
f 25//13 26//13 27//13
f 27//14 26//14 25//14
f 26//13 25//13 28//13
f 28//14 25//14 26//14
f 29//15 30//15 31//15
f 31//16 30//16 29//16
f 30//15 29//15 32//15
f 32//16 29//16 30//16
f 33//17 34//17 35//17
f 35//18 34//18 33//18
f 34//17 33//17 36//17
f 36//18 33//18 34//18
f 37//6 38//6 39//6
f 39//5 38//5 37//5
f 38//6 37//6 40//6
f 40//5 37//5 38//5
f 41//19 42//19 43//19
f 43//20 42//20 41//20
f 42//19 41//19 44//19
f 44//20 41//20 42//20
f 45//21 46//21 47//21
f 47//22 46//22 45//22
f 46//21 45//21 48//21
f 48//22 45//22 46//22
