# Blender v3.0.0 OBJ File: ''
# www.blender.org
mtllib F1.mtl
o distal_distal_001
v -0.015706 0.253797 0.048175
v -0.020767 0.208857 0.060436
v 0.015706 0.253797 0.048175
v 0.020767 0.208857 0.060436
v -0.023535 0.180167 0.065923
v 0.023535 0.180167 0.065923
v -0.029668 0.104667 0.074769
v 0.029668 0.104667 0.074769
v -0.034789 0.070497 0.075662
v 0.031837 0.070767 0.075941
v -0.015340 0.286777 -0.040656
v -0.015386 0.294778 -0.018032
v 0.015340 0.286777 -0.040656
v 0.015386 0.294778 -0.018032
v -0.015245 0.295287 -0.001397
v 0.015245 0.295287 -0.001397
v -0.015281 0.292027 0.011831
v 0.015281 0.292027 0.011831
v -0.015350 0.285867 0.023981
v 0.015350 0.285867 0.023981
v -0.015440 0.277797 0.033618
v 0.015440 0.277797 0.033618
v -0.015568 0.266247 0.042634
v 0.015568 0.266247 0.042634
v 0.088336 0.045467 -0.002737
v 0.086214 0.082577 0.020914
v 0.084287 0.109897 -0.014054
v 0.087893 0.040307 -0.022754
v 0.083205 0.123577 0.019013
v 0.078280 0.176517 -0.014054
v 0.078255 0.176077 0.011915
v 0.075176 0.204727 0.006400
v 0.070431 0.242977 -0.014054
v 0.070228 0.244517 -0.004285
v -0.043010 0.277767 -0.040656
v -0.031299 0.283977 -0.040656
v -0.034310 0.022707 -0.069054
v -0.027458 0.129427 -0.069054
v -0.031718 0.072907 -0.069054
v -0.023339 0.173087 -0.069054
v 0.087841 0.037507 0.029406
v 0.072595 0.179757 0.035439
v 0.068218 0.255207 -0.004974
v 0.083173 0.106437 0.032385
v 0.067917 0.248387 0.008969
v 0.079092 0.106737 0.043967
v 0.085391 0.033537 0.038703
v 0.053519 0.253757 0.032098
v 0.057396 0.181567 0.054171
v 0.077285 0.048007 0.053178
v 0.066517 0.058857 0.064024
v 0.042363 0.254917 0.040475
v 0.053492 0.106177 0.069609
v 0.047104 0.181667 0.060665
v 0.053225 0.066527 0.071693
v 0.029481 0.254927 0.045952
v 0.041928 0.105527 0.073698
v 0.066291 0.258687 -0.020707
v 0.068703 0.242757 -0.027790
v 0.057031 0.276187 -0.014439
v 0.063629 0.242087 -0.040656
v 0.056465 0.258917 -0.043836
v 0.057866 0.266557 0.016441
v 0.054040 0.273187 -0.032396
v 0.058062 0.241347 -0.048936
v 0.045161 0.286417 -0.016270
v 0.045269 0.284667 0.005801
v 0.045945 0.273407 0.025008
v 0.051296 0.261407 -0.048226
v 0.043010 0.277767 -0.040656
v 0.051100 0.240427 -0.056062
v 0.031299 0.283977 -0.040656
v 0.023102 0.294537 -0.017985
v 0.030907 0.290787 0.008464
v 0.031378 0.277287 0.030930
v 0.027458 0.129427 -0.069054
v 0.023339 0.173087 -0.069054
v 0.033444 0.178457 -0.068020
v 0.044978 0.200417 -0.063292
v 0.048487 0.131247 -0.064867
v 0.054325 0.030907 -0.065152
v 0.034310 0.022707 -0.069054
v 0.031718 0.072907 -0.069054
v 0.066433 0.034737 -0.058342
v 0.066264 0.132787 -0.052945
v 0.075701 0.033277 -0.049794
v 0.078142 0.133807 -0.035101
v 0.083311 0.035257 -0.038034
v 0.066367 0.045967 0.051137
v 0.051367 0.048807 0.053979
v -0.051367 0.048807 0.053979
v -0.012389 0.171377 -0.040656
v -0.037167 0.182237 -0.040656
v 0.012389 0.171377 -0.040656
v 0.037167 0.182237 -0.040656
v -0.043874 0.195367 -0.040656
v 0.043874 0.195367 -0.040656
v -0.049441 0.223017 -0.040656
v 0.049441 0.223017 -0.040656
v -0.051296 0.248837 -0.040656
v 0.051296 0.248837 -0.040656
v 0.051367 0.043917 -0.056562
v -0.051367 0.043917 -0.056562
v 0.051367 0.064867 -0.028243
v -0.051367 0.064867 -0.028243
v 0.051367 0.070567 0.006515
v -0.051367 0.070567 0.006515
v 0.051367 0.059777 0.040043
v -0.051367 0.059777 0.040043
v 0.072580 0.055167 -0.028326
v 0.072580 0.059267 0.019757
v -0.072580 0.059267 0.019757
v -0.072580 0.055167 -0.028326
v -0.088336 0.045467 -0.002737
v -0.033444 0.178457 -0.068020
v -0.066367 0.045967 0.051137
v -0.084287 0.109897 -0.014054
v -0.083311 0.035257 -0.038034
v -0.078142 0.133807 -0.035101
v -0.044978 0.200417 -0.063292
v -0.075701 0.033277 -0.049794
v -0.066264 0.132787 -0.052945
v -0.066433 0.034737 -0.058342
v -0.054325 0.030907 -0.065152
v -0.048487 0.131247 -0.064867
v -0.031378 0.277287 0.030930
v -0.030907 0.290787 0.008464
v -0.023102 0.294537 -0.017985
v -0.051100 0.240427 -0.056062
v -0.051296 0.261407 -0.048226
v -0.045945 0.273407 0.025008
v -0.045269 0.284667 0.005801
v -0.045161 0.286417 -0.016270
v -0.058062 0.241347 -0.048936
v -0.054040 0.273187 -0.032396
v -0.057866 0.266557 0.016441
v -0.057031 0.276187 -0.014439
v -0.056465 0.258917 -0.043836
v -0.063629 0.242087 -0.040656
v -0.068703 0.242757 -0.027790
v -0.066291 0.258687 -0.020707
v -0.041928 0.105527 0.073698
v -0.029481 0.254927 0.045952
v -0.053225 0.066527 0.071693
v -0.047104 0.181667 0.060665
v -0.053492 0.106177 0.069609
v -0.042363 0.254917 0.040475
v -0.066517 0.058857 0.064024
v -0.077285 0.048007 0.053178
v -0.057396 0.181567 0.054171
v -0.053519 0.253757 0.032098
v -0.085391 0.033537 0.038703
v -0.079092 0.106737 0.043967
v -0.067917 0.248387 0.008969
v -0.083173 0.106437 0.032385
v -0.068218 0.255207 -0.004974
v -0.083205 0.123577 0.019013
v -0.072595 0.179757 0.035439
v -0.087841 0.037507 0.029406
v -0.070228 0.244517 -0.004285
v -0.070431 0.242977 -0.014054
v -0.075176 0.204727 0.006400
v -0.078255 0.176077 0.011915
v -0.078280 0.176517 -0.014054
v -0.087893 0.040307 -0.022754
v -0.086214 0.082577 0.020914
vn 0.0000 0.2632 0.9647
vn 0.0000 0.1878 0.9822
vn 0.0000 0.1164 0.9932
vn 0.0000 0.0261 0.9997
vn -0.0043 0.0343 0.9994
vn 0.0000 0.9428 -0.3334
vn 0.0000 0.9995 -0.0306
vn 0.0000 0.9709 0.2393
vn 0.0000 0.8919 0.4522
vn 0.0000 0.7667 0.6420
vn 0.0000 0.6153 0.7883
vn 0.0000 0.4066 0.9136
vn 0.9981 0.0615 -0.0070
vn 0.9977 0.0563 -0.0366
vn 0.9973 0.0733 0.0023
vn 0.9955 0.0942 0.0026
vn 0.9959 0.0898 -0.0046
vn 0.9942 0.1074 0.0028
vn 0.9930 0.1173 -0.0111
vn 0.9923 0.1237 0.0011
vn 0.9988 0.0409 0.0255
vn 0.9693 0.1204 0.2144
vn 0.9890 0.0611 0.1350
vn 0.9582 0.0624 0.2792
vn 0.9424 0.0495 0.3308
vn 0.9371 0.1216 0.3271
vn 0.8482 0.2400 0.4723
vn 0.7672 0.2249 0.6007
vn 0.7754 0.1409 0.6155
vn 0.8897 0.0439 0.4544
vn 0.7465 0.0806 0.6605
vn 0.5966 0.2638 0.7580
vn 0.7024 0.1077 0.7036
vn 0.7022 0.1103 0.7034
vn 0.5291 0.1439 0.8363
vn 0.5173 0.2584 0.8159
vn 0.5172 0.0415 0.8549
vn 0.3771 0.2687 0.8863
vn 0.1960 0.0064 0.9806
vn 0.3307 0.0473 0.9426
vn 0.3233 0.1383 0.9361
vn 0.1370 0.2266 0.9643
vn 0.2832 0.2820 0.9167
vn 0.2009 0.2027 0.9584
vn 0.0841 0.0398 0.9957
vn 0.0778 0.1222 0.9894
vn 0.9688 0.2473 -0.0189
vn 0.9805 0.1792 -0.0805
vn 0.9712 0.2028 -0.1254
vn 0.8832 0.4689 -0.0045
vn 0.8834 0.2955 -0.3638
vn 0.8780 0.3038 -0.3700
vn 0.8433 0.2770 0.4606
vn 0.7970 0.2341 -0.5568
vn 0.6555 0.7195 -0.2294
vn 0.7567 0.6297 0.1759
vn 0.6478 0.6669 0.3682
vn 0.6771 0.4664 0.5693
vn 0.6318 0.5653 -0.5302
vn 0.6732 0.2619 -0.6915
vn 0.5580 0.7654 -0.3207
vn 0.5623 0.4637 0.6846
vn 0.4415 0.8326 -0.3343
vn 0.3396 0.9378 0.0727
vn 0.3504 0.8911 -0.2883
vn 0.4195 0.7895 0.4481
vn 0.3942 0.9189 0.0140
vn 0.3997 0.7894 0.4660
vn 0.4368 0.5259 0.7299
vn 0.3381 0.5049 0.7942
vn 0.0309 0.9103 -0.4128
vn 0.1275 0.9631 0.2370
vn 0.1757 0.8454 0.5043
vn 0.1632 0.9300 -0.3292
vn 0.2717 0.8590 0.4339
vn 0.1316 0.7606 0.6357
vn 0.1566 0.5416 0.8259
vn 0.3003 0.5890 0.7503
vn 0.1132 0.4051 0.9073
vn 0.0970 0.0091 -0.9952
vn 0.1859 0.0136 -0.9825
vn 0.2070 0.0107 -0.9783
vn 0.1940 0.0146 -0.9809
vn 0.4827 0.0306 -0.8753
vn 0.6809 0.0414 -0.7312
vn 0.5536 0.0467 -0.8315
vn 0.6119 0.0490 -0.7894
vn 0.5530 0.0538 -0.8315
vn 0.7079 0.0794 -0.7019
vn 0.8236 0.0829 -0.5611
vn 0.8274 0.0824 -0.5555
vn 0.8334 0.0601 -0.5494
vn 0.8293 0.0611 -0.5555
vn 0.9233 0.1048 -0.3696
vn 0.9876 0.0940 -0.1257
vn 0.9647 0.1139 -0.2375
vn 0.9787 0.0882 -0.1855
vn -0.0001 -0.7070 0.7072
vn 0.0001 -0.7070 0.7072
vn 0.0003 -0.7070 0.7072
vn -0.0001 -0.7072 0.7070
vn 0.0000 -0.7070 0.7072
vn 0.0000 0.0000 -1.0000
vn -0.9803 0.1974 -0.0038
vn -0.8890 0.4542 0.0580
vn -0.9885 0.1416 0.0535
vn -0.9971 0.0716 -0.0264
vn -0.3995 0.9114 -0.0992
vn 0.0000 -0.8039 0.5947
vn 0.0000 -0.9868 0.1618
vn 0.0000 -0.9519 -0.3063
vn 0.0000 -0.7858 -0.6185
vn -0.6308 -0.5873 0.5071
vn -0.6007 -0.7966 0.0679
vn -0.2569 -0.5725 0.7786
vn 0.0580 -0.5409 0.8391
vn -0.5881 -0.6075 0.5339
vn -0.3761 -0.7283 0.5728
vn -0.3431 -0.7551 0.5586
vn -0.4108 -0.8997 0.1475
vn -0.5042 -0.8605 0.0734
vn -0.3012 -0.9077 -0.2921
vn -0.4240 -0.8006 -0.4233
vn -0.2570 -0.7594 -0.5978
vn -0.7085 -0.5788 0.4037
vn -0.7184 -0.6696 0.1885
vn -0.7720 -0.6141 -0.1640
vn -0.6323 -0.6382 -0.4392
vn 0.6467 0.7606 0.0571
vn 0.9750 0.1907 0.1143
vn 0.9798 0.1555 0.1254
vn 0.9657 0.1480 0.2131
vn 0.9670 0.1444 0.2101
vn 0.9757 0.1335 0.1735
vn 0.9918 0.0775 0.1017
vn -0.9999 0.0058 0.0096
vn -0.8743 -0.2504 -0.4158
vn 0.6936 0.2464 -0.6770
vn 0.6838 0.5236 -0.5082
vn 0.8354 0.4231 -0.3507
vn 0.8260 0.5173 -0.2240
vn 0.2061 0.1515 0.9667
vn 0.2358 0.9694 0.0679
vn 0.0313 0.9990 -0.0303
vn 0.9740 0.0576 -0.2189
vn 0.9458 0.0881 -0.3127
vn -0.9458 0.0881 -0.3127
vn -0.9740 0.0576 -0.2189
vn -0.0313 0.9990 -0.0303
vn -0.2358 0.9694 0.0679
vn -0.2061 0.1515 0.9667
vn -0.8260 0.5173 -0.2240
vn -0.8354 0.4231 -0.3507
vn -0.6838 0.5236 -0.5082
vn -0.6936 0.2464 -0.6770
vn 0.8743 -0.2504 -0.4158
vn 0.9999 0.0058 0.0096
vn -0.9757 0.1335 0.1735
vn -0.9670 0.1444 0.2101
vn -0.9657 0.1480 0.2131
vn -0.9798 0.1555 0.1254
vn -0.9750 0.1907 0.1143
vn -0.6467 0.7606 0.0571
vn 0.6323 -0.6382 -0.4392
vn 0.7720 -0.6141 -0.1640
vn 0.7184 -0.6696 0.1885
vn 0.7085 -0.5788 0.4037
vn 0.2570 -0.7594 -0.5978
vn 0.4240 -0.8006 -0.4233
vn 0.3012 -0.9077 -0.2921
vn 0.5042 -0.8605 0.0734
vn 0.4108 -0.8997 0.1475
vn 0.3431 -0.7551 0.5586
vn 0.3761 -0.7283 0.5728
vn 0.5881 -0.6075 0.5339
vn -0.0580 -0.5409 0.8391
vn 0.2569 -0.5725 0.7786
vn 0.6007 -0.7966 0.0679
vn 0.6308 -0.5873 0.5071
vn 0.3995 0.9114 -0.0992
vn 0.4637 0.8840 -0.0590
vn 0.9971 0.0716 -0.0264
vn 0.9885 0.1416 0.0535
vn 0.8889 0.4544 0.0580
vn 0.8890 0.4542 0.0582
vn 0.9803 0.1974 -0.0038
vn -0.9787 0.0882 -0.1855
vn -0.9647 0.1139 -0.2375
vn -0.9876 0.0940 -0.1257
vn -0.9233 0.1048 -0.3696
vn -0.8293 0.0611 -0.5555
vn -0.8334 0.0601 -0.5494
vn -0.8274 0.0824 -0.5555
vn -0.8236 0.0829 -0.5611
vn -0.7079 0.0794 -0.7019
vn -0.5530 0.0538 -0.8315
vn -0.6119 0.0490 -0.7894
vn -0.5536 0.0467 -0.8315
vn -0.6809 0.0414 -0.7312
vn -0.4827 0.0306 -0.8753
vn -0.1940 0.0146 -0.9809
vn -0.2070 0.0107 -0.9783
vn -0.1859 0.0136 -0.9825
vn -0.0970 0.0091 -0.9952
vn -0.1132 0.4051 0.9073
vn -0.3003 0.5890 0.7503
vn -0.1566 0.5416 0.8259
vn -0.1316 0.7606 0.6357
vn -0.2717 0.8590 0.4339
vn -0.1632 0.9300 -0.3292
vn -0.1757 0.8454 0.5043
vn -0.1275 0.9631 0.2370
vn -0.0309 0.9103 -0.4128
vn -0.3381 0.5049 0.7942
vn -0.4368 0.5259 0.7299
vn -0.3997 0.7894 0.4660
vn -0.3942 0.9189 0.0140
vn -0.4195 0.7895 0.4481
vn -0.3504 0.8911 -0.2883
vn -0.3396 0.9378 0.0727
vn -0.4415 0.8326 -0.3343
vn -0.5623 0.4637 0.6846
vn -0.5580 0.7654 -0.3207
vn -0.6732 0.2619 -0.6915
vn -0.6318 0.5653 -0.5302
vn -0.6771 0.4664 0.5693
vn -0.6478 0.6669 0.3682
vn -0.7567 0.6297 0.1759
vn -0.6555 0.7195 -0.2294
vn -0.7970 0.2341 -0.5568
vn -0.8433 0.2770 0.4606
vn -0.8780 0.3038 -0.3700
vn -0.8834 0.2955 -0.3638
vn -0.8832 0.4689 -0.0045
vn -0.9712 0.2028 -0.1254
vn -0.9805 0.1792 -0.0805
vn -0.9688 0.2473 -0.0189
vn -0.0778 0.1222 0.9894
vn -0.0842 0.0387 0.9957
vn -0.2009 0.2027 0.9584
vn -0.2832 0.2820 0.9167
vn -0.1370 0.2266 0.9643
vn -0.3233 0.1383 0.9361
vn -0.3307 0.0473 0.9426
vn -0.2128 0.0114 0.9770
vn -0.3771 0.2687 0.8863
vn -0.5172 0.0415 0.8549
vn -0.5173 0.2584 0.8159
vn -0.5291 0.1439 0.8363
vn -0.7022 0.1103 0.7034
vn -0.7024 0.1077 0.7036
vn -0.5966 0.2638 0.7580
vn -0.7465 0.0806 0.6605
vn -0.8897 0.0439 0.4544
vn -0.7754 0.1409 0.6155
vn -0.7672 0.2249 0.6007
vn -0.8482 0.2400 0.4723
vn -0.9371 0.1216 0.3271
vn -0.9424 0.0495 0.3308
vn -0.9582 0.0624 0.2792
vn -0.9918 0.0775 0.1017
vn -0.9890 0.0611 0.1350
vn -0.9693 0.1204 0.2144
vn -0.9988 0.0409 0.0255
vn -0.9923 0.1237 0.0011
vn -0.9930 0.1173 -0.0111
vn -0.9942 0.1074 0.0028
vn -0.9959 0.0898 -0.0046
vn -0.9955 0.0942 0.0026
vn -0.9973 0.0733 0.0023
vn -0.9977 0.0563 -0.0366
vn -0.9981 0.0615 -0.0070
vn 0.0000 0.9982 0.0601
vn -0.4637 0.8840 -0.0590
vn -0.8889 0.4544 0.0582
vn -0.6698 -0.6267 -0.3982
vn 0.0000 -0.7072 0.7070
vn 0.6698 -0.6267 -0.3982
vn -0.8893 0.4030 0.2163
vn -0.8470 0.5136 0.1373
vn 0.8470 0.5136 0.1373
vn 0.8893 0.4030 0.2163
vn 0.1955 -0.0032 -0.9807
vn 0.3168 0.0377 -0.9478
vn -0.3168 0.0377 -0.9478
vn -0.1955 -0.0032 -0.9807
vn 0.0000 -0.5075 0.8617
usemtl black_spec
s off
f 1//1 2//1 3//1
f 4//1 3//1 2//1
f 2//2 5//2 4//2
f 6//2 4//2 5//2
f 5//3 7//3 6//3
f 8//3 6//3 7//3
f 7//4 9//4 8//4
f 10//5 8//5 9//5
f 11//6 12//6 13//6
f 14//6 13//6 12//6
f 12//7 15//7 14//7
f 16//7 14//7 15//7
f 15//8 17//8 16//8
f 18//8 16//8 17//8
f 17//9 19//9 18//9
f 20//9 18//9 19//9
f 19//10 21//10 20//10
f 22//10 20//10 21//10
f 21//11 23//11 22//11
f 24//11 22//11 23//11
f 23//12 1//12 24//12
f 24//12 1//12 3//12
f 27//13 26//13 25//13
f 28//14 27//14 25//14
f 29//15 26//15 27//15
f 30//16 31//16 29//16
f 27//17 30//17 29//17
f 32//18 31//18 30//18
f 30//19 33//19 32//19
f 34//20 32//20 33//20
f 41//21 25//21 26//21
f 42//22 29//22 31//22
f 44//23 41//23 26//23
f 46//24 47//24 41//24
f 44//25 46//25 41//25
f 46//26 44//26 42//26
f 45//27 48//27 42//27
f 49//28 42//28 48//28
f 42//29 49//29 46//29
f 46//30 50//30 47//30
f 51//31 50//31 46//31
f 48//32 52//32 49//32
f 53//33 46//33 49//33
f 46//34 53//34 51//34
f 49//35 54//35 53//35
f 54//36 49//36 52//36
f 55//37 51//37 53//37
f 54//38 52//38 56//38
f 57//39 10//39 55//39
f 53//40 57//40 55//40
f 57//41 53//41 54//41
f 54//42 56//42 3//42
f 54//43 3//43 4//43
f 6//44 54//44 4//44
f 57//45 8//45 10//45
f 57//46 6//46 8//46
f 58//47 34//47 33//47
f 43//48 34//48 58//48
f 33//49 59//49 58//49
f 60//50 43//50 58//50
f 59//51 61//51 58//51
f 62//52 58//52 61//52
f 48//53 45//53 63//53
f 61//54 65//54 62//54
f 66//55 60//55 64//55
f 60//56 67//56 63//56
f 68//57 63//57 67//57
f 63//58 68//58 48//58
f 69//59 70//59 64//59
f 71//60 62//60 65//60
f 64//61 70//61 66//61
f 52//62 48//62 68//62
f 70//63 72//63 66//63
f 66//64 73//64 67//64
f 73//65 66//65 72//65
f 67//66 74//66 68//66
f 74//67 67//67 73//67
f 75//68 68//68 74//68
f 68//69 75//69 52//69
f 56//70 52//70 75//70
f 14//71 73//71 72//71
f 18//72 74//72 16//72
f 74//73 18//73 75//73
f 72//74 13//74 14//74
f 75//75 18//75 20//75
f 22//76 75//76 20//76
f 75//77 22//77 56//77
f 56//78 22//78 24//78
f 3//79 56//79 24//79
f 76//80 77//80 78//80
f 80//81 81//81 82//81
f 80//82 82//82 83//82
f 80//83 83//83 76//83
f 84//84 81//84 80//84
f 85//85 86//85 84//85
f 80//86 85//86 84//86
f 80//87 79//87 71//87
f 85//88 80//88 71//88
f 71//89 65//89 85//89
f 85//90 65//90 61//90
f 87//91 85//91 61//91
f 87//92 88//92 86//92
f 85//93 87//93 86//93
f 61//94 59//94 87//94
f 87//95 59//95 33//95
f 87//96 33//96 30//96
f 27//97 87//97 30//97
f 89//98 50//98 51//98
f 89//99 51//99 55//99
f 90//99 89//99 55//99
f 55//100 10//100 90//100
f 90//101 10//101 9//101
f 91//102 90//102 9//102
f 92//103 93//103 94//103
f 95//103 94//103 93//103
f 93//103 96//103 95//103
f 97//103 95//103 96//103
f 96//103 98//103 97//103
f 99//103 97//103 98//103
f 98//103 100//103 99//103
f 101//103 99//103 100//103
f 100//103 35//103 101//103
f 70//103 101//103 35//103
f 35//103 36//103 70//103
f 72//103 70//103 36//103
f 13//103 72//103 11//103
f 37//103 39//103 82//103
f 83//103 82//103 39//103
f 39//103 38//103 83//103
f 76//103 83//103 38//103
f 38//103 40//103 76//103
f 76//103 40//103 77//103
f 99//104 79//104 97//104
f 79//105 95//105 97//105
f 71//106 79//106 99//106
f 99//107 101//107 71//107
f 94//108 95//108 77//108
f 102//109 104//109 103//109
f 105//109 103//109 104//109
f 104//110 106//110 105//110
f 107//110 105//110 106//110
f 106//111 108//111 107//111
f 109//111 107//111 108//111
f 108//112 90//112 109//112
f 91//112 109//112 90//112
f 110//113 86//113 88//113
f 111//114 110//114 25//114
f 81//115 84//115 102//115
f 102//116 82//116 81//116
f 84//117 86//117 110//117
f 102//118 84//118 110//118
f 102//119 110//119 104//119
f 106//120 104//120 110//120
f 106//121 110//121 111//121
f 111//122 108//122 106//122
f 111//123 89//123 108//123
f 90//124 108//124 89//124
f 110//125 88//125 28//125
f 25//126 110//126 28//126
f 111//127 25//127 41//127
f 111//128 41//128 47//128
f 11//103 72//103 36//103
f 60//129 66//129 67//129
f 34//130 43//130 45//130
f 32//131 34//131 45//131
f 32//132 45//132 42//132
f 31//133 32//133 42//133
f 29//134 42//134 44//134
f 29//135 44//135 26//135
f 69//136 71//136 101//136
f 69//137 101//137 70//137
f 62//138 71//138 69//138
f 62//139 69//139 64//139
f 58//140 62//140 64//140
f 58//141 64//141 60//141
f 6//142 57//142 54//142
f 16//143 74//143 73//143
f 14//144 16//144 73//144
f 27//145 88//145 87//145
f 27//146 28//146 88//146
f 117//147 118//147 165//147
f 117//148 119//148 118//148
f 12//149 128//149 15//149
f 15//150 128//150 127//150
f 5//151 145//151 142//151
f 141//152 137//152 135//152
f 141//153 135//153 138//153
f 138//154 135//154 130//154
f 138//155 130//155 129//155
f 130//156 35//156 100//156
f 130//157 100//157 129//157
f 157//158 155//158 158//158
f 163//159 158//159 162//159
f 162//160 158//160 154//160
f 162//161 154//161 160//161
f 160//162 154//162 156//162
f 137//163 132//163 133//163
f 112//164 152//164 159//164
f 112//165 159//165 114//165
f 114//166 165//166 113//166
f 113//167 165//167 118//167
f 91//168 116//168 109//168
f 112//169 109//169 116//169
f 112//170 107//170 109//170
f 107//171 112//171 113//171
f 107//172 113//172 105//172
f 103//173 105//173 113//173
f 103//174 113//174 123//174
f 123//175 113//175 121//175
f 103//176 124//176 37//176
f 124//177 103//177 123//177
f 112//178 114//178 113//178
f 113//179 118//179 121//179
f 92//180 40//180 93//180
f 115//181 93//181 40//181
f 98//182 129//182 100//182
f 129//183 98//183 120//183
f 120//184 96//184 115//184
f 93//185 115//185 96//185
f 98//186 96//186 120//186
f 144//102 91//102 9//102
f 91//98 144//98 116//98
f 116//98 144//98 148//98
f 116//99 148//99 149//99
f 117//187 164//187 119//187
f 119//188 164//188 161//188
f 119//189 161//189 140//189
f 139//190 119//190 140//190
f 122//191 121//191 119//191
f 119//192 121//192 118//192
f 119//193 139//193 122//193
f 122//194 139//194 134//194
f 129//195 122//195 134//195
f 122//196 129//196 125//196
f 125//197 129//197 120//197
f 125//198 123//198 122//198
f 122//199 123//199 121//199
f 123//200 125//200 124//200
f 125//201 38//201 39//201
f 125//202 39//202 37//202
f 125//203 37//203 124//203
f 38//204 115//204 40//204
f 1//205 23//205 143//205
f 143//206 23//206 21//206
f 126//207 143//207 21//207
f 21//208 19//208 126//208
f 126//209 19//209 17//209
f 36//210 12//210 11//210
f 127//211 126//211 17//211
f 17//212 15//212 127//212
f 12//213 36//213 128//213
f 143//214 126//214 147//214
f 131//215 147//215 126//215
f 126//216 127//216 131//216
f 127//217 128//217 132//217
f 132//218 131//218 127//218
f 128//219 36//219 133//219
f 133//220 132//220 128//220
f 35//221 133//221 36//221
f 147//222 131//222 151//222
f 135//223 133//223 35//223
f 129//224 134//224 138//224
f 130//225 135//225 35//225
f 136//226 151//226 131//226
f 131//227 132//227 136//227
f 137//228 136//228 132//228
f 133//229 135//229 137//229
f 139//230 138//230 134//230
f 151//231 136//231 154//231
f 138//232 139//232 141//232
f 140//233 141//233 139//233
f 137//234 141//234 156//234
f 161//235 141//235 140//235
f 156//236 141//236 160//236
f 141//237 161//237 160//237
f 142//238 7//238 5//238
f 142//239 9//239 7//239
f 5//240 2//240 145//240
f 2//241 1//241 145//241
f 145//242 1//242 143//242
f 142//243 145//243 146//243
f 146//244 144//244 142//244
f 142//245 144//245 9//245
f 145//246 143//246 147//246
f 144//247 146//247 148//247
f 145//248 147//248 150//248
f 150//249 146//249 145//249
f 153//250 148//250 146//250
f 146//251 150//251 153//251
f 151//252 150//252 147//252
f 148//253 153//253 149//253
f 153//254 152//254 149//254
f 158//255 153//255 150//255
f 150//256 151//256 158//256
f 154//257 158//257 151//257
f 153//258 158//258 155//258
f 155//259 159//259 153//259
f 153//260 159//260 152//260
f 157//261 166//261 155//261
f 155//262 166//262 159//262
f 158//263 163//263 157//263
f 159//264 166//264 114//264
f 160//265 161//265 162//265
f 164//266 162//266 161//266
f 162//267 164//267 163//267
f 117//268 157//268 164//268
f 164//269 157//269 163//269
f 157//270 117//270 166//270
f 165//271 114//271 117//271
f 117//272 114//272 166//272
f 92//273 94//273 40//273
f 94//273 77//273 40//273
f 78//274 77//274 95//274
f 78//275 95//275 79//275
f 47//276 89//276 111//276
f 47//277 50//277 89//277
f 116//277 149//277 152//277
f 112//278 116//278 152//278
f 136//279 156//279 154//279
f 136//280 137//280 156//280
f 43//281 60//281 63//281
f 43//282 63//282 45//282
f 76//283 78//283 80//283
f 78//284 79//284 80//284
f 120//285 115//285 125//285
f 38//286 125//286 115//286
f 82//287 102//287 103//287
f 37//287 82//287 103//287
