# Blender v3.0.0 OBJ File: ''
# www.blender.org
mtllib TH1_z.mtl
o th_distal_th_distal_001
v -0.019499 0.290226 0.072561
v 0.033361 0.328132 0.046823
v 0.019499 0.290220 0.072554
v -0.038701 0.225917 0.086518
v 0.038692 0.226053 0.086489
v -0.028350 0.156600 0.096435
v 0.028350 0.156600 0.096435
v -0.039395 0.110841 0.097087
v 0.038552 0.110928 0.097183
v -0.046851 0.005598 -0.088639
v -0.028536 0.150345 -0.084063
v 0.033888 0.005659 -0.089768
v 0.028536 0.150345 -0.084063
v -0.026137 0.191233 -0.081917
v 0.026137 0.191233 -0.081917
v -0.036064 0.274324 -0.075687
v 0.036112 0.274331 -0.075679
v 0.105851 0.109071 -0.011121
v 0.105211 0.047026 0.040201
v 0.107388 0.032860 0.027850
v 0.108910 0.000947 0.000109
v 0.104490 0.134070 0.022741
v 0.100955 0.192526 -0.006743
v 0.097371 0.220093 0.028804
v 0.092302 0.276576 -0.019056
v -0.103403 0.150802 -0.008936
v -0.098131 0.229213 0.012406
v -0.087624 0.292946 -0.022949
v -0.103040 0.157972 0.021197
v -0.105345 0.046580 0.039706
v -0.108786 0.001845 0.001153
v -0.079325 0.152893 -0.070325
v -0.075543 0.006025 -0.077091
v -0.075588 0.287970 -0.054459
v -0.099974 0.151810 -0.032087
v -0.066345 0.288445 0.050447
v -0.097255 0.159637 0.050209
v -0.091449 0.075994 0.066324
v -0.069671 0.160206 0.083641
v -0.071580 0.227565 0.078263
v -0.063266 0.104580 0.090133
v -0.076510 0.315554 -0.017014
v -0.061463 0.324660 0.021670
v -0.028973 0.348524 0.006331
v -0.041487 0.327330 0.044051
v 0.058954 0.323046 0.033657
v 0.076249 0.316266 0.009675
v 0.030833 0.349493 0.005931
v 0.065296 0.289562 0.056326
v 0.097248 0.159765 0.050201
v 0.090318 0.077309 0.067785
v 0.069663 0.160340 0.083632
v 0.065398 0.226070 0.075345
v 0.061165 0.105452 0.091102
v 0.084785 0.153537 -0.070081
v 0.079923 0.004828 -0.073997
v 0.077882 0.276816 -0.049157
v 0.101438 0.151830 -0.032498
v 0.000000 0.334023 -0.052456
vn 0.0003 0.5615 0.8275
vn 0.0002 0.2120 0.9773
vn -0.0000 0.2122 0.9772
vn 0.0001 0.1417 0.9899
vn 0.0000 0.1418 0.9899
vn 0.0000 0.0142 0.9999
vn -0.0012 0.0161 0.9999
vn -0.0140 0.0334 -0.9993
vn 0.0000 0.0394 -0.9992
vn 0.0000 0.0524 -0.9986
vn 0.0000 0.0748 -0.9972
vn 0.0001 0.0748 -0.9972
vn 0.9930 0.0690 0.0958
vn 0.9993 0.0303 0.0199
vn 0.9995 0.0142 0.0297
vn 0.9983 0.0587 -0.0032
vn 0.9961 0.0797 0.0386
vn 0.9943 0.1051 0.0187
vn -0.9883 0.0982 -0.1167
vn -0.9977 0.0682 -0.0042
vn -0.9997 0.0218 0.0068
vn -0.9983 0.0390 0.0438
vn -0.2427 0.0437 -0.9691
vn -0.2575 0.0657 -0.9641
vn -0.2576 0.0631 -0.9642
vn -0.3728 0.0331 -0.9273
vn -0.4383 0.1168 -0.8912
vn -0.9283 0.0686 -0.3654
vn -0.9203 -0.0057 -0.3913
vn -0.8780 -0.0538 -0.4756
vn -0.8761 0.1071 -0.4701
vn -0.9890 0.0259 -0.1454
vn -0.9853 0.0954 -0.1418
vn -0.9090 0.3065 0.2823
vn -0.9799 0.0522 0.1924
vn -0.9776 0.0908 0.1897
vn -0.8964 0.0230 0.4426
vn -0.7701 0.0687 0.6342
vn -0.8970 0.2452 0.3678
vn -0.6530 0.0132 0.7572
vn -0.4022 0.4089 0.8192
vn -0.2218 0.2696 0.9371
vn -0.2396 0.0705 0.9683
vn -0.2974 0.0768 0.9517
vn -0.2881 0.0831 0.9540
vn -0.2870 0.0935 0.9533
vn -0.5810 0.8132 0.0346
vn -0.4617 0.8299 0.3131
vn -0.8919 0.3703 0.2597
vn -0.8960 0.3439 0.2809
vn -0.6689 0.5157 0.5355
vn -0.4045 0.3943 0.8252
vn -0.7878 0.4865 -0.3777
vn 0.5703 0.8003 0.1850
vn -0.0109 0.8733 0.4871
vn -0.0267 0.8854 0.4642
vn 0.3763 0.8306 0.4106
vn -0.0361 0.5954 0.8026
vn -0.0438 -0.9965 -0.0718
vn 0.9101 0.3124 0.2722
vn 0.9785 0.0672 0.1952
vn 0.9763 0.0503 0.2104
vn 0.8898 0.0224 0.4558
vn 0.7546 0.2180 0.6189
vn 0.7700 0.0705 0.6341
vn 0.8228 0.1643 0.5441
vn 0.8253 0.1230 0.5512
vn 0.6295 0.0083 0.7770
vn 0.3249 0.2719 0.9058
vn 0.3812 0.1399 0.9138
vn 0.3671 0.3009 0.8802
vn 0.2764 0.0774 0.9579
vn 0.2879 0.0852 0.9539
vn 0.2870 0.0938 0.9533
vn 0.3243 0.0143 -0.9459
vn 0.2384 0.0471 -0.9700
vn 0.5208 0.1711 -0.8363
vn 0.8954 0.1228 -0.4280
vn 0.9307 -0.0208 -0.3651
vn 0.9127 -0.0426 -0.4064
vn 0.9106 0.1096 -0.3985
vn 0.9897 0.0849 -0.1157
vn 0.9948 0.0626 -0.0802
vn 0.9825 0.0085 -0.1858
vn 0.4278 0.5406 -0.7244
vn 0.5457 0.6927 -0.4717
vn 0.0001 0.3626 -0.9319
vn -0.0174 0.9687 -0.2475
vn -0.3845 0.8342 -0.3953
vn -0.2758 0.4887 -0.8277
vn -0.4263 0.7233 -0.5433
vn 0.7492 0.5596 -0.3544
vn 0.5385 0.7067 -0.4589
vn 0.9382 0.1555 0.3093
vn 0.7815 0.4445 0.4379
vn 0.4651 0.5550 0.6897
vn 0.3029 0.4569 0.8364
vn 0.0002 -0.9991 -0.0417
vn -0.0024 -0.9990 -0.0457
vn -0.0044 -0.9987 -0.0506
vn 0.0749 -0.6511 0.7553
vn -0.0540 -0.6696 0.7407
vn 0.0499 -0.6428 0.7644
vn -0.0002 -0.6618 0.7497
vn -0.0322 -0.6854 0.7275
vn 0.0103 -0.6459 0.7633
vn -0.0054 -0.6696 0.7427
vn 0.0009 -0.6529 0.7575
vn 0.2373 0.0648 -0.9693
vn 0.2259 0.0459 -0.9731
vn -0.7713 0.0289 0.6359
vn -0.9089 0.1902 0.3712
usemtl black_spec.005
s off
f 2//1 1//1 3//1
f 1//2 4//2 3//2
f 5//3 3//3 4//3
f 4//4 6//4 5//4
f 7//5 5//5 6//5
f 6//6 8//6 7//6
f 9//7 7//7 8//7
f 10//8 11//8 12//8
f 13//9 12//9 11//9
f 11//10 14//10 13//10
f 15//10 13//10 14//10
f 14//11 16//11 15//11
f 17//12 15//12 16//12
f 18//13 19//13 20//13
f 21//14 18//14 20//14
f 22//15 19//15 18//15
f 18//16 23//16 22//16
f 24//17 22//17 23//17
f 23//18 25//18 24//18
f 26//19 27//19 28//19
f 29//20 27//20 26//20
f 30//21 29//21 26//21
f 26//22 31//22 30//22
f 32//23 16//23 14//23
f 11//24 32//24 14//24
f 32//25 11//25 10//25
f 10//26 33//26 32//26
f 34//27 16//27 32//27
f 28//28 34//28 32//28
f 32//29 33//29 31//29
f 35//30 32//30 31//30
f 32//31 35//31 28//31
f 35//32 31//32 26//32
f 35//33 26//33 28//33
f 36//34 28//34 27//34
f 37//35 29//35 30//35
f 29//36 37//36 27//36
f 30//37 38//37 37//37
f 39//38 37//38 38//38
f 27//39 40//39 36//39
f 38//40 41//40 39//40
f 1//41 36//41 40//41
f 4//42 1//42 40//42
f 4//43 40//43 39//43
f 39//44 41//44 8//44
f 6//45 39//45 8//45
f 39//46 6//46 4//46
f 42//47 43//47 44//47
f 45//48 44//48 43//48
f 28//49 43//49 42//49
f 43//50 28//50 36//50
f 45//51 43//51 36//51
f 36//52 1//52 45//52
f 34//53 28//53 42//53
f 46//54 47//54 48//54
f 48//55 44//55 45//55
f 2//56 48//56 45//56
f 48//57 2//57 46//57
f 45//58 1//58 2//58
f 33//59 10//59 31//59
f 25//60 49//60 24//60
f 50//61 22//61 24//61
f 22//62 50//62 19//62
f 51//63 19//63 50//63
f 52//64 50//64 24//64
f 50//65 52//65 51//65
f 53//66 24//66 49//66
f 24//67 53//67 52//67
f 52//68 54//68 51//68
f 49//69 3//69 53//69
f 53//70 5//70 52//70
f 5//71 53//71 3//71
f 7//72 9//72 54//72
f 52//73 7//73 54//73
f 7//74 52//74 5//74
f 55//75 56//75 12//75
f 55//76 12//76 13//76
f 17//77 57//77 55//77
f 57//78 25//78 55//78
f 21//79 56//79 55//79
f 55//80 58//80 21//80
f 58//81 55//81 25//81
f 58//82 25//82 23//82
f 18//83 58//83 23//83
f 58//84 18//84 21//84
f 59//85 57//85 17//85
f 48//86 47//86 59//86
f 17//87 16//87 59//87
f 44//88 48//88 59//88
f 42//89 44//89 59//89
f 59//90 16//90 34//90
f 59//91 34//91 42//91
f 25//92 57//92 47//92
f 59//93 47//93 57//93
f 49//94 25//94 47//94
f 47//95 46//95 49//95
f 46//96 2//96 49//96
f 2//97 3//97 49//97
f 31//98 10//98 12//98
f 31//99 12//99 56//99
f 31//100 56//100 21//100
f 21//101 19//101 51//101
f 21//102 51//102 54//102
f 21//103 54//103 9//103
f 21//104 9//104 8//104
f 21//105 8//105 41//105
f 21//106 41//106 38//106
f 21//107 38//107 30//107
f 21//108 30//108 31//108
f 15//109 55//109 13//109
f 15//110 17//110 55//110
f 37//111 39//111 40//111
f 27//112 37//112 40//112
