# Blender v2.93.5 OBJ File: ''
# www.blender.org
mtllib wrist_palm_link_convex.mtl
o Wrist_Palm_Link_Convex_Wrist_Palm_Link_Convex
v -0.044464 -0.001792 0.064910
v -0.044176 0.005364 0.047950
v -0.044464 -0.001792 0.047950
v -0.044176 0.005364 0.064910
v -0.020680 0.039403 0.064910
v -0.014092 0.042210 0.047950
v -0.020680 0.039403 0.047950
v -0.014092 0.042210 0.064910
v -0.042743 0.012381 0.064910
v -0.042743 0.012381 0.047950
v -0.040204 0.019077 0.047950
v -0.040204 0.019077 0.064910
v -0.036623 0.025279 0.064910
v -0.032093 0.030826 0.047950
v -0.036623 0.025279 0.047950
v -0.032093 0.030826 0.064910
v -0.038538 -0.022250 0.064910
v -0.041608 -0.015780 0.047950
v -0.038538 -0.022250 0.047950
v -0.041608 -0.015780 0.064910
v -0.026733 0.035575 0.064910
v -0.026733 0.035575 0.047950
v 0.029509 -0.033309 0.064910
v 0.023784 -0.037611 0.047950
v 0.029509 -0.033309 0.047950
v 0.023784 -0.037611 0.064910
v -0.043601 -0.008901 0.064910
v -0.043601 -0.008901 0.047950
v -0.034470 -0.028144 0.064910
v -0.034470 -0.028144 0.047950
v -0.029509 -0.033309 0.047950
v -0.029509 -0.033309 0.064910
v -0.023784 -0.037611 0.064910
v -0.023784 -0.037611 0.047950
v 0.042743 0.012381 0.064910
v 0.044176 0.005364 0.047950
v 0.042743 0.012381 0.047950
v 0.044176 0.005364 0.064910
v 0.040204 0.019077 0.047950
v 0.040204 0.019077 0.064910
v 0.036623 0.025279 0.064910
v 0.036623 0.025279 0.047950
v 0.032093 0.030826 0.047950
v 0.032093 0.030826 0.064910
v 0.044464 -0.001792 0.064910
v 0.044464 -0.001792 0.047950
v 0.043601 -0.008901 0.047950
v 0.043601 -0.008901 0.064910
v 0.041608 -0.015780 0.064910
v 0.038538 -0.022250 0.047950
v 0.041608 -0.015780 0.047950
v 0.038538 -0.022250 0.064910
v -0.007138 0.043924 0.047950
v -0.007138 0.043924 0.064910
v 0.000000 0.044500 0.064910
v 0.000000 0.044500 0.047950
v 0.026733 0.035575 0.064910
v 0.026733 0.035575 0.047950
v 0.020680 0.039403 0.047950
v 0.020680 0.039403 0.064910
v 0.014092 0.042210 0.064910
v 0.014092 0.042210 0.047950
v 0.034470 -0.028144 0.064910
v 0.034470 -0.028144 0.047950
v 0.003581 -0.044356 0.064910
v -0.003581 -0.044356 0.047950
v 0.003581 -0.044356 0.047950
v -0.003581 -0.044356 0.064910
v 0.010650 -0.043207 0.047950
v 0.010650 -0.043207 0.064910
v -0.017442 -0.040939 0.047950
v 0.007138 0.043924 0.047950
v 0.017442 -0.040939 0.047950
v -0.010650 -0.043207 0.047950
v -0.017442 -0.040939 0.064910
v -0.010650 -0.043207 0.064910
v 0.007138 0.043924 0.064910
v 0.017442 -0.040939 0.064910
vn -0.7237 -0.0291 0.6894
vn -0.7190 0.0873 -0.6894
vn -0.7237 -0.0291 -0.6894
vn -0.7190 0.0873 0.6894
vn -0.3366 0.6413 0.6894
vn -0.2294 0.6871 -0.6894
vn -0.3366 0.6413 -0.6894
vn -0.2294 0.6871 0.6894
vn -0.6957 0.2015 0.6894
vn -0.6957 0.2015 -0.6894
vn -0.6544 0.3105 -0.6894
vn -0.6544 0.3105 0.6894
vn -0.5961 0.4115 0.6894
vn -0.5224 0.5018 -0.6894
vn -0.5961 0.4115 -0.6894
vn -0.5224 0.5018 0.6894
vn -0.6273 -0.3622 0.6894
vn -0.6773 -0.2568 -0.6894
vn -0.6273 -0.3622 -0.6894
vn -0.6773 -0.2568 0.6894
vn -0.4351 0.5791 0.6894
vn -0.4351 0.5791 -0.6894
vn 0.4803 -0.5422 0.6894
vn 0.3871 -0.6122 -0.6894
vn 0.4803 -0.5422 -0.6894
vn 0.3871 -0.6122 0.6894
vn -0.7097 -0.1449 0.6894
vn -0.7097 -0.1449 -0.6894
vn -0.5611 -0.4581 0.6894
vn -0.5611 -0.4581 -0.6894
vn -0.4803 -0.5422 -0.6894
vn -0.4803 -0.5422 0.6894
vn -0.3871 -0.6122 0.6894
vn -0.3871 -0.6122 -0.6894
vn 0.6957 0.2015 0.6894
vn 0.7190 0.0873 -0.6894
vn 0.6957 0.2015 -0.6894
vn 0.7190 0.0873 0.6894
vn 0.6544 0.3105 -0.6894
vn 0.6544 0.3105 0.6894
vn 0.5961 0.4115 0.6894
vn 0.5961 0.4115 -0.6894
vn 0.5224 0.5018 -0.6894
vn 0.5224 0.5018 0.6894
vn 0.7237 -0.0291 0.6894
vn 0.7237 -0.0291 -0.6894
vn 0.7097 -0.1449 -0.6894
vn 0.7097 -0.1449 0.6894
vn 0.6773 -0.2568 0.6894
vn 0.6273 -0.3622 -0.6894
vn 0.6773 -0.2568 -0.6894
vn 0.6273 -0.3622 0.6894
vn -0.1162 0.7150 -0.6894
vn -0.1162 0.7150 0.6894
vn 0.0000 0.7243 0.6894
vn 0.0000 0.7243 -0.6894
vn 0.4351 0.5791 0.6894
vn 0.4351 0.5791 -0.6894
vn 0.3366 0.6413 -0.6894
vn 0.3366 0.6413 0.6894
vn 0.2294 0.6871 0.6894
vn 0.2294 0.6871 -0.6894
vn 0.5611 -0.4581 0.6894
vn 0.5611 -0.4581 -0.6894
vn 0.0583 -0.7220 0.6894
vn -0.0583 -0.7220 -0.6894
vn 0.0583 -0.7220 -0.6894
vn -0.0583 -0.7220 0.6894
vn 0.1733 -0.7033 -0.6894
vn 0.1733 -0.7033 0.6894
vn -0.2839 -0.6664 -0.6894
vn 0.1162 0.7150 -0.6894
vn 0.2839 -0.6664 -0.6894
vn -0.1733 -0.7033 -0.6894
vn -0.2839 -0.6664 0.6894
vn -0.1733 -0.7033 0.6894
vn 0.1162 0.7150 0.6894
vn 0.2839 -0.6664 0.6894
usemtl None
s 1
f 1//1 2//2 3//3
f 2//2 1//1 4//4
f 5//5 6//6 7//7
f 8//8 6//6 5//5
f 2//2 9//9 10//10
f 9//9 2//2 4//4
f 9//9 11//11 10//10
f 9//9 12//12 11//11
f 13//13 14//14 15//15
f 16//16 14//14 13//13
f 13//13 15//15 11//11
f 12//12 13//13 11//11
f 17//17 18//18 19//19
f 17//17 20//20 18//18
f 21//21 22//22 14//14
f 21//21 14//14 16//16
f 21//21 7//7 22//22
f 21//21 5//5 7//7
f 23//23 24//24 25//25
f 23//23 26//26 24//24
f 27//27 28//28 18//18
f 27//27 18//18 20//20
f 27//27 1//1 3//3
f 3//3 28//28 27//27
f 29//29 30//30 31//31
f 29//29 31//31 32//32
f 29//29 19//19 30//30
f 29//29 17//17 19//19
f 33//33 31//31 34//34
f 32//32 31//31 33//33
f 35//35 36//36 37//37
f 38//38 36//36 35//35
f 35//35 37//37 39//39
f 40//40 35//35 39//39
f 41//41 42//42 43//43
f 41//41 43//43 44//44
f 41//41 39//39 42//42
f 41//41 40//40 39//39
f 45//45 46//46 36//36
f 45//45 36//36 38//38
f 47//47 45//45 48//48
f 46//46 45//45 47//47
f 49//49 50//50 51//51
f 52//52 50//50 49//49
f 49//49 51//51 47//47
f 49//49 47//47 48//48
f 53//53 54//54 55//55
f 53//53 55//55 56//56
f 53//53 6//6 8//8
f 53//53 8//8 54//54
f 57//57 43//43 58//58
f 44//44 43//43 57//57
f 57//57 58//58 59//59
f 60//60 57//57 59//59
f 61//61 59//59 62//62
f 61//61 60//60 59//59
f 63//63 64//64 50//50
f 63//63 50//50 52//52
f 63//63 25//25 64//64
f 63//63 23//23 25//25
f 65//65 66//66 67//67
f 68//68 66//66 65//65
f 65//65 67//67 69//69
f 70//70 65//65 69//69
f 71//71 19//19 18//18
f 7//7 6//6 71//71
f 10//10 11//11 71//71
f 71//71 18//18 28//28
f 69//69 67//67 71//71
f 11//11 15//15 71//71
f 71//71 39//39 37//37
f 71//71 22//22 7//7
f 71//71 2//2 10//10
f 37//37 36//36 71//71
f 71//71 51//51 50//50
f 14//14 22//22 71//71
f 50//50 64//64 71//71
f 71//71 42//42 39//39
f 59//59 58//58 71//71
f 71//71 67//67 66//66
f 71//71 72//72 62//62
f 71//71 15//15 14//14
f 71//71 3//3 2//2
f 30//30 19//19 71//71
f 71//71 62//62 59//59
f 34//34 31//31 71//71
f 71//71 47//47 51//51
f 25//25 24//24 71//71
f 71//71 24//24 73//73
f 71//71 64//64 25//25
f 71//71 28//28 3//3
f 71//71 31//31 30//30
f 43//43 42//42 71//71
f 71//71 36//36 46//46
f 71//71 58//58 43//43
f 6//6 53//53 71//71
f 66//66 74//74 71//71
f 46//46 47//47 71//71
f 71//71 53//53 56//56
f 56//56 72//72 71//71
f 71//71 73//73 69//69
f 71//71 75//75 33//33
f 71//71 33//33 34//34
f 76//76 74//74 66//66
f 76//76 66//66 68//68
f 76//76 71//71 74//74
f 75//75 71//71 76//76
f 55//55 77//77 56//56
f 77//77 72//72 56//56
f 77//77 62//62 72//72
f 77//77 61//61 62//62
f 4//4 1//1 78//78
f 5//5 21//21 78//78
f 8//8 5//5 78//78
f 78//78 13//13 12//12
f 78//78 57//57 60//60
f 40//40 41//41 78//78
f 78//78 1//1 27//27
f 78//78 33//33 75//75
f 12//12 9//9 78//78
f 61//61 77//77 78//78
f 17//17 29//29 78//78
f 78//78 54//54 8//8
f 78//78 49//49 48//48
f 26//26 23//23 78//78
f 78//78 9//9 4//4
f 16//16 13//13 78//78
f 20//20 17//17 78//78
f 78//78 65//65 70//70
f 78//78 35//35 40//40
f 48//48 45//45 78//78
f 55//55 54//54 78//78
f 78//78 21//21 16//16
f 60//60 61//61 78//78
f 23//23 63//63 78//78
f 78//78 27//27 20//20
f 78//78 29//29 32//32
f 32//32 33//33 78//78
f 38//38 35//35 78//78
f 78//78 41//41 44//44
f 78//78 45//45 38//38
f 52//52 49//49 78//78
f 44//44 57//57 78//78
f 75//75 76//76 78//78
f 78//78 63//63 52//52
f 68//68 65//65 78//78
f 78//78 76//76 68//68
f 78//78 77//77 55//55
f 24//24 26//26 78//78
f 78//78 73//73 24//24
f 78//78 70//70 69//69
f 69//69 73//73 78//78
